<svg id="Layer_1" data-name="Layer 1" xmlns="http://www.w3.org/2000/svg" viewBox="0 0 23.9 23.9"><defs><style>.cls-1{fill:#fff;opacity:0.8;}</style></defs><path class="cls-1" d="M.05.05V24H24V.05ZM18.94,10.66A7.07,7.07,0,0,1,16.15,10a9.48,9.48,0,0,1-1.08-.62c0,1.94,0,3.89,0,5.82a5,5,0,0,1-.9,2.63A4.92,4.92,0,0,1,10.22,20,4.8,4.8,0,0,1,7.5,19.3a5,5,0,0,1-2.43-3.8c0-.34,0-.67,0-1a5,5,0,0,1,5.82-4.46c0,1,0,2,0,3a2.34,2.34,0,0,0-2,.25,2.31,2.31,0,0,0-.91,1.17,2.73,2.73,0,0,0-.09,1.07,2.28,2.28,0,0,0,4.18.84,1.67,1.67,0,0,0,.27-.71c.07-1.19,0-2.38.05-3.57,0-2.68,0-5.36,0-8H15a4.17,4.17,0,0,0,1.17,2.78A4.75,4.75,0,0,0,18.94,8Z" transform="translate(-0.05 -0.05)"/></svg>