<svg width="24" height="25" viewBox="0 0 24 25" fill="none" xmlns="http://www.w3.org/2000/svg">
<path opacity="0.5" d="M11.9997 9.92228C10.6872 9.92228 9.61853 11.0273 9.61853 12.385C9.61853 13.7433 10.6872 14.8489 11.9997 14.8489C13.3128 14.8489 14.3809 13.7433 14.3809 12.385C14.3809 11.0273 13.3128 9.92228 11.9997 9.92228ZM11.9997 9.92228C10.6872 9.92228 9.61853 11.0273 9.61853 12.385C9.61853 13.7433 10.6872 14.8489 11.9997 14.8489C13.3128 14.8489 14.3809 13.7433 14.3809 12.385C14.3809 11.0273 13.3128 9.92228 11.9997 9.92228ZM15.9666 5.90608H8.03334C6.76708 5.90608 5.73673 6.97196 5.73673 8.28188V16.4888C5.73673 17.7987 6.76708 18.8646 8.03334 18.8646H15.9666C17.2329 18.8646 18.2633 17.7987 18.2633 16.4888V8.28188C18.2633 6.97196 17.2329 5.90608 15.9666 5.90608ZM11.9997 16.6513C9.72624 16.6513 7.87624 14.7375 7.87624 12.385C7.87624 10.0332 9.72624 8.11936 11.9997 8.11936C14.2737 8.11936 16.1238 10.0332 16.1238 12.385C16.1238 14.7375 14.2737 16.6513 11.9997 16.6513ZM16.2562 9.00153C15.7181 9.00153 15.2805 8.54876 15.2805 7.99218C15.2805 7.43559 15.7181 6.98283 16.2562 6.98283C16.7942 6.98283 17.2319 7.43559 17.2319 7.99218C17.2319 8.54876 16.7942 9.00153 16.2562 9.00153ZM11.9997 9.92228C10.6872 9.92228 9.61853 11.0273 9.61853 12.385C9.61853 13.7433 10.6872 14.8489 11.9997 14.8489C13.3128 14.8489 14.3809 13.7433 14.3809 12.385C14.3809 11.0273 13.3128 9.92228 11.9997 9.92228ZM15.9666 5.90608H8.03334C6.76708 5.90608 5.73673 6.97196 5.73673 8.28188V16.4888C5.73673 17.7987 6.76708 18.8646 8.03334 18.8646H15.9666C17.2329 18.8646 18.2633 17.7987 18.2633 16.4888V8.28188C18.2633 6.97196 17.2329 5.90608 15.9666 5.90608ZM11.9997 16.6513C9.72624 16.6513 7.87624 14.7375 7.87624 12.385C7.87624 10.0332 9.72624 8.11936 11.9997 8.11936C14.2737 8.11936 16.1238 10.0332 16.1238 12.385C16.1238 14.7375 14.2737 16.6513 11.9997 16.6513ZM16.2562 9.00153C15.7181 9.00153 15.2805 8.54876 15.2805 7.99218C15.2805 7.43559 15.7181 6.98283 16.2562 6.98283C16.7942 6.98283 17.2319 7.43559 17.2319 7.99218C17.2319 8.54876 16.7942 9.00153 16.2562 9.00153ZM11.9997 9.92228C10.6872 9.92228 9.61853 11.0273 9.61853 12.385C9.61853 13.7433 10.6872 14.8489 11.9997 14.8489C13.3128 14.8489 14.3809 13.7433 14.3809 12.385C14.3809 11.0273 13.3128 9.92228 11.9997 9.92228ZM0.0275192 0V24.7706H23.9725V0H0.0275192ZM20.0056 16.4888C20.0056 18.7928 18.1939 20.6669 15.9666 20.6669H8.03334C5.80608 20.6669 3.99444 18.7928 3.99444 16.4888V8.28188C3.99444 5.97783 5.80608 4.10371 8.03334 4.10371H15.9666C18.1939 4.10371 20.0056 5.97783 20.0056 8.28188V16.4888ZM15.9666 5.90608H8.03334C6.76708 5.90608 5.73673 6.97196 5.73673 8.28188V16.4888C5.73673 17.7987 6.76708 18.8646 8.03334 18.8646H15.9666C17.2329 18.8646 18.2633 17.7987 18.2633 16.4888V8.28188C18.2633 6.97196 17.2329 5.90608 15.9666 5.90608ZM11.9997 16.6513C9.72624 16.6513 7.87624 14.7375 7.87624 12.385C7.87624 10.0332 9.72624 8.11936 11.9997 8.11936C14.2737 8.11936 16.1238 10.0332 16.1238 12.385C16.1238 14.7375 14.2737 16.6513 11.9997 16.6513ZM16.2562 9.00153C15.7181 9.00153 15.2805 8.54876 15.2805 7.99218C15.2805 7.43559 15.7181 6.98283 16.2562 6.98283C16.7942 6.98283 17.2319 7.43559 17.2319 7.99218C17.2319 8.54876 16.7942 9.00153 16.2562 9.00153ZM11.9997 9.92228C10.6872 9.92228 9.61853 11.0273 9.61853 12.385C9.61853 13.7433 10.6872 14.8489 11.9997 14.8489C13.3128 14.8489 14.3809 13.7433 14.3809 12.385C14.3809 11.0273 13.3128 9.92228 11.9997 9.92228ZM11.9997 9.92228C10.6872 9.92228 9.61853 11.0273 9.61853 12.385C9.61853 13.7433 10.6872 14.8489 11.9997 14.8489C13.3128 14.8489 14.3809 13.7433 14.3809 12.385C14.3809 11.0273 13.3128 9.92228 11.9997 9.92228ZM11.9997 9.92228C10.6872 9.92228 9.61853 11.0273 9.61853 12.385C9.61853 13.7433 10.6872 14.8489 11.9997 14.8489C13.3128 14.8489 14.3809 13.7433 14.3809 12.385C14.3809 11.0273 13.3128 9.92228 11.9997 9.92228ZM15.9666 5.90608H8.03334C6.76708 5.90608 5.73673 6.97196 5.73673 8.28188V16.4888C5.73673 17.7987 6.76708 18.8646 8.03334 18.8646H15.9666C17.2329 18.8646 18.2633 17.7987 18.2633 16.4888V8.28188C18.2633 6.97196 17.2329 5.90608 15.9666 5.90608ZM11.9997 16.6513C9.72624 16.6513 7.87624 14.7375 7.87624 12.385C7.87624 10.0332 9.72624 8.11936 11.9997 8.11936C14.2737 8.11936 16.1238 10.0332 16.1238 12.385C16.1238 14.7375 14.2737 16.6513 11.9997 16.6513ZM16.2562 9.00153C15.7181 9.00153 15.2805 8.54876 15.2805 7.99218C15.2805 7.43559 15.7181 6.98283 16.2562 6.98283C16.7942 6.98283 17.2319 7.43559 17.2319 7.99218C17.2319 8.54876 16.7942 9.00153 16.2562 9.00153ZM11.9997 9.92228C10.6872 9.92228 9.61853 11.0273 9.61853 12.385C9.61853 13.7433 10.6872 14.8489 11.9997 14.8489C13.3128 14.8489 14.3809 13.7433 14.3809 12.385C14.3809 11.0273 13.3128 9.92228 11.9997 9.92228ZM11.9997 9.92228C10.6872 9.92228 9.61853 11.0273 9.61853 12.385C9.61853 13.7433 10.6872 14.8489 11.9997 14.8489C13.3128 14.8489 14.3809 13.7433 14.3809 12.385C14.3809 11.0273 13.3128 9.92228 11.9997 9.92228ZM11.9997 9.92228C10.6872 9.92228 9.61853 11.0273 9.61853 12.385C9.61853 13.7433 10.6872 14.8489 11.9997 14.8489C13.3128 14.8489 14.3809 13.7433 14.3809 12.385C14.3809 11.0273 13.3128 9.92228 11.9997 9.92228ZM15.9666 5.90608H8.03334C6.76708 5.90608 5.73673 6.97196 5.73673 8.28188V16.4888C5.73673 17.7987 6.76708 18.8646 8.03334 18.8646H15.9666C17.2329 18.8646 18.2633 17.7987 18.2633 16.4888V8.28188C18.2633 6.97196 17.2329 5.90608 15.9666 5.90608ZM11.9997 16.6513C9.72624 16.6513 7.87624 14.7375 7.87624 12.385C7.87624 10.0332 9.72624 8.11936 11.9997 8.11936C14.2737 8.11936 16.1238 10.0332 16.1238 12.385C16.1238 14.7375 14.2737 16.6513 11.9997 16.6513ZM16.2562 9.00153C15.7181 9.00153 15.2805 8.54876 15.2805 7.99218C15.2805 7.43559 15.7181 6.98283 16.2562 6.98283C16.7942 6.98283 17.2319 7.43559 17.2319 7.99218C17.2319 8.54876 16.7942 9.00153 16.2562 9.00153ZM11.9997 9.92228C10.6872 9.92228 9.61853 11.0273 9.61853 12.385C9.61853 13.7433 10.6872 14.8489 11.9997 14.8489C13.3128 14.8489 14.3809 13.7433 14.3809 12.385C14.3809 11.0273 13.3128 9.92228 11.9997 9.92228Z" fill="white"/>
</svg>
