<svg width="40" height="40" viewBox="0 0 40 40" fill="none" xmlns="http://www.w3.org/2000/svg">
<g clip-path="url(#clip0)">
<path d="M20 39.999C31.0457 39.999 40 31.0447 40 19.999C40 8.95333 31.0457 -0.000976562 20 -0.000976562C8.95431 -0.000976562 0 8.95333 0 19.999C0 31.0447 8.95431 39.999 20 39.999Z" fill="#007AB9"/>
<path d="M31.9498 21.609V29.8545H27.1693V22.1616C27.1693 20.23 26.479 18.9108 24.7481 18.9108C23.4272 18.9108 22.6425 19.7989 22.296 20.6589C22.1701 20.9662 22.1377 21.3929 22.1377 21.824V29.8542H17.3568C17.3568 29.8542 17.421 16.8249 17.3568 15.4761H22.1381V17.5136C22.1284 17.5297 22.1149 17.5454 22.1063 17.5607H22.1381V17.5136C22.7734 16.5361 23.9064 15.1385 26.4466 15.1385C29.5918 15.1385 31.9498 17.1935 31.9498 21.609ZM12.3555 8.54541C10.7202 8.54541 9.65027 9.61889 9.65027 11.0293C9.65027 12.4097 10.6892 13.5142 12.2928 13.5142H12.3238C13.9912 13.5142 15.028 12.4097 15.028 11.0293C14.9963 9.61889 13.9912 8.54541 12.3555 8.54541ZM9.93441 29.8545H14.7136V15.4761H9.93441V29.8545Z" fill="#F1F2F2"/>
</g>
<defs>
<clipPath id="clip0">
<rect width="40" height="40" fill="white"/>
</clipPath>
</defs>
</svg>
