<svg
  width="180"
  height="51"
  viewBox="0 0 180 51"
  fill="none"
  xmlns="http://www.w3.org/2000/svg"
>
  <path
    d="M42.152 41.7836H33.3389L33.374 41.7485L42.152 32.9705V41.7836ZM33.4618 41.731H42.0994V33.0933L33.4618 41.731Z"
    fill="white"
  />
  <path
    d="M8.69043 16.4326V8.32166H16.8013L16.7662 8.35677L8.69043 16.4326ZM8.7431 8.37433V16.3097L16.6785 8.37433H8.7431Z"
    fill="white"
  />
  <path
    d="M42.152 17.1348L33.3389 8.32166H42.152V17.1348ZM33.4618 8.37433L42.0994 17.0119V8.37433H33.4618Z"
    fill="white"
  />
  <path
    d="M16.8013 41.7836H8.69043V33.6727L8.72554 33.7078L16.8013 41.7836ZM8.7431 41.731H16.6785L8.7431 33.7956V41.731Z"
    fill="white"
  />
  <path
    d="M31.0563 7.37361H19.083L19.1181 7.3385L25.0696 1.40454L31.0563 7.37361ZM19.2059 7.32095H30.9334L25.0696 1.45721L19.2059 7.32095Z"
    fill="white"
  />
  <path
    d="M43.0996 30.6881V19.4171L48.7351 25.0526L48.7176 25.0702L43.0996 30.6881ZM43.1523 19.54V30.5652L48.6649 25.0526L43.1523 19.54Z"
    fill="white"
  />
  <path
    d="M7.74205 31.3903L7.70694 31.3552L1.4043 25.0526L1.42185 25.035L7.74205 18.7148V31.3903ZM1.47452 25.0526L7.68938 31.2675V18.8377L1.47452 25.0526Z"
    fill="white"
  />
  <path
    d="M25.0696 48.7182L25.0521 48.7006L19.083 42.7316H31.0563L31.0212 42.7667L25.0696 48.7182ZM19.2059 42.7842L25.0696 48.648L30.9334 42.7842H19.2059Z"
    fill="white"
  />
  <path
    d="M32.0049 41.7836H18.1356L8.69043 32.3384V17.7668L18.1356 8.32166H32.0049L42.1523 18.4691V31.6362L32.0049 41.7836ZM18.1532 41.7309H31.9698L42.0997 31.601V18.4866L31.9698 8.35677H18.1532L8.72554 17.7844V32.3033L18.1532 41.7309Z"
    fill="white"
  />
  <path
    d="M43.1529 18.0652V7.33845H32.4086L25.0877 0.0175572L25.0701 0L17.7317 7.33845H7.70713V17.363L0.0175572 25.035L0 25.0526L7.68957 32.7421V42.7667H17.7141L25.035 50.0875L25.0525 50.1051L32.391 42.7667H43.1178V32.0574L50.0875 25.0877L50.1051 25.0701L43.1529 18.0652ZM42.0995 8.37426V17.0119L33.4619 8.37426H42.0995ZM25.0701 1.45716L30.9338 7.32089H19.2064L25.0701 1.45716ZM8.74294 16.3096V8.37426H16.6783L8.74294 16.3096ZM18.153 8.37426H31.9697L42.0995 18.5041V24.6136L33.2864 24.6488L24.9648 16.3272L16.3974 24.8945H8.74294V17.7843L18.153 8.37426ZM24.6136 24.087C24.1221 24.087 23.7183 24.4381 23.6305 24.8945H20.0666C20.1368 22.2436 22.2962 20.1017 24.9648 20.1017C27.6684 20.1017 29.8805 22.2962 29.8805 25.0174C29.8805 27.7211 27.686 29.9331 24.9648 29.9331C22.384 29.9331 20.2597 27.9318 20.0666 25.4037H23.6305C23.7534 25.825 24.1396 26.1235 24.5961 26.1235C25.1579 26.1235 25.5968 25.667 25.5968 25.1228C25.6143 24.5434 25.1579 24.087 24.6136 24.087ZM7.68957 31.2674L1.47471 25.0526L7.68957 18.8377V21.7871L4.7577 24.9297L7.68957 27.9844V31.2674ZM8.74294 41.7308V33.7955L16.6783 41.7308H8.74294ZM25.0701 48.6479L19.2064 42.7842H30.9338L25.0701 48.6479ZM42.0995 41.7308H33.4619L42.0995 33.0932V41.7308ZM31.9872 41.7308H18.1706L8.74294 32.3032V25.3861H16.6607L24.9648 33.6901L33.5146 25.1403L42.082 25.193V31.6185L31.9872 41.7308ZM43.1529 30.5652V27.7913L45.7336 24.8419L43.1529 22.0153V19.5399L48.6655 25.0526L43.1529 30.5652Z"
    fill="white"
  />
  <path
    d="M25.0346 36.0778L20.7684 31.8116L19.8906 32.707L25.0346 37.8509L30.1961 32.707L29.3007 31.8116L25.0346 36.0778Z"
    fill="white"
  />
  <path
    d="M25.0346 13.8517L29.3007 18.1178L30.1961 17.24L25.0346 12.0961L19.8906 17.24L20.7684 18.1178L25.0346 13.8517Z"
    fill="white"
  />
  <path
    d="M111.911 12.591C110.718 11.5062 109.019 11 106.813 11H106.524C104.354 11 102.618 11.5062 101.425 12.591C100.232 13.6758 99.6895 15.303 99.6895 17.364V33.9612C99.6895 35.9861 100.232 37.6133 101.425 38.7342C102.618 39.819 104.318 40.3253 106.524 40.3253H106.849C109.019 40.3253 110.754 39.819 111.947 38.7342C113.141 37.6495 113.683 36.0223 113.683 33.9612V17.3279C113.647 15.303 113.105 13.6758 111.911 12.591ZM110.537 33.238C110.537 34.7929 110.212 35.8415 109.669 36.42C109.163 36.9986 108.151 37.324 106.668 37.324C105.186 37.324 104.173 36.9624 103.667 36.42C103.125 35.8776 102.799 34.7929 102.799 33.238V18.0511C102.799 16.4962 103.125 15.4114 103.667 14.8691C104.173 14.2905 105.186 13.9651 106.668 13.9651C108.151 13.9651 109.127 14.3267 109.669 14.8691C110.212 15.4114 110.537 16.4962 110.537 18.0511V33.238Z"
    fill="white"
  />
  <path
    d="M143.551 12.8803C142.358 11.7955 140.658 11.2893 138.452 11.2893H131.944L131.546 11.6871V39.5298L131.944 39.9275H138.452C140.622 39.9275 142.358 39.4213 143.551 38.3365C144.744 37.2517 145.286 35.6246 145.286 33.5635V17.6534C145.286 15.5923 144.744 13.9651 143.551 12.8803ZM142.177 32.9126C142.177 34.4675 141.851 35.5522 141.309 36.0946C140.767 36.6732 139.79 36.9986 138.308 36.9986H134.656V14.2544H138.308C139.79 14.2544 140.767 14.616 141.309 15.1584C141.851 15.7007 142.177 16.7855 142.177 18.3404V32.9126Z"
    fill="white"
  />
  <path
    d="M77.0897 26.4762C76.7281 25.8615 76.1857 25.4276 75.571 25.1022C76.1495 24.7767 76.6196 24.3428 76.9451 23.7281C77.4151 22.8603 77.6321 21.8478 77.6321 20.7269V17.2556C77.6321 15.5199 77.1259 14.0374 76.0772 12.9888C74.884 11.8678 73.2568 11.2893 71.1596 11.3254H64.4339L64 11.7232V39.5659L64.3978 39.9637H71.0149C73.1122 39.9637 74.8478 39.4213 76.0411 38.3003C77.162 37.2156 77.7406 35.733 77.7406 34.0335V29.4775C77.7767 28.3565 77.5598 27.3441 77.0897 26.4762ZM67.1459 14.2182H71.0511C72.389 14.2182 73.2568 14.5436 73.763 15.086C74.2331 15.6284 74.5224 16.5324 74.5224 17.8703V21.0885C74.5224 22.0286 74.2331 22.6072 73.7269 23.0049C73.2206 23.4027 72.3167 23.6558 71.0511 23.6558H67.1459V14.2182ZM74.6309 33.3827C74.6309 34.7567 74.3777 35.6245 73.8715 36.1669C73.3653 36.7093 72.4975 37.0348 71.1596 37.0348H67.1459V26.657H71.1957C72.4613 26.657 73.3291 26.9101 73.8715 27.3079C74.3777 27.7056 74.667 28.2842 74.667 29.2243V33.3827H74.6309Z"
    fill="white"
  />
  <path
    d="M176.456 25.3553L172.225 23.0049C171.104 22.4264 170.417 21.9201 170.2 21.6309C169.875 21.2331 169.694 20.6546 169.694 19.7506V17.798C169.694 16.3154 170.02 15.3391 170.49 14.7967C170.996 14.2543 171.9 13.8927 173.274 13.8927C174.648 13.8927 175.588 14.2182 176.058 14.7967C176.528 15.3391 176.854 16.3154 176.854 17.798V21.4501L177.252 21.8478H179.566L179.964 21.4501V17.1833C179.964 15.2306 179.385 13.6396 178.119 12.5549C176.926 11.5062 175.299 11 173.274 11H173.202C171.177 11 169.55 11.5062 168.356 12.5549C167.127 13.6396 166.512 15.2306 166.548 17.1833V20.4014C166.548 21.5585 166.838 22.5348 167.416 23.3303C167.922 24.0174 168.79 24.7044 170.056 25.3914L174.214 27.6333C175.335 28.248 176.058 28.7904 176.311 29.152C176.673 29.5859 176.89 30.2368 176.89 31.1408V33.3465C176.89 34.829 176.601 35.8053 176.094 36.3839C175.552 36.9986 174.648 37.324 173.274 37.324C171.9 37.324 170.996 36.9986 170.49 36.3839C169.984 35.8053 169.658 34.829 169.658 33.3465V29.4051L169.26 29.0074H166.946L166.548 29.4051V33.9974C166.548 35.9861 167.091 37.6133 168.248 38.6981C169.405 39.7829 171.104 40.2891 173.238 40.2891H173.31C175.444 40.2891 177.143 39.7829 178.3 38.6981C179.457 37.6133 180 36.0223 180 33.9974V30.4537C180.036 28.3203 178.734 26.5847 176.456 25.3553Z"
    fill="white"
  />
  <path
    d="M162.534 11.2893H160.22L159.822 11.6871V33.2019C159.822 34.7929 159.497 35.8777 159.027 36.3839C158.557 36.9263 157.58 37.2879 156.134 37.2879C154.651 37.2879 153.711 36.9263 153.241 36.3839C152.771 35.8777 152.446 34.7929 152.446 33.2019V11.7232L152.048 11.3255H149.734L149.336 11.7232V33.9612C149.336 35.9862 149.878 37.6133 151.072 38.6981C152.229 39.7829 153.928 40.2891 156.098 40.2891H156.242C158.376 40.2891 160.075 39.7829 161.269 38.6981C162.426 37.6133 163.004 35.9862 163.004 33.9612V11.7232L162.534 11.2893Z"
    fill="white"
  />
  <path
    d="M128.689 36.9986H120.842V11.7232L120.444 11.2893H118.13L117.732 11.7232V39.5659L118.13 39.9637H128.689L129.123 39.5659V37.3964L128.689 36.9986Z"
    fill="white"
  />
  <path
    d="M95.2054 11.2893H92.8912L92.4935 11.7232V23.9089H84.5745V11.6871L84.1768 11.2893H81.8626L81.4648 11.7232V39.5659L81.8626 39.9637H84.1768L84.5745 39.5659V26.874H92.4935V39.5298L92.9274 39.9637H95.2054L95.6032 39.5659V11.7232L95.2054 11.2893Z"
    fill="white"
  />
</svg>