<svg width="20" height="20" viewBox="0 0 20 20" fill="none" xmlns="http://www.w3.org/2000/svg">
<rect width="20" height="20" rx="3" fill="#D5D5D5"/>
<path d="M4.108 5.2V4.813H4.831V7H4.399V5.2H4.108Z" fill="black"/>
<path d="M4.291 10.526C4.483 10.366 4.636 10.233 4.75 10.127C4.864 10.019 4.959 9.907 5.035 9.791C5.111 9.675 5.149 9.561 5.149 9.449C5.149 9.347 5.125 9.267 5.077 9.209C5.029 9.151 4.955 9.122 4.855 9.122C4.755 9.122 4.678 9.156 4.624 9.224C4.57 9.29 4.542 9.381 4.54 9.497H4.132C4.14 9.257 4.211 9.075 4.345 8.951C4.481 8.827 4.653 8.765 4.861 8.765C5.089 8.765 5.264 8.826 5.386 8.948C5.508 9.068 5.569 9.227 5.569 9.425C5.569 9.581 5.527 9.73 5.443 9.872C5.359 10.014 5.263 10.138 5.155 10.244C5.047 10.348 4.906 10.474 4.732 10.622H5.617V10.97H4.135V10.658L4.291 10.526Z" fill="black"/>
<path d="M4.165 13.389C4.175 13.189 4.245 13.035 4.375 12.927C4.507 12.817 4.68 12.762 4.894 12.762C5.04 12.762 5.165 12.788 5.269 12.84C5.373 12.89 5.451 12.959 5.503 13.047C5.557 13.133 5.584 13.231 5.584 13.341C5.584 13.467 5.551 13.574 5.485 13.662C5.421 13.748 5.344 13.806 5.254 13.836V13.848C5.37 13.884 5.46 13.948 5.524 14.04C5.59 14.132 5.623 14.25 5.623 14.394C5.623 14.514 5.595 14.621 5.539 14.715C5.485 14.809 5.404 14.883 5.296 14.937C5.19 14.989 5.062 15.015 4.912 15.015C4.686 15.015 4.502 14.958 4.36 14.844C4.218 14.73 4.143 14.562 4.135 14.34H4.543C4.547 14.438 4.58 14.517 4.642 14.577C4.706 14.635 4.793 14.664 4.903 14.664C5.005 14.664 5.083 14.636 5.137 14.58C5.193 14.522 5.221 14.448 5.221 14.358C5.221 14.238 5.183 14.152 5.107 14.1C5.031 14.048 4.913 14.022 4.753 14.022H4.666V13.677H4.753C5.037 13.677 5.179 13.582 5.179 13.392C5.179 13.306 5.153 13.239 5.101 13.191C5.051 13.143 4.978 13.119 4.882 13.119C4.788 13.119 4.715 13.145 4.663 13.197C4.613 13.247 4.584 13.311 4.576 13.389H4.165Z" fill="black"/>
<path d="M8 6H15" stroke="black" stroke-linecap="round"/>
<path d="M8 10H15" stroke="black" stroke-linecap="round"/>
<path d="M8 14H15" stroke="black" stroke-linecap="round"/>
</svg>
