<svg width="25" height="25" viewBox="0 0 25 25" fill="none" xmlns="http://www.w3.org/2000/svg">
<g opacity="0.5">
<path fill-rule="evenodd" clip-rule="evenodd" d="M0.514236 0H25V24.4858H0.514236V0ZM3.42047 11.7858L19.7944 5.40509C20.4176 5.16224 21.0617 5.70769 20.9248 6.36237L18.1292 19.7279C17.9981 20.3551 17.2624 20.6368 16.7459 20.2576L12.525 17.1593L10.3737 19.3559C9.9962 19.7414 9.34399 19.5853 9.18178 19.0707L7.62897 14.1434L3.46818 12.9148C2.92224 12.7536 2.89011 11.9925 3.42047 11.7858ZM10.1359 15.0969L17.7415 8.37123C17.9236 8.21026 17.7122 7.92592 17.5056 8.05412L8.5242 13.6245C8.36607 13.7225 8.29413 13.9151 8.34931 14.0928L9.55407 17.9749C9.57943 18.0564 9.69822 18.0452 9.70778 17.9603L10.0006 15.3573C10.0119 15.2567 10.0601 15.1639 10.1359 15.0969Z" fill="white"/>
</g>
</svg>
