<svg width="24" height="23" viewBox="0 0 24 23" fill="none" xmlns="http://www.w3.org/2000/svg">
<path fill-rule="evenodd" clip-rule="evenodd" d="M0.51416 0H23.5142V23H0.51416V0ZM3.24404 11.0707L18.6244 5.07711C19.2098 4.84899 19.8148 5.36135 19.6862 5.9763L17.0603 18.5308C16.9371 19.1199 16.2461 19.3845 15.7609 19.0284L11.7961 16.1181L9.77541 18.1814C9.42076 18.5435 8.80813 18.3969 8.65577 17.9135L7.19718 13.2852L3.28886 12.1311C2.77605 11.9797 2.74587 11.2648 3.24404 11.0707ZM9.55203 14.1808L16.6961 7.86327C16.8672 7.71206 16.6685 7.44498 16.4745 7.5654L8.03808 12.7978C7.88955 12.8899 7.82198 13.0707 7.87381 13.2377L9.00546 16.8842C9.02928 16.9608 9.14087 16.9502 9.14985 16.8705L9.4249 14.4254C9.4355 14.3309 9.48082 14.2438 9.55203 14.1808Z" fill="#1F2541"/>
</svg>
