<svg
  xmlns="http://www.w3.org/2000/svg"
  width="202"
  height="202"
  viewBox="0 0 202 202"
  fill="none"
>
  <g filter="url(#filter0_d_1658:863)">
    <path
      fill-rule="evenodd"
      clip-rule="evenodd"
      d="M171.082 28.4135V69.946L198 97.068L197.932 97.1359L170.946 124.122V165.587H129.413L101 194L100.932 193.932L72.5865 165.587H33.773V126.773L4 97L4.06798 96.932L33.8409 67.227V28.4135H72.6545L101.068 0L101.136 0.0679789L129.481 28.4135H171.082ZM167.004 32.4247V65.8675L133.561 32.4247H167.004ZM123.772 28.3455L101.068 5.64213L78.3647 28.3455H123.772ZM68.5753 32.4247L37.8516 63.1484V32.4247H68.5753ZM127.782 32.424H74.2859L37.8514 68.8585V96.3882H67.4884L100.66 63.2165L132.88 95.4366L167.004 95.3006V71.6454L127.782 32.424ZM95.494 96.3882C95.8339 94.6209 97.3973 93.2614 99.3006 93.2614C101.408 93.2614 103.175 95.0287 103.107 97.2719C103.107 99.3791 101.408 101.146 99.2327 101.146C97.4653 101.146 95.9699 99.9909 95.494 98.3595H81.6952C82.4429 108.148 90.6678 115.897 100.66 115.897C111.196 115.897 119.693 107.332 119.693 96.8641C119.693 86.328 111.128 77.8311 100.66 77.8311C90.328 77.8311 81.9671 86.1241 81.6952 96.3882H95.494ZM9.71009 97.0002L33.773 121.063V108.352L22.4212 96.5242L33.773 84.3567V72.9373L9.71009 97.0002ZM68.576 161.576L37.8516 130.851V161.576L68.576 161.576ZM78.365 165.655L101.068 188.358L123.771 165.655H78.365ZM133.561 161.576H167.004V128.133L133.561 161.576ZM166.43 122.929L127.783 161.576H74.3539L37.8514 125.074V98.2915H68.5081L100.66 130.444L133.764 97.3399L166.936 97.5438V122.423L166.43 122.929ZM171.082 118.344L192.426 97L171.082 75.6564V85.2409L181.074 96.1843L171.082 107.604V118.344ZM84.4144 123.17L100.932 139.688L117.45 123.17L120.917 126.637L100.932 146.553L81.0156 126.637L84.4144 123.17ZM100.932 53.6323L117.45 70.1501L120.917 66.7514L100.932 46.8348L81.0156 66.7514L84.4144 70.1501L100.932 53.6323Z"
      fill="white"
    />
  </g>
  <defs>
    <filter
      id="filter0_d_1658:863"
      x="0"
      y="0"
      width="202"
      height="202"
      filterUnits="userSpaceOnUse"
      color-interpolation-filters="sRGB"
    >
      <feFlood
        flood-opacity="0"
        result="BackgroundImageFix"
      />
      <feColorMatrix
        in="SourceAlpha"
        type="matrix"
        values="0 0 0 0 0 0 0 0 0 0 0 0 0 0 0 0 0 0 127 0"
        result="hardAlpha"
      />
      <feOffset dy="4" />
      <feGaussianBlur stdDeviation="2" />
      <feComposite in2="hardAlpha" operator="out" />
      <feColorMatrix
        type="matrix"
        values="0 0 0 0 0 0 0 0 0 0 0 0 0 0 0 0 0 0 0.25 0"
      />
      <feBlend
        mode="normal"
        in2="BackgroundImageFix"
        result="effect1_dropShadow_1658:863"
      />
      <feBlend
        mode="normal"
        in="SourceGraphic"
        in2="effect1_dropShadow_1658:863"
        result="shape"
      />
    </filter>
  </defs>
</svg>