<?xml version="1.0" standalone="no"?>
<!DOCTYPE svg PUBLIC "-//W3C//DTD SVG 1.1//EN" "http://www.w3.org/Graphics/SVG/1.1/DTD/svg11.dtd" >
<svg xmlns="http://www.w3.org/2000/svg" xmlns:xlink="http://www.w3.org/1999/xlink" version="1.1">
<metadata>
Created by FontForge 20191125 at Thu Mar 24 18:56:43 2016
 By convertio
</metadata>
<defs>
<font id="TitilliumBd-BoldItalic" horiz-adv-x="560" >
  <font-face 
    font-family="Titillium Bd"
    font-weight="700"
    font-style="italic"
    font-stretch="normal"
    units-per-em="1000"
    panose-1="0 0 8 0 0 0 0 0 0 0"
    ascent="750"
    descent="-250"
    x-height="500"
    cap-height="680"
    bbox="-371 -309 1082 1133"
    underline-thickness="30"
    underline-position="-100"
    slope="-13"
    unicode-range="U+001D-F6C3"
  />
<missing-glyph horiz-adv-x="223" 
 />
    <glyph glyph-name=".notdef" horiz-adv-x="223" 
 />
    <glyph glyph-name="space" unicode=" " horiz-adv-x="220" 
 />
    <glyph glyph-name="acute" unicode="&#xb4;" horiz-adv-x="559" 
d="M247 638l223 110l10 -120l-226 -78z" />
    <glyph glyph-name="breve" unicode="&#x2d8;" horiz-adv-x="462" 
d="M333 702q-3 -37 36 -37q40 0 53 37h103q-44 -132 -185 -132q-127 0 -109 132h102z" />
    <glyph glyph-name="caron" unicode="&#x2c7;" horiz-adv-x="791" 
d="M477 575l-82 175h123l29 -66l53 66h129l-167 -175h-85z" />
    <glyph glyph-name="cedilla" unicode="&#xb8;" horiz-adv-x="791" 
d="M376 -229q-41 0 -84 11l20 81q30 -1 46 -1q36 0 42 24q6 20 -31 20h-22l22 99h52l-11 -38h6q110 0 89 -91q-25 -105 -129 -105z" />
    <glyph glyph-name="circumflex" unicode="&#x2c6;" horiz-adv-x="791" 
d="M521 728h80l86 -175h-122l-24 64l-58 -64h-130z" />
    <glyph glyph-name="uniF6C3" unicode="&#xf6c3;" horiz-adv-x="161" 
d="M20 -72h123l-107 -237h-113z" />
    <glyph glyph-name="dieresis" unicode="&#xa8;" horiz-adv-x="514" 
d="M246 736h111l-32 -135h-110zM440 736h111l-32 -135h-110z" />
    <glyph glyph-name="dotaccent" unicode="&#x2d9;" horiz-adv-x="255" 
d="M238 719h116l-32 -137h-116z" />
    <glyph glyph-name="hungarumlaut" unicode="&#x2dd;" horiz-adv-x="689" 
d="M465 628l156 190l89 -67l-164 -188zM272 628l155 189l89 -66l-164 -188z" />
    <glyph glyph-name="grave" unicode="`" horiz-adv-x="518" 
d="M510 634l-37 -79l-203 72l64 110z" />
    <glyph glyph-name="macron" unicode="&#xaf;" horiz-adv-x="462" 
d="M242 736h309l-26 -109h-308z" />
    <glyph glyph-name="ogonek" unicode="&#x2db;" horiz-adv-x="450" 
d="M356 -203q-57 -11 -98 -11q-83 0 -83 77q0 40 42 90q16 19 36 37q17 15 32 25l108 -10q-21 -13 -46 -40q-28 -31 -28 -47q0 -14 13 -14q7 0 37 3z" />
    <glyph glyph-name="ring" unicode="&#x2da;" horiz-adv-x="791" 
d="M348 712q35 31 82 31q48 0 67 -31q17 -30 6 -77q-12 -50 -47 -79t-82 -29t-66 32q-18 30 -6 77t46 76zM377 615q6 -9 19 -9q27 0 36 29q4 12 -4 20q-7 8 -18 8q-28 0 -36 -27q-4 -11 3 -21z" />
    <glyph glyph-name="tilde" unicode="&#x2dc;" horiz-adv-x="446" 
d="M532 628q-67 -64 -116 -64q-26 0 -71 22l-17 8l-15 7q-17 7 -27 7q-27 0 -86 -40l-3 92q67 65 115 65q31 0 76 -21l16 -8q10 -5 15 -7q15 -7 23 -7q24 0 86 39z" />
    <glyph glyph-name="A" unicode="A" horiz-adv-x="551" 
d="M319 680h238l-21 -680h-138l4 118h-198l-53 -118h-138zM256 238h151l14 322h-21z" />
    <glyph glyph-name="Aacute" unicode="&#xc1;" horiz-adv-x="551" 
d="M319 680h238l-21 -680h-138l4 118h-198l-53 -118h-138zM256 238h151l14 322h-21zM391 819l223 110l10 -120l-226 -78z" />
    <glyph glyph-name="Abreve" unicode="&#x102;" horiz-adv-x="551" 
d="M319 680h238l-21 -680h-138l4 118h-198l-53 -118h-138zM256 238h151l14 322h-21zM416 883q-3 -37 36 -37q40 0 53 37h103q-44 -132 -185 -132q-127 0 -109 132h102z" />
    <glyph glyph-name="Acircumflex" unicode="&#xc2;" horiz-adv-x="551" 
d="M319 680h238l-21 -680h-138l4 118h-198l-53 -118h-138zM256 238h151l14 322h-21zM440 909h80l86 -175h-122l-24 64l-58 -64h-130z" />
    <glyph glyph-name="Agrave" unicode="&#xc0;" horiz-adv-x="551" 
d="M319 680h238l-21 -680h-138l4 118h-198l-53 -118h-138zM256 238h151l14 322h-21zM546 815l-37 -79l-203 72l64 110z" />
    <glyph glyph-name="Adieresis" unicode="&#xc4;" horiz-adv-x="551" 
d="M339 923h111l-32 -135h-110zM538 923h111l-33 -135h-109zM319 680h238l-21 -680h-138l4 118h-198l-53 -118h-138zM256 238h151l14 322h-21z" />
    <glyph glyph-name="Amacron" unicode="&#x100;" horiz-adv-x="551" 
d="M313 915h327l-25 -109h-327zM319 680h238l-21 -680h-138l4 118h-198l-53 -118h-138zM256 238h151l14 322h-21z" />
    <glyph glyph-name="Aogonek" unicode="&#x104;" horiz-adv-x="551" 
d="M319 680h238l-21 -675v-5h-8q-22 -16 -42 -39q-24 -28 -24 -43q0 -14 13 -14q7 0 37 3l-13 -110q-57 -11 -98 -11q-83 0 -83 77q0 34 31 76q23 32 59 61h-10l4 118h-198l-53 -118h-138zM256 238h151l14 322h-21z" />
    <glyph glyph-name="Aring" unicode="&#xc5;" horiz-adv-x="551" 
d="M313 666q-4 22 3 51q29 117 160 117q57 0 85 -27q31 -31 17 -90q-8 -30 -22 -50l-20 -667h-138l4 118h-198l-53 -118h-138zM256 238h151l14 322h-21zM439 686q45 0 52 31q4 17 -10 25q-6 3 -14 5q-6 1 -13 1q-44 0 -52 -31q-7 -31 37 -31z" />
    <glyph glyph-name="Atilde" unicode="&#xc3;" horiz-adv-x="551" 
d="M319 680h238l-21 -680h-138l4 118h-198l-53 -118h-138zM256 238h151l14 322h-21zM639 809q-67 -64 -116 -64q-26 0 -71 22l-17 8l-15 7q-17 7 -27 7q-27 0 -86 -40l-3 92q67 65 115 65q31 0 76 -21l16 -8q10 -5 15 -7q15 -7 23 -7q24 0 86 39z" />
    <glyph glyph-name="AE" unicode="&#xc6;" horiz-adv-x="754" 
d="M341 119h-143l-53 -119h-131l308 690h559l-30 -131l-276 2l-38 -159h220l-29 -125h-221l-35 -147h276l-29 -130h-406zM256 247h116l73 313h-52z" />
    <glyph glyph-name="AEacute" unicode="&#x1fc;" horiz-adv-x="754" 
d="M341 119h-143l-53 -119h-131l308 690h559l-30 -131l-276 2l-38 -159h220l-29 -125h-221l-35 -147h276l-29 -130h-406zM256 247h116l73 313h-52zM482 819l223 110l10 -120l-226 -78z" />
    <glyph glyph-name="B" unicode="B" horiz-adv-x="573" 
d="M458 680q178 0 178 -147q0 -65 -30 -110q-26 -39 -82 -73q39 -23 53 -53q12 -24 12 -65q0 -100 -66 -163q-73 -69 -202 -69h-256l157 680h236zM269 285l-39 -167h118q45 0 72 31t27 80q0 56 -65 56h-113zM333 562l-38 -162h103q41 0 69 29q28 30 28 76q0 57 -59 57h-103z
" />
    <glyph glyph-name="C" unicode="C" horiz-adv-x="494" 
d="M473 14q-93 -26 -169 -26q-205 0 -205 197q0 191 78 333q96 174 272 174q82 0 171 -30l-32 -102q-62 12 -144 12q-92 0 -150 -117q-53 -108 -53 -260q0 -87 81 -87q78 0 162 13z" />
    <glyph glyph-name="Cacute" unicode="&#x106;" horiz-adv-x="494" 
d="M473 14q-93 -26 -169 -26q-205 0 -205 197q0 191 78 333q96 174 272 174q82 0 171 -30l-32 -102q-62 12 -144 12q-92 0 -150 -117q-53 -108 -53 -260q0 -87 81 -87q78 0 162 13zM366 819l223 110l10 -120l-226 -78z" />
    <glyph glyph-name="Ccaron" unicode="&#x10c;" horiz-adv-x="494" 
d="M473 14q-93 -26 -169 -26q-205 0 -205 197q0 191 78 333q96 174 272 174q82 0 171 -30l-32 -102q-62 12 -144 12q-92 0 -150 -117q-53 -108 -53 -260q0 -87 81 -87q78 0 162 13zM518 776h-92l-93 151h132l29 -57l53 57h131z" />
    <glyph glyph-name="Ccedilla" unicode="&#xc7;" horiz-adv-x="494" 
d="M473 14q-93 -26 -169 -26h-10l-6 -21h6q110 0 89 -91q-25 -105 -129 -105q-41 0 -84 11l20 81q30 -1 46 -1q36 0 42 24q6 20 -31 20h-22l19 87q-145 27 -145 192q0 191 78 333q96 174 272 174q82 0 171 -30l-32 -102q-62 12 -144 12q-92 0 -150 -117q-53 -108 -53 -260
q0 -87 81 -87q78 0 162 13z" />
    <glyph glyph-name="Ccircumflex" unicode="&#x108;" horiz-adv-x="494" 
d="M473 14q-93 -26 -169 -26q-205 0 -205 197q0 191 78 333q96 174 272 174q82 0 171 -30l-32 -102q-62 12 -144 12q-92 0 -150 -117q-53 -108 -53 -260q0 -87 81 -87q78 0 162 13zM443 909h80l86 -175h-122l-24 64l-58 -64h-130z" />
    <glyph glyph-name="Cdotaccent" unicode="&#x10a;" horiz-adv-x="494" 
d="M473 14q-93 -26 -169 -26q-205 0 -205 197q0 191 78 333q96 174 272 174q82 0 171 -30l-32 -102q-62 12 -144 12q-92 0 -150 -117q-53 -108 -53 -260q0 -87 81 -87q78 0 162 13zM437 909h118l-34 -138h-116z" />
    <glyph glyph-name="D" unicode="D" horiz-adv-x="605" 
d="M65 0l157 680h214q224 0 224 -207q0 -189 -84 -321q-97 -152 -267 -152h-244zM408 560h-76l-101 -440h90q97 0 153 130q44 104 44 223q0 87 -110 87z" />
    <glyph glyph-name="Dcaron" unicode="&#x10e;" horiz-adv-x="605" 
d="M309 0q170 0 267 152q84 132 84 321q0 207 -224 207h-214l-157 -680h244zM474 250q-56 -130 -153 -130h-90l101 440h76q110 0 110 -87q0 -119 -44 -223zM487 776h-92l-93 151h132l29 -57l53 57h131z" />
    <glyph glyph-name="Dcroat" unicode="&#x110;" horiz-adv-x="613" 
d="M73 0l63 275h-54l29 136h57l62 269h214q224 0 224 -207q0 -189 -84 -321q-97 -152 -267 -152h-244zM416 560h-76l-34 -149h108l-30 -136h-110l-35 -155h90q97 0 153 130q44 104 44 223q0 87 -110 87z" />
    <glyph glyph-name="E" unicode="E" horiz-adv-x="497" 
d="M221 680h399l-28 -120h-260l-37 -160h206l-28 -120h-205l-37 -160h261l-27 -120h-400z" />
    <glyph glyph-name="Eacute" unicode="&#xc9;" horiz-adv-x="497" 
d="M221 680h399l-28 -120h-260l-37 -160h206l-28 -120h-205l-37 -160h261l-27 -120h-400zM379 819l223 110l10 -120l-226 -78z" />
    <glyph glyph-name="Ebreve" unicode="&#x114;" horiz-adv-x="497" 
d="M221 680h399l-28 -120h-260l-37 -160h206l-28 -120h-205l-37 -160h261l-27 -120h-400zM406 883q-3 -37 36 -37q40 0 53 37h103q-44 -132 -185 -132q-127 0 -109 132h102z" />
    <glyph glyph-name="Ecaron" unicode="&#x11a;" horiz-adv-x="497" 
d="M479 794h-92l-93 151h132l29 -57l53 57h131zM221 680h399l-28 -120h-260l-37 -160h206l-28 -120h-205l-37 -160h261l-27 -120h-400z" />
    <glyph glyph-name="Ecircumflex" unicode="&#xca;" horiz-adv-x="497" 
d="M221 680h399l-28 -120h-260l-37 -160h206l-28 -120h-205l-37 -160h261l-27 -120h-400zM456 909h80l86 -175h-122l-24 64l-58 -64h-130z" />
    <glyph glyph-name="Edieresis" unicode="&#xcb;" horiz-adv-x="497" 
d="M318 923h111l-32 -135h-110zM517 923h111l-33 -135h-109zM221 680h399l-28 -120h-260l-37 -160h206l-28 -120h-205l-37 -160h261l-27 -120h-400z" />
    <glyph glyph-name="Edotaccent" unicode="&#x116;" horiz-adv-x="497" 
d="M400 909h118l-34 -138h-116zM221 680h399l-28 -120h-260l-37 -160h206l-28 -120h-205l-37 -160h261l-27 -120h-400z" />
    <glyph glyph-name="Egrave" unicode="&#xc8;" horiz-adv-x="497" 
d="M221 680h399l-28 -120h-260l-37 -160h206l-28 -120h-205l-37 -160h261l-27 -120h-400zM536 815l-37 -79l-203 72l64 110z" />
    <glyph glyph-name="Emacron" unicode="&#x112;" horiz-adv-x="497" 
d="M302 915h327l-25 -109h-327zM221 680h399l-28 -120h-260l-37 -160h206l-28 -120h-205l-37 -160h261l-27 -120h-400z" />
    <glyph glyph-name="Eogonek" unicode="&#x118;" horiz-adv-x="497" 
d="M221 680h399l-28 -120h-260l-37 -160h206l-28 -120h-205l-37 -160h261l-27 -120h-12q-22 -16 -42 -39q-24 -28 -24 -43q0 -14 13 -14q7 0 37 3l-13 -110q-57 -11 -98 -11q-83 0 -83 77q0 34 31 76q23 32 59 61h-268z" />
    <glyph glyph-name="F" unicode="F" horiz-adv-x="477" 
d="M222 680h392l-28 -120h-254l-47 -205h210l-29 -120h-209l-54 -235h-138z" />
    <glyph glyph-name="G" unicode="G" horiz-adv-x="568" 
d="M405 378h201l-85 -364q-68 -26 -194 -26q-225 0 -225 214q0 206 88 340q98 150 275 150q110 0 208 -40l-32 -100q-99 20 -187 20q-104 0 -162 -128q-48 -105 -48 -243q0 -93 100 -93q34 0 63 5l35 151h-64z" />
    <glyph glyph-name="Gbreve" unicode="&#x11e;" horiz-adv-x="568" 
d="M405 378h201l-85 -364q-68 -26 -194 -26q-225 0 -225 214q0 206 88 340q98 150 275 150q110 0 208 -40l-32 -100q-99 20 -187 20q-104 0 -162 -128q-48 -105 -48 -243q0 -93 100 -93q34 0 63 5l35 151h-64zM420 883q-3 -37 36 -37q40 0 53 37h103q-44 -132 -185 -132
q-127 0 -109 132h102z" />
    <glyph glyph-name="Gcircumflex" unicode="&#x11c;" horiz-adv-x="568" 
d="M405 378h201l-85 -364q-68 -26 -194 -26q-225 0 -225 214q0 206 88 340q98 150 275 150q110 0 208 -40l-32 -100q-99 20 -187 20q-104 0 -162 -128q-48 -105 -48 -243q0 -93 100 -93q34 0 63 5l35 151h-64zM469 909h80l86 -175h-122l-24 64l-58 -64h-130z" />
    <glyph glyph-name="uni0122" unicode="&#x122;" horiz-adv-x="568" 
d="M405 378h201l-85 -364q-68 -26 -194 -26q-225 0 -225 214q0 206 88 340q98 150 275 150q110 0 208 -40l-32 -100q-99 20 -187 20q-104 0 -162 -128q-48 -105 -48 -243q0 -93 100 -93q34 0 63 5l35 151h-64zM136 -309h113l107 237h-123z" />
    <glyph glyph-name="Gdotaccent" unicode="&#x120;" horiz-adv-x="568" 
d="M451 869h126l-32 -137h-126zM405 378h201l-85 -364q-68 -26 -194 -26q-225 0 -225 214q0 206 88 340q98 150 275 150q110 0 208 -40l-32 -100q-99 20 -187 20q-104 0 -162 -128q-48 -105 -48 -243q0 -93 100 -93q34 0 63 5l35 151h-64z" />
    <glyph glyph-name="H" unicode="H" horiz-adv-x="620" 
d="M483 288h-214l-66 -288h-138l157 680h138l-63 -272h214l63 272h138l-157 -680h-138z" />
    <glyph glyph-name="Hbar" unicode="&#x126;" horiz-adv-x="628" 
d="M115 484l28 116h64l19 80h132l-19 -80h226l19 80h132l-19 -80h64l-30 -119h-61l-111 -481h-132l64 278h-226l-64 -278h-132l111 481h-65v3zM521 407l17 74h-226l-17 -74h226z" />
    <glyph glyph-name="Hcircumflex" unicode="&#x124;" horiz-adv-x="620" 
d="M483 288h-214l-66 -288h-138l157 680h138l-63 -272h214l63 272h138l-157 -680h-138zM501 909h80l86 -175h-122l-24 64l-58 -64h-130z" />
    <glyph glyph-name="I" unicode="I" horiz-adv-x="268" 
d="M222 680h138l-157 -680h-138z" />
    <glyph glyph-name="Iacute" unicode="&#xcd;" horiz-adv-x="268" 
d="M222 680h138l-157 -680h-138zM248 819l223 110l10 -120l-226 -78z" />
    <glyph glyph-name="Ibreve" unicode="&#x12c;" horiz-adv-x="268" 
d="M222 680h138l-157 -680h-138zM276 883q-3 -37 36 -37q40 0 53 37h103q-44 -132 -185 -132q-127 0 -109 132h102z" />
    <glyph glyph-name="Icircumflex" unicode="&#xce;" horiz-adv-x="268" 
d="M222 680h138l-157 -680h-138zM325 909h80l86 -175h-122l-24 64l-58 -64h-130z" />
    <glyph glyph-name="Idieresis" unicode="&#xcf;" horiz-adv-x="268" 
d="M189 935h111l-32 -135h-110zM388 935h111l-33 -135h-109zM222 680h138l-157 -680h-138z" />
    <glyph glyph-name="Idotaccent" unicode="&#x130;" horiz-adv-x="268" 
d="M283 909h118l-34 -138h-116zM222 680h138l-157 -680h-138z" />
    <glyph glyph-name="Igrave" unicode="&#xcc;" horiz-adv-x="268" 
d="M222 680h138l-157 -680h-138zM405 815l-37 -79l-203 72l64 110z" />
    <glyph glyph-name="Imacron" unicode="&#x12a;" horiz-adv-x="268" 
d="M175 926h327l-25 -109h-327zM222 680h138l-157 -680h-138z" />
    <glyph glyph-name="Iogonek" unicode="&#x12e;" horiz-adv-x="268" 
d="M222 680h138l-157 -680q-26 -11 -51 -37q-27 -28 -27 -45q0 -14 13 -14q7 0 37 3l-13 -110q-57 -11 -98 -11q-83 0 -83 77q0 34 31 76q23 32 59 61h-6z" />
    <glyph glyph-name="Itilde" unicode="&#x128;" horiz-adv-x="268" 
d="M222 680h138l-157 -680h-138zM493 809q-67 -64 -116 -64q-26 0 -71 22l-17 8l-15 7q-17 7 -27 7q-27 0 -86 -40l-3 92q67 65 115 65q31 0 76 -21l16 -8q10 -5 15 -7q15 -7 23 -7q24 0 86 39z" />
    <glyph glyph-name="J" unicode="J" horiz-adv-x="283" 
d="M252 135q-31 -136 -73 -170q-41 -34 -173 -34l23 120q42 2 56 14q16 14 29 70l126 545h138z" />
    <glyph glyph-name="Jcircumflex" unicode="&#x134;" horiz-adv-x="283" 
d="M252 135q-31 -136 -73 -170q-41 -34 -173 -34l23 120q42 2 56 14q16 14 29 70l126 545h138zM310 909h80l86 -175h-122l-24 64l-58 -64h-130z" />
    <glyph glyph-name="K" unicode="K" horiz-adv-x="540" 
d="M340 273l-76 -7l-61 -266h-138l157 680h138l-68 -294l64 8l176 286h151l-217 -341l63 -339h-145z" />
    <glyph glyph-name="uni0136" unicode="&#x136;" horiz-adv-x="540" 
d="M118 -309h113l107 237h-123zM340 273l-76 -7l-61 -266h-138l157 680h138l-68 -294l64 8l176 286h151l-217 -341l63 -339h-145z" />
    <glyph glyph-name="L" unicode="L" horiz-adv-x="422" 
d="M65 0l157 680h138l-129 -560h215l-27 -120h-354z" />
    <glyph glyph-name="Lacute" unicode="&#x139;" horiz-adv-x="422" 
d="M65 0l157 680h138l-129 -560h215l-27 -120h-354zM356 819l223 110l10 -120l-226 -78z" />
    <glyph glyph-name="Lcaron" unicode="&#x13d;" horiz-adv-x="464" 
d="M530 429h-123l61 251h122zM65 0l157 680h138l-129 -560h215l-27 -120h-354z" />
    <glyph glyph-name="uni013B" unicode="&#x13b;" horiz-adv-x="422" 
d="M68 -309h113l107 237h-123zM65 0l157 680h138l-129 -560h215l-27 -120h-354z" />
    <glyph glyph-name="Lslash" unicode="&#x141;" horiz-adv-x="423" 
d="M67 0l48 208l-28 -17l-41 93l101 62l77 334h138l-54 -234l96 60l41 -92l-169 -105l-43 -189h215l-27 -120h-354z" />
    <glyph glyph-name="M" unicode="M" horiz-adv-x="789" 
d="M222 680h214l1 -495l226 495h218l-157 -680h-138l130 560h-6l-243 -530h-130l-1 530h-5l-128 -560h-138z" />
    <glyph glyph-name="N" unicode="N" horiz-adv-x="651" 
d="M222 680h219l36 -533h12l121 533h133l-157 -680h-208l-44 543h-12l-127 -543h-130z" />
    <glyph glyph-name="Nacute" unicode="&#x143;" horiz-adv-x="651" 
d="M222 680h219l36 -533h12l121 533h133l-157 -680h-208l-44 543h-12l-127 -543h-130zM440 819l223 110l10 -120l-226 -78z" />
    <glyph glyph-name="Ncaron" unicode="&#x147;" horiz-adv-x="651" 
d="M530 775h-92l-93 151h132l29 -57l53 57h131zM222 680h219l36 -533h12l121 533h133l-157 -680h-208l-44 543h-12l-127 -543h-130z" />
    <glyph glyph-name="uni0145" unicode="&#x145;" horiz-adv-x="651" 
d="M183 -309h113l107 237h-123zM222 680h219l36 -533h12l121 533h133l-157 -680h-208l-44 543h-12l-127 -543h-130z" />
    <glyph glyph-name="Ntilde" unicode="&#xd1;" horiz-adv-x="651" 
d="M222 680h219l36 -533h12l121 533h133l-157 -680h-208l-44 543h-12l-127 -543h-130zM684 809q-67 -64 -116 -64q-26 0 -71 22l-17 8l-15 7q-17 7 -27 7q-27 0 -86 -40l-3 92q67 65 115 65q31 0 76 -21l16 -8q10 -5 15 -7q15 -7 23 -7q24 0 86 39z" />
    <glyph glyph-name="O" unicode="O" horiz-adv-x="615" 
d="M423 142q47 47 77 146q27 91 27 182q0 55 -21 78q-21 24 -74 24q-51 0 -81 -30q-50 -49 -81 -155q-27 -93 -27 -177q0 -55 21 -78q22 -24 75 -24q50 0 84 34zM101 196q0 131 38 242q42 121 118 187q78 67 191 67q221 0 221 -208q0 -137 -39 -250q-43 -124 -125 -188
q-75 -58 -190 -58q-214 0 -214 208z" />
    <glyph glyph-name="Oacute" unicode="&#xd3;" horiz-adv-x="615" 
d="M423 142q47 47 77 146q27 91 27 182q0 55 -21 78q-21 24 -74 24q-51 0 -81 -30q-50 -49 -81 -155q-27 -93 -27 -177q0 -55 21 -78q22 -24 75 -24q50 0 84 34zM101 196q0 131 38 242q42 121 118 187q78 67 191 67q221 0 221 -208q0 -137 -39 -250q-43 -124 -125 -188
q-75 -58 -190 -58q-214 0 -214 208zM421 819l223 110l10 -120l-226 -78z" />
    <glyph glyph-name="Obreve" unicode="&#x14e;" horiz-adv-x="615" 
d="M423 142q47 47 77 146q27 91 27 182q0 55 -21 78q-21 24 -74 24q-51 0 -81 -30q-50 -49 -81 -155q-27 -93 -27 -177q0 -55 21 -78q22 -24 75 -24q50 0 84 34zM101 196q0 131 38 242q42 121 118 187q78 67 191 67q221 0 221 -208q0 -137 -39 -250q-43 -124 -125 -188
q-75 -58 -190 -58q-214 0 -214 208zM449 883q-3 -37 36 -37q40 0 53 37h103q-44 -132 -185 -132q-127 0 -109 132h102z" />
    <glyph glyph-name="Ocircumflex" unicode="&#xd4;" horiz-adv-x="615" 
d="M423 142q47 47 77 146q27 91 27 182q0 55 -21 78q-21 24 -74 24q-51 0 -81 -30q-50 -49 -81 -155q-27 -93 -27 -177q0 -55 21 -78q22 -24 75 -24q50 0 84 34zM101 196q0 131 38 242q42 121 118 187q78 67 191 67q221 0 221 -208q0 -137 -39 -250q-43 -124 -125 -188
q-75 -58 -190 -58q-214 0 -214 208zM498 909h80l86 -175h-122l-24 64l-58 -64h-130z" />
    <glyph glyph-name="Odieresis" unicode="&#xd6;" horiz-adv-x="615" 
d="M352 916h121l-32 -135h-120zM556 916h121l-32 -135h-120zM423 142q47 47 77 146q27 91 27 182q0 55 -21 78q-21 24 -74 24q-51 0 -81 -30q-50 -49 -81 -155q-27 -93 -27 -177q0 -55 21 -78q22 -24 75 -24q50 0 84 34zM101 196q0 131 38 242q42 121 118 187q78 67 191 67
q221 0 221 -208q0 -137 -39 -250q-43 -124 -125 -188q-75 -58 -190 -58q-214 0 -214 208z" />
    <glyph glyph-name="Ograve" unicode="&#xd2;" horiz-adv-x="615" 
d="M423 142q47 47 77 146q27 91 27 182q0 55 -21 78q-21 24 -74 24q-51 0 -81 -30q-50 -49 -81 -155q-27 -93 -27 -177q0 -55 21 -78q22 -24 75 -24q50 0 84 34zM101 196q0 131 38 242q42 121 118 187q78 67 191 67q221 0 221 -208q0 -137 -39 -250q-43 -124 -125 -188
q-75 -58 -190 -58q-214 0 -214 208zM578 815l-37 -79l-203 72l64 110z" />
    <glyph glyph-name="Ohungarumlaut" unicode="&#x150;" horiz-adv-x="615" 
d="M423 142q47 47 77 146q27 91 27 182q0 55 -21 78q-21 24 -74 24q-51 0 -81 -30q-50 -49 -81 -155q-27 -93 -27 -177q0 -55 21 -78q22 -24 75 -24q50 0 84 34zM101 196q0 131 38 242q42 121 118 187q78 67 191 67q221 0 221 -208q0 -137 -39 -250q-43 -124 -125 -188
q-75 -58 -190 -58q-214 0 -214 208zM482 809l156 190l89 -67l-164 -188zM289 809l155 189l89 -66l-164 -188z" />
    <glyph glyph-name="Omacron" unicode="&#x14c;" horiz-adv-x="615" 
d="M423 142q47 47 77 146q27 91 27 182q0 55 -21 78q-21 24 -74 24q-51 0 -81 -30q-50 -49 -81 -155q-27 -93 -27 -177q0 -55 21 -78q22 -24 75 -24q50 0 84 34zM101 196q0 131 38 242q42 121 118 187q78 67 191 67q221 0 221 -208q0 -137 -39 -250q-43 -124 -125 -188
q-75 -58 -190 -58q-214 0 -214 208zM342 915h327l-25 -109h-327z" />
    <glyph glyph-name="Oslash" unicode="&#xd8;" horiz-adv-x="615" 
d="M53 -81l91 134q-43 52 -43 143q0 131 38 242q42 121 118 187q78 67 191 67q69 0 115 -20l91 133l74 -31l-102 -150q43 -53 43 -140q0 -137 -39 -250q-43 -124 -125 -188q-75 -58 -190 -58q-60 0 -109 19l-87 -128zM423 142q47 47 77 146q27 91 27 182v8l-104 -153
l-141 -207q20 -10 57 -10q50 0 84 34zM353 363l135 199q-20 10 -56 10q-51 0 -81 -30q-50 -49 -81 -155q-27 -93 -27 -177v-10z" />
    <glyph glyph-name="Oslashacute" unicode="&#x1fe;" horiz-adv-x="615" 
d="M53 -81l91 134q-43 52 -43 143q0 131 38 242q42 121 118 187q78 67 191 67q69 0 115 -20l91 133l74 -31l-102 -150q43 -53 43 -140q0 -137 -39 -250q-43 -124 -125 -188q-75 -58 -190 -58q-60 0 -109 19l-87 -128zM423 142q47 47 77 146q27 91 27 182v8l-104 -153
l-141 -207q20 -10 57 -10q50 0 84 34zM353 363l135 199q-20 10 -56 10q-51 0 -81 -30q-50 -49 -81 -155q-27 -93 -27 -177v-10zM421 819l223 110l10 -120l-226 -78z" />
    <glyph glyph-name="Otilde" unicode="&#xd5;" horiz-adv-x="615" 
d="M423 142q47 47 77 146q27 91 27 182q0 55 -21 78q-21 24 -74 24q-51 0 -81 -30q-50 -49 -81 -155q-27 -93 -27 -177q0 -55 21 -78q22 -24 75 -24q50 0 84 34zM101 196q0 131 38 242q42 121 118 187q78 67 191 67q221 0 221 -208q0 -137 -39 -250q-43 -124 -125 -188
q-75 -58 -190 -58q-214 0 -214 208zM666 809q-67 -64 -116 -64q-26 0 -71 22l-17 8l-15 7q-17 7 -27 7q-27 0 -86 -40l-3 92q67 65 115 65q31 0 76 -21l16 -8q10 -5 15 -7q15 -7 23 -7q24 0 86 39z" />
    <glyph glyph-name="OE" unicode="&#x152;" horiz-adv-x="831" 
d="M395 0q-74 -12 -116 -12q-173 0 -184 163q-5 80 22 194q84 357 330 357q23 0 54 -4q25 -3 54 -8h404l-30 -131h-276l-39 -157h220l-29 -125l-219 2l-35 -148h275l-30 -131h-401zM421 126l105 438q-7 1 -17 2l-24 2q-31 2 -52 2q-68 0 -108 -49q-44 -52 -73 -176
q-20 -83 -20 -130q0 -50 23 -73q22 -22 73 -22q27 0 93 6z" />
    <glyph glyph-name="P" unicode="P" horiz-adv-x="547" 
d="M248 196l-45 -196h-138l157 680h196q111 0 161 -46q49 -45 49 -146q0 -143 -80 -219q-77 -73 -215 -73h-85zM351 316q63 0 99 44q36 45 36 126q0 74 -78 74h-76l-56 -244h75z" />
    <glyph glyph-name="Q" unicode="Q" horiz-adv-x="615" 
d="M101 196q0 131 38 242q42 121 118 187q78 67 191 67q221 0 221 -208q0 -137 -39 -250q-43 -124 -125 -188q-22 -16 -34 -22l48 -135l-131 -43l-43 144q-20 -2 -30 -2q-214 0 -214 208zM423 142q47 47 77 146q27 91 27 182q0 55 -21 78q-21 24 -74 24q-51 0 -81 -30
q-50 -49 -81 -155q-27 -93 -27 -177q0 -55 21 -78q22 -24 75 -24q50 0 84 34z" />
    <glyph glyph-name="R" unicode="R" horiz-adv-x="559" 
d="M348 216h-95l-50 -216h-138l157 680h196q108 0 158 -45q52 -46 52 -149q0 -93 -45 -162q-41 -63 -107 -89l55 -235h-138zM469 542q-17 20 -59 20h-77l-53 -228h89q54 0 87 45q30 41 30 101q0 44 -17 62z" />
    <glyph glyph-name="Racute" unicode="&#x154;" horiz-adv-x="559" 
d="M348 216h-95l-50 -216h-138l157 680h196q108 0 158 -45q52 -46 52 -149q0 -93 -45 -162q-41 -63 -107 -89l55 -235h-138zM469 542q-17 20 -59 20h-77l-53 -228h89q54 0 87 45q30 41 30 101q0 44 -17 62zM412 819l223 110l10 -120l-226 -78z" />
    <glyph glyph-name="Rcaron" unicode="&#x158;" horiz-adv-x="559" 
d="M467 776h-92l-93 151h132l29 -57l53 57h131zM393 0h138l-55 235q66 26 107 89q45 69 45 162q0 103 -52 149q-50 45 -158 45h-196l-157 -680h138l50 216h95zM456 379q-33 -45 -87 -45h-89l53 228h77q42 0 59 -20q17 -18 17 -62q0 -60 -30 -101z" />
    <glyph glyph-name="uni0156" unicode="&#x156;" horiz-adv-x="559" 
d="M229 -72h123l-107 -237h-113zM348 216h-95l-50 -216h-138l157 680h196q108 0 158 -45q52 -46 52 -149q0 -93 -45 -162q-41 -63 -107 -89l55 -235h-138zM469 542q-17 20 -59 20h-77l-53 -228h89q54 0 87 45q30 41 30 101q0 44 -17 62z" />
    <glyph glyph-name="S" unicode="S" horiz-adv-x="495" 
d="M561 556q-110 18 -180 18q-44 0 -70 -25q-25 -24 -25 -64q0 -28 16 -43q16 -16 77 -43q83 -37 110 -73q26 -35 26 -103q0 -113 -71 -175q-68 -60 -186 -60q-106 0 -208 41l23 99q113 -20 183 -20q119 0 119 99q0 29 -17 44q-18 16 -84 46q-70 32 -98 68q-30 38 -30 104
q0 97 62 159q64 64 169 64q109 0 209 -38z" />
    <glyph glyph-name="Sacute" unicode="&#x15a;" horiz-adv-x="495" 
d="M561 556q-110 18 -180 18q-44 0 -70 -25q-25 -24 -25 -64q0 -28 16 -43q16 -16 77 -43q83 -37 110 -73q26 -35 26 -103q0 -113 -71 -175q-68 -60 -186 -60q-106 0 -208 41l23 99q113 -20 183 -20q119 0 119 99q0 29 -17 44q-18 16 -84 46q-70 32 -98 68q-30 38 -30 104
q0 97 62 159q64 64 169 64q109 0 209 -38zM366 819l223 110l10 -120l-226 -78z" />
    <glyph glyph-name="Scaron" unicode="&#x160;" horiz-adv-x="495" 
d="M477 776h-92l-93 151h132l29 -57l53 57h131zM561 556q-110 18 -180 18q-44 0 -70 -25q-25 -24 -25 -64q0 -28 16 -43q16 -16 77 -43q83 -37 110 -73q26 -35 26 -103q0 -113 -71 -175q-68 -60 -186 -60q-106 0 -208 41l23 99q113 -20 183 -20q119 0 119 99q0 29 -17 44
q-18 16 -84 46q-70 32 -98 68q-30 38 -30 104q0 97 62 159q64 64 169 64q109 0 209 -38z" />
    <glyph glyph-name="Scedilla" unicode="&#x15e;" horiz-adv-x="495" 
d="M561 556q-110 18 -180 18q-44 0 -70 -25q-25 -24 -25 -64q0 -28 16 -43q16 -16 77 -43q83 -37 110 -73q26 -35 26 -103q0 -111 -69 -173q-65 -60 -180 -62l-6 -21h6q110 0 89 -91q-25 -105 -129 -105q-41 0 -84 11l20 81q30 -1 46 -1q36 0 42 24q6 20 -31 20h-22l18 84
q-89 9 -165 39l23 99q113 -20 183 -20q119 0 119 99q0 29 -17 44q-18 16 -84 46q-70 32 -98 68q-30 38 -30 104q0 97 62 159q64 64 169 64q109 0 209 -38z" />
    <glyph glyph-name="Scircumflex" unicode="&#x15c;" horiz-adv-x="495" 
d="M561 556q-110 18 -180 18q-44 0 -70 -25q-25 -24 -25 -64q0 -28 16 -43q16 -16 77 -43q83 -37 110 -73q26 -35 26 -103q0 -113 -71 -175q-68 -60 -186 -60q-106 0 -208 41l23 99q113 -20 183 -20q119 0 119 99q0 29 -17 44q-18 16 -84 46q-70 32 -98 68q-30 38 -30 104
q0 97 62 159q64 64 169 64q109 0 209 -38zM442 909h80l86 -175h-122l-24 64l-58 -64h-130z" />
    <glyph glyph-name="uni0218" unicode="&#x218;" horiz-adv-x="495" 
d="M83 -309h113l107 237h-123zM561 556q-110 18 -180 18q-44 0 -70 -25q-25 -24 -25 -64q0 -28 16 -43q16 -16 77 -43q83 -37 110 -73q26 -35 26 -103q0 -113 -71 -175q-68 -60 -186 -60q-106 0 -208 41l23 99q113 -20 183 -20q119 0 119 99q0 29 -17 44q-18 16 -84 46
q-70 32 -98 68q-30 38 -30 104q0 97 62 159q64 64 169 64q109 0 209 -38z" />
    <glyph glyph-name="T" unicode="T" horiz-adv-x="456" 
d="M166 680h438l-28 -120h-151l-129 -560h-138l129 560h-149z" />
    <glyph glyph-name="Tbar" unicode="&#x166;" horiz-adv-x="461" 
d="M169 680h438l-28 -120h-151l-45 -193h128l-29 -119h-126l-57 -248h-138l57 248h-121l27 119h121l45 193h-149z" />
    <glyph glyph-name="Tcaron" unicode="&#x164;" horiz-adv-x="456" 
d="M435 776h-92l-93 151h132l29 -57l53 57h131zM166 680h438l-28 -120h-151l-129 -560h-138l129 560h-149z" />
    <glyph glyph-name="uni021A" unicode="&#x21a;" horiz-adv-x="456" 
d="M58 -309h113l107 237h-123zM166 680h438l-28 -120h-151l-129 -560h-138l129 560h-149z" />
    <glyph glyph-name="U" unicode="U" horiz-adv-x="595" 
d="M249 231q-9 -38 -9 -66q0 -57 82 -57q62 0 90 30q24 25 39 93l104 449h138l-104 -449q-29 -128 -94 -185q-66 -58 -185 -58q-97 0 -150 37q-57 40 -57 117q0 52 13 111l99 427h138z" />
    <glyph glyph-name="Uacute" unicode="&#xda;" horiz-adv-x="595" 
d="M249 231q-9 -38 -9 -66q0 -57 82 -57q62 0 90 30q24 25 39 93l104 449h138l-104 -449q-29 -128 -94 -185q-66 -58 -185 -58q-97 0 -150 37q-57 40 -57 117q0 52 13 111l99 427h138zM411 819l223 110l10 -120l-226 -78z" />
    <glyph glyph-name="Ubreve" unicode="&#x16c;" horiz-adv-x="595" 
d="M249 231q-9 -38 -9 -66q0 -57 82 -57q62 0 90 30q24 25 39 93l104 449h138l-104 -449q-29 -128 -94 -185q-66 -58 -185 -58q-97 0 -150 37q-57 40 -57 117q0 52 13 111l99 427h138zM439 883q-3 -37 36 -37q40 0 53 37h103q-44 -132 -185 -132q-127 0 -109 132h102z" />
    <glyph glyph-name="Ucircumflex" unicode="&#xdb;" horiz-adv-x="595" 
d="M249 231q-9 -38 -9 -66q0 -57 82 -57q62 0 90 30q24 25 39 93l104 449h138l-104 -449q-29 -128 -94 -185q-66 -58 -185 -58q-97 0 -150 37q-57 40 -57 117q0 52 13 111l99 427h138zM488 909h80l86 -175h-122l-24 64l-58 -64h-130z" />
    <glyph glyph-name="Udieresis" unicode="&#xdc;" horiz-adv-x="595" 
d="M336 916h121l-32 -135h-120zM540 916h121l-32 -135h-120zM249 231q-9 -38 -9 -66q0 -57 82 -57q62 0 90 30q24 25 39 93l104 449h138l-104 -449q-29 -128 -94 -185q-66 -58 -185 -58q-97 0 -150 37q-57 40 -57 117q0 52 13 111l99 427h138z" />
    <glyph glyph-name="Ugrave" unicode="&#xd9;" horiz-adv-x="595" 
d="M249 231q-9 -38 -9 -66q0 -57 82 -57q62 0 90 30q24 25 39 93l104 449h138l-104 -449q-29 -128 -94 -185q-66 -58 -185 -58q-97 0 -150 37q-57 40 -57 117q0 52 13 111l99 427h138zM568 815l-37 -79l-203 72l64 110z" />
    <glyph glyph-name="Uhungarumlaut" unicode="&#x170;" horiz-adv-x="595" 
d="M249 231q-9 -38 -9 -66q0 -57 82 -57q62 0 90 30q24 25 39 93l104 449h138l-104 -449q-29 -128 -94 -185q-66 -58 -185 -58q-97 0 -150 37q-57 40 -57 117q0 52 13 111l99 427h138zM472 809l156 190l89 -67l-164 -188zM279 809l155 189l89 -66l-164 -188z" />
    <glyph glyph-name="Umacron" unicode="&#x16a;" horiz-adv-x="595" 
d="M249 231q-9 -38 -9 -66q0 -57 82 -57q62 0 90 30q24 25 39 93l104 449h138l-104 -449q-29 -128 -94 -185q-66 -58 -185 -58q-97 0 -150 37q-57 40 -57 117q0 52 13 111l99 427h138zM330 915h327l-25 -109h-327z" />
    <glyph glyph-name="Uogonek" unicode="&#x172;" horiz-adv-x="598" 
d="M251 231q-9 -38 -9 -66q0 -57 82 -57q62 0 90 30q24 25 39 93l104 449h138l-104 -449q-25 -109 -75 -166q-52 -58 -139 -72q-21 -17 -38 -38q-19 -24 -19 -37q0 -14 13 -14q7 0 37 3l-13 -110q-57 -11 -98 -11q-83 0 -83 77q0 32 27 71q21 30 53 58q-151 21 -151 150
q0 52 13 111l99 427h138z" />
    <glyph glyph-name="Uring" unicode="&#x16e;" horiz-adv-x="595" 
d="M561 747q-42 -29 -102 -29q-58 0 -86 29q-30 31 -16 88q29 117 160 117q57 0 85 -27q31 -31 17 -90q-14 -57 -58 -88zM480 804q45 0 52 31q4 17 -10 25q-6 3 -14 5q-6 1 -13 1q-44 0 -52 -31q-7 -31 37 -31zM249 231q-9 -38 -9 -66q0 -57 82 -57q62 0 90 30q24 25 39 93
l104 449h138l-104 -449q-29 -128 -94 -185q-66 -58 -185 -58q-97 0 -150 37q-57 40 -57 117q0 52 13 111l99 427h138z" />
    <glyph glyph-name="Utilde" unicode="&#x168;" horiz-adv-x="595" 
d="M249 231q-9 -38 -9 -66q0 -57 82 -57q62 0 90 30q24 25 39 93l104 449h138l-104 -449q-29 -128 -94 -185q-66 -58 -185 -58q-97 0 -150 37q-57 40 -57 117q0 52 13 111l99 427h138zM655 809q-67 -64 -116 -64q-26 0 -71 22l-17 8l-15 7q-17 7 -27 7q-27 0 -86 -40l-3 92
q67 65 115 65q31 0 76 -21l16 -8q10 -5 15 -7q15 -7 23 -7q24 0 86 39z" />
    <glyph glyph-name="V" unicode="V" horiz-adv-x="555" 
d="M699 680l-308 -680h-235l14 680h138l-24 -560h33l244 560h138z" />
    <glyph glyph-name="W" unicode="W" horiz-adv-x="865" 
d="M312 680l-42 -553h14l226 543h152l-33 -543h14l224 553h138l-291 -680h-200l33 494l-198 -494h-206l31 680h138z" />
    <glyph glyph-name="Wacute" unicode="&#x1e82;" horiz-adv-x="865" 
d="M312 680l-42 -553h14l226 543h152l-33 -543h14l224 553h138l-291 -680h-200l33 494l-198 -494h-206l31 680h138zM547 819l223 110l10 -120l-226 -78z" />
    <glyph glyph-name="Wcircumflex" unicode="&#x174;" horiz-adv-x="865" 
d="M312 680l-42 -553h14l226 543h152l-33 -543h14l224 553h138l-291 -680h-200l33 494l-198 -494h-206l31 680h138zM624 909h80l86 -175h-122l-24 64l-58 -64h-130z" />
    <glyph glyph-name="Wdieresis" unicode="&#x1e84;" horiz-adv-x="865" 
d="M480 923h111l-32 -135h-110zM679 923h111l-33 -135h-109zM312 680l-42 -553h14l226 543h152l-33 -543h14l224 553h138l-291 -680h-200l33 494l-198 -494h-206l31 680h138z" />
    <glyph glyph-name="Wgrave" unicode="&#x1e80;" horiz-adv-x="865" 
d="M312 680l-42 -553h14l226 543h152l-33 -543h14l224 553h138l-291 -680h-200l33 494l-198 -494h-206l31 680h138zM704 815l-37 -79l-203 72l64 110z" />
    <glyph glyph-name="X" unicode="X" horiz-adv-x="520" 
d="M362 441l164 239h145l-250 -338l94 -342h-145l-55 243l-169 -243h-145l256 343l-90 337h146z" />
    <glyph glyph-name="Y" unicode="Y" horiz-adv-x="504" 
d="M381 288l-68 -288h-128l68 294l-95 386h140l48 -265l169 265h146z" />
    <glyph glyph-name="Yacute" unicode="&#xdd;" horiz-adv-x="504" 
d="M381 288l-68 -288h-128l68 294l-95 386h140l48 -265l169 265h146zM367 819l223 110l10 -120l-226 -78z" />
    <glyph glyph-name="Ycircumflex" unicode="&#x176;" horiz-adv-x="504" 
d="M381 288l-68 -288h-128l68 294l-95 386h140l48 -265l169 265h146zM444 909h80l86 -175h-122l-24 64l-58 -64h-130z" />
    <glyph glyph-name="Ydieresis" unicode="&#x178;" horiz-adv-x="504" 
d="M304 923h111l-32 -135h-110zM503 923h111l-33 -135h-109zM381 288l-68 -288h-128l68 294l-95 386h140l48 -265l169 265h146z" />
    <glyph glyph-name="Ygrave" unicode="&#x1ef2;" horiz-adv-x="504" 
d="M381 288l-68 -288h-128l68 294l-95 386h140l48 -265l169 265h146zM524 815l-37 -79l-203 72l64 110z" />
    <glyph glyph-name="Z" unicode="Z" horiz-adv-x="490" 
d="M193 680h418l-32 -139l-353 -397l-6 -24h262l-28 -120h-418l31 137l351 399l5 24h-258z" />
    <glyph glyph-name="Zacute" unicode="&#x179;" horiz-adv-x="490" 
d="M193 680h418l-32 -139l-353 -397l-6 -24h262l-28 -120h-418l31 137l351 399l5 24h-258zM359 819l223 110l10 -120l-226 -78z" />
    <glyph glyph-name="Zcaron" unicode="&#x17d;" horiz-adv-x="490" 
d="M470 776h-92l-93 151h132l29 -57l53 57h131zM193 680h418l-32 -139l-353 -397l-6 -24h262l-28 -120h-418l31 137l351 399l5 24h-258z" />
    <glyph glyph-name="Zdotaccent" unicode="&#x17b;" horiz-adv-x="490" 
d="M399 909h118l-34 -138h-116zM193 680h418l-32 -139l-353 -397l-6 -24h262l-28 -120h-418l31 137l351 399l5 24h-258z" />
    <glyph glyph-name="glyph137" horiz-adv-x="0" 
 />
    <glyph glyph-name="glyph138" horiz-adv-x="223" 
 />
    <glyph glyph-name="g" unicode="g" horiz-adv-x="484" 
d="M9 -93q0 47 40 84q27 24 82 51q-20 20 -20 53q0 45 60 96q-68 40 -68 125t56 140q58 56 151 56q49 0 121 -18l146 6l-25 -108h-58q4 -22 4 -51q0 -77 -59 -130q-60 -54 -150 -54q-25 0 -43 5q-15 -20 -15 -36q0 -12 22 -19q16 -5 72 -13q62 -9 96 -33q46 -32 46 -93
q0 -89 -64 -143q-65 -55 -177 -55q-217 0 -217 137zM247 -5l-12 2l-11 2q-26 5 -36 7q-20 -11 -37 -28q-20 -22 -20 -40q0 -56 92 -56q50 0 79 13q39 17 39 57q0 18 -19 27q-12 6 -49 12zM353 290q22 23 22 57q0 56 -70 56q-35 0 -57 -24q-22 -22 -22 -57q0 -56 70 -56
q35 0 57 24z" />
    <glyph glyph-name="h" unicode="h" horiz-adv-x="513" 
d="M55 0l161 700h134l-56 -247q59 59 125 59q122 0 122 -141q0 -23 -8 -65q-3 -15 -7 -34l-3 -14q-1 -6 -3 -13l-56 -245h-134l54 235q3 11 5 23q4 16 6 29q7 36 7 51q0 31 -7 43q-8 15 -33 15q-31 0 -96 -60l-77 -336h-134z" />
    <glyph glyph-name="s" unicode="s" horiz-adv-x="432" 
d="M470 381q-103 16 -168 16q-62 0 -62 -49q0 -16 15 -25q13 -9 56 -22q74 -23 98 -43q35 -27 35 -80q0 -94 -64 -144q-59 -46 -161 -46q-97 0 -173 34l25 98q96 -18 163 -18q73 0 73 49q0 20 -62 38q-71 20 -101 44q-38 30 -38 80q0 93 64 148q58 50 144 50q106 0 180 -31z
" />
    <glyph glyph-name="glyph142" horiz-adv-x="0" 
 />
    <glyph glyph-name="endash" unicode="&#x2013;" horiz-adv-x="526" 
d="M575 323v-114h-500v114h500z" />
    <glyph glyph-name="dollar" unicode="$" 
d="M584 541q-39 6 -83 11l-78 -172q70 -32 94 -67q23 -33 23 -96q0 -110 -69 -171q-67 -58 -181 -58q-16 0 -42 2l-49 -109h-85l55 122q-48 12 -81 25l22 97q52 -10 106 -16l82 183q-64 30 -89 65q-28 37 -28 99q0 94 60 155q62 62 164 62q22 0 62 -4l46 102h86l-52 -117
q37 -9 62 -18zM368 257l-69 -152q105 3 105 96q0 34 -36 56zM353 414l65 145h-9q-43 0 -68 -24q-24 -24 -24 -63q0 -36 36 -58z" />
    <glyph glyph-name="exclam" unicode="!" horiz-adv-x="163" 
d="M172 700h143l-112 -442h-126zM49 153h136l-35 -153h-136z" />
    <glyph glyph-name="summation" unicode="&#x2211;" 
d="M96 620v140h500v-120h-354v-15l215 -281v-93l-215 -296v-15h354v-120h-500v139l238 339z" />
    <glyph glyph-name="a" unicode="a" horiz-adv-x="528" 
d="M80 170q0 123 59 222q71 120 195 120q73 0 250 -33l-75 -323q-14 -62 -27 -153l-133 -5q9 61 13 78q-64 -88 -141 -88q-141 0 -141 182zM247 318q-31 -68 -31 -148q0 -68 51 -68q41 0 117 89l46 193q-66 14 -92 14q-56 0 -91 -80z" />
    <glyph glyph-name="o" unicode="o" horiz-adv-x="496" 
d="M530 322q0 -128 -63 -225q-72 -109 -190 -109q-197 0 -197 189q0 126 67 225q73 109 186 109q197 0 197 -189zM366 174q31 65 31 150q0 73 -64 73q-54 0 -88 -72q-32 -65 -32 -150q0 -73 64 -73q54 0 89 72z" />
    <glyph glyph-name="n" unicode="n" horiz-adv-x="513" 
d="M55 0l115 500h128l-6 -49q61 61 127 61q122 0 122 -141q0 -22 -8 -64q-3 -16 -7 -34q-3 -13 -6 -28l-56 -245h-134l54 235q3 11 5 23q4 16 6 29q7 36 7 51q0 31 -7 43q-8 15 -34 15q-32 0 -95 -60l-77 -336h-134z" />
    <glyph glyph-name="numbersign" unicode="#" 
d="M483 165l-41 -165h-116l41 165h-104l-41 -165h-116l41 165h-96l28 112h96l26 106h-96l28 112h96l41 165h116l-41 -165h104l41 165h116l-41 -165h96l-28 -112h-96l-26 -106h96l-28 -112h-96zM421 383h-104l-26 -106h104z" />
    <glyph glyph-name="at" unicode="@" horiz-adv-x="959" 
d="M973 598q78 -112 28 -303q-43 -165 -99 -234q-58 -71 -154 -71q-84 0 -113 44q-33 -16 -87 -30q-60 -16 -102 -16q-94 0 -126 85q-27 69 -7 169q54 270 252 270q48 0 244 -33q-2 -8 -5 -23q-4 -18 -9 -39q-12 -55 -23 -104q-31 -143 -34 -163q-4 -33 40 -33q29 0 52 43
q23 42 50 147q37 147 -6 217q-56 91 -258 91q-318 0 -400 -344q-37 -156 24 -253q70 -113 258 -113q38 0 137 9l-26 -111q-97 -10 -142 -10q-227 0 -329 148q-93 135 -46 330q58 243 193 352q129 104 351 104q247 0 337 -129zM545 114q32 10 58 26q2 23 20 105q7 32 16 72
q8 32 16 67q-10 2 -21 4l-25 5q-30 5 -45 5q-81 0 -116 -156q-14 -61 -5 -99q9 -40 38 -41q28 -1 64 12z" />
    <glyph glyph-name="ydieresis" unicode="&#xff;" horiz-adv-x="464" 
d="M229 736h121l-32 -135h-120zM433 736h121l-32 -135h-120zM257 500l-14 -389h15l174 389h135l-332 -710h-133l103 210h-83l4 500h131z" />
    <glyph glyph-name="scaron" unicode="&#x161;" horiz-adv-x="432" 
d="M470 381q-103 16 -168 16q-62 0 -62 -49q0 -16 15 -25q13 -9 56 -22q74 -23 98 -43q35 -27 35 -80q0 -94 -64 -144q-59 -46 -161 -46q-97 0 -173 34l25 98q96 -18 163 -18q73 0 73 49q0 20 -62 38q-71 20 -101 44q-38 30 -38 80q0 93 64 148q58 50 144 50q106 0 180 -31z
M302 575l-82 175h123l29 -66l53 66h129l-167 -175h-85z" />
    <glyph glyph-name="yacute" unicode="&#xfd;" horiz-adv-x="464" 
d="M257 500l-14 -389h15l174 389h135l-332 -710h-133l103 210h-83l4 500h131zM303 638l223 110l10 -120l-226 -78z" />
    <glyph glyph-name="zcaron" unicode="&#x17e;" horiz-adv-x="414" 
d="M292 575l-82 175h123l29 -66l53 66h129l-167 -175h-85zM151 500h345l-28 -111l-252 -275h192l-29 -114h-345l25 112l251 274h-188z" />
    <glyph glyph-name="degree" unicode="&#xb0;" 
d="M297 650q41 42 108 42t108 -42q42 -41 42 -108t-42 -108q-41 -41 -108 -41t-108 41q-42 41 -42 108t42 108zM351 487q20 -21 54 -21t55 21q22 21 22 55t-22 55q-21 22 -55 22t-54 -22q-21 -21 -21 -55t21 -55z" />
    <glyph glyph-name="section" unicode="&#xa7;" horiz-adv-x="487" 
d="M538 502q-104 16 -148 16q-107 0 -107 -63q0 -27 36 -41q14 -6 37 -12l20 -4l20 -5q67 -16 96 -57q20 -30 20 -70q0 -42 -30 -90q-12 -19 -29 -40l-14 -17l-14 -16q17 -27 17 -57q0 -13 -2 -28q-1 -17 -6 -34q-10 -44 -33 -78q-65 -94 -215 -94q-66 0 -170 22l38 111
q99 -14 150 -14q48 0 78 16q29 16 29 44q0 27 -23 37q-11 5 -36 12l-12 4l-14 3q-16 5 -31 10q-117 37 -117 125q0 55 35 104q13 18 31 35q14 13 30 25q-13 12 -17 41q-2 10 -3 23v18q0 72 62 135q74 74 193 74q66 0 159 -24zM273 293q-19 5 -24 8q-10 -12 -21 -36
q-13 -30 -13 -49q0 -14 13 -22q6 -3 15 -7l9 -3l9 -4q10 -4 22 -8l20 -8q22 -8 34 -13q11 11 23 38q13 29 13 47q0 30 -63 47q-22 6 -37 10z" />
    <glyph glyph-name="copyright" unicode="&#xa9;" horiz-adv-x="641" 
d="M223 638q78 80 198 80q123 0 201 -84q74 -81 74 -200q0 -123 -75 -202q-77 -82 -202 -82q-117 0 -196 82q-78 82 -78 202q0 123 78 204zM267 276q62 -66 152 -66q93 0 154 66q61 64 61 158q0 92 -61 158q-62 66 -153 66q-90 0 -152 -66q-61 -65 -61 -158t60 -158z
M513 287q-28 -18 -84 -18q-69 0 -97 34q-31 38 -31 136q0 89 32 125q29 34 100 34q48 0 80 -15l-7 -86q-35 6 -67 6q-20 0 -27 -14q-8 -14 -8 -50q0 -75 35 -75q32 0 67 5z" />
    <glyph glyph-name="trademark" unicode="&#x2122;" horiz-adv-x="689" 
d="M214 644h200v-79h-41v-233h-88v233h-71v79zM439 644h103l41 -158l45 158h102v-313h-82v174l-34 -153h-55l-38 153v-174h-82v313z" />
    <glyph glyph-name="registered" unicode="&#xae;" horiz-adv-x="641" 
d="M223 638q78 80 197 80q123 0 201 -84q75 -81 75 -200q0 -123 -75 -202q-76 -82 -201 -82q-118 0 -197 82q-78 81 -78 202q0 123 78 204zM269 276q62 -66 151 -66q92 0 154 66q60 65 60 158q0 92 -61 158q-62 66 -153 66q-90 0 -152 -66q-61 -66 -61 -158t62 -158z
M425 369h-29v-93h-96v315h136q114 0 114 -105q0 -69 -38 -100l41 -110h-100zM395 440h28q34 0 34 39q0 40 -35 40h-27v-79z" />
    <glyph glyph-name="aacute" unicode="&#xe1;" horiz-adv-x="528" 
d="M80 170q0 123 59 222q71 120 195 120q73 0 250 -33l-75 -323q-14 -62 -27 -153l-133 -5q9 61 13 78q-64 -88 -141 -88q-141 0 -141 182zM247 318q-31 -68 -31 -148q0 -68 51 -68q41 0 117 89l46 193q-66 14 -92 14q-56 0 -91 -80zM327 638l223 110l10 -120l-226 -78z" />
    <glyph glyph-name="agrave" unicode="&#xe0;" horiz-adv-x="528" 
d="M80 170q0 123 59 222q71 120 195 120q73 0 250 -33l-75 -323q-14 -62 -27 -153l-133 -5q9 61 13 78q-64 -88 -141 -88q-141 0 -141 182zM247 318q-31 -68 -31 -148q0 -68 51 -68q41 0 117 89l46 193q-66 14 -92 14q-56 0 -91 -80zM484 634l-37 -79l-203 72l64 110z" />
    <glyph glyph-name="acircumflex" unicode="&#xe2;" horiz-adv-x="528" 
d="M80 170q0 123 59 222q71 120 195 120q73 0 250 -33l-75 -323q-14 -62 -27 -153l-133 -5q9 61 13 78q-64 -88 -141 -88q-141 0 -141 182zM247 318q-31 -68 -31 -148q0 -68 51 -68q41 0 117 89l46 193q-66 14 -92 14q-56 0 -91 -80zM404 728h80l86 -175h-122l-24 64
l-58 -64h-130z" />
    <glyph glyph-name="adieresis" unicode="&#xe4;" horiz-adv-x="528" 
d="M273 736h121l-32 -135h-120zM477 736h121l-32 -135h-120zM80 170q0 123 59 222q71 120 195 120q73 0 250 -33l-75 -323q-14 -62 -27 -153l-133 -5q9 61 13 78q-64 -88 -141 -88q-141 0 -141 182zM247 318q-31 -68 -31 -148q0 -68 51 -68q41 0 117 89l46 193
q-66 14 -92 14q-56 0 -91 -80z" />
    <glyph glyph-name="atilde" unicode="&#xe3;" horiz-adv-x="528" 
d="M80 170q0 123 59 222q71 120 195 120q73 0 250 -33l-75 -323q-14 -62 -27 -153l-133 -5q9 61 13 78q-64 -88 -141 -88q-141 0 -141 182zM247 318q-31 -68 -31 -148q0 -68 51 -68q41 0 117 89l46 193q-66 14 -92 14q-56 0 -91 -80zM571 628q-67 -64 -116 -64q-26 0 -71 22
l-17 8l-15 7q-17 7 -27 7q-27 0 -86 -40l-3 92q67 65 115 65q31 0 76 -21l16 -8q10 -5 15 -7q15 -7 23 -7q24 0 86 39z" />
    <glyph glyph-name="aring" unicode="&#xe5;" horiz-adv-x="528" 
d="M80 170q0 123 59 222q71 120 195 120q73 0 250 -33l-75 -323q-14 -62 -27 -153l-133 -5q9 61 13 78q-64 -88 -141 -88q-141 0 -141 182zM247 318q-31 -68 -31 -148q0 -68 51 -68q41 0 117 89l46 193q-66 14 -92 14q-56 0 -91 -80zM377 732q35 31 82 31q48 0 67 -31
q17 -30 6 -77q-12 -50 -47 -79t-82 -29t-66 32q-18 30 -6 77t46 76zM406 635q6 -9 19 -9q27 0 36 29q4 12 -4 20q-7 8 -18 8q-28 0 -36 -27q-4 -11 3 -21z" />
    <glyph glyph-name="eacute" unicode="&#xe9;" horiz-adv-x="476" 
d="M454 115l-15 -99q-93 -28 -189 -28q-169 0 -169 170q0 149 64 244q73 109 210 109q175 0 175 -149q0 -95 -67 -133q-61 -34 -210 -34h-35q-3 -12 -3 -34q0 -59 73 -59q68 0 166 13zM274 294q69 0 97 15q27 15 27 51q0 43 -50 43q-89 0 -115 -109h41zM313 638l223 110
l10 -120l-226 -78z" />
    <glyph glyph-name="egrave" unicode="&#xe8;" horiz-adv-x="476" 
d="M454 115l-15 -99q-93 -28 -189 -28q-169 0 -169 170q0 149 64 244q73 109 210 109q175 0 175 -149q0 -95 -67 -133q-61 -34 -210 -34h-35q-3 -12 -3 -34q0 -59 73 -59q68 0 166 13zM274 294q69 0 97 15q27 15 27 51q0 43 -50 43q-89 0 -115 -109h41zM470 634l-37 -79
l-203 72l64 110z" />
    <glyph glyph-name="ecircumflex" unicode="&#xea;" horiz-adv-x="476" 
d="M454 115l-15 -99q-93 -28 -189 -28q-169 0 -169 170q0 149 64 244q73 109 210 109q175 0 175 -149q0 -95 -67 -133q-61 -34 -210 -34h-35q-3 -12 -3 -34q0 -59 73 -59q68 0 166 13zM274 294q69 0 97 15q27 15 27 51q0 43 -50 43q-89 0 -115 -109h41zM390 728h80l86 -175
h-122l-24 64l-58 -64h-130z" />
    <glyph glyph-name="edieresis" unicode="&#xeb;" horiz-adv-x="476" 
d="M242 736h121l-32 -135h-120zM446 736h121l-32 -135h-120zM454 115l-15 -99q-93 -28 -189 -28q-169 0 -169 170q0 149 64 244q73 109 210 109q175 0 175 -149q0 -95 -67 -133q-61 -34 -210 -34h-35q-3 -12 -3 -34q0 -59 73 -59q68 0 166 13zM274 294q69 0 97 15
q27 15 27 51q0 43 -50 43q-89 0 -115 -109h41z" />
    <glyph glyph-name="idieresis" unicode="&#xef;" horiz-adv-x="243" 
d="M120 736h121l-32 -135h-120zM324 736h121l-32 -135h-120zM170 500h134l-115 -500h-134z" />
    <glyph glyph-name="ntilde" unicode="&#xf1;" horiz-adv-x="513" 
d="M55 0l115 500h128l-6 -49q61 61 127 61q122 0 122 -141q0 -22 -8 -64q-3 -16 -7 -34q-3 -13 -6 -28l-56 -245h-134l54 235q3 11 5 23q4 16 6 29q7 36 7 51q0 31 -7 43q-8 15 -34 15q-32 0 -95 -60l-77 -336h-134zM576 628q-67 -64 -116 -64q-26 0 -71 22l-17 8l-15 7
q-17 7 -27 7q-27 0 -86 -40l-3 92q67 65 115 65q31 0 76 -21l16 -8q10 -5 15 -7q15 -7 23 -7q24 0 86 39z" />
    <glyph glyph-name="oacute" unicode="&#xf3;" horiz-adv-x="496" 
d="M530 322q0 -128 -63 -225q-72 -109 -190 -109q-197 0 -197 189q0 126 67 225q73 109 186 109q197 0 197 -189zM366 174q31 65 31 150q0 73 -64 73q-54 0 -88 -72q-32 -65 -32 -150q0 -73 64 -73q54 0 89 72zM320 638l223 110l10 -120l-226 -78z" />
    <glyph glyph-name="ograve" unicode="&#xf2;" horiz-adv-x="496" 
d="M530 322q0 -128 -63 -225q-72 -109 -190 -109q-197 0 -197 189q0 126 67 225q73 109 186 109q197 0 197 -189zM366 174q31 65 31 150q0 73 -64 73q-54 0 -88 -72q-32 -65 -32 -150q0 -73 64 -73q54 0 89 72zM477 634l-37 -79l-203 72l64 110z" />
    <glyph glyph-name="ocircumflex" unicode="&#xf4;" horiz-adv-x="496" 
d="M530 322q0 -128 -63 -225q-72 -109 -190 -109q-197 0 -197 189q0 126 67 225q73 109 186 109q197 0 197 -189zM366 174q31 65 31 150q0 73 -64 73q-54 0 -88 -72q-32 -65 -32 -150q0 -73 64 -73q54 0 89 72zM397 728h80l86 -175h-122l-24 64l-58 -64h-130z" />
    <glyph glyph-name="odieresis" unicode="&#xf6;" horiz-adv-x="496" 
d="M530 322q0 -128 -63 -225q-72 -109 -190 -109q-197 0 -197 189q0 126 67 225q73 109 186 109q197 0 197 -189zM366 174q31 65 31 150q0 73 -64 73q-54 0 -88 -72q-32 -65 -32 -150q0 -73 64 -73q54 0 89 72zM259 736h111l-32 -135h-110zM453 736h111l-32 -135h-110z" />
    <glyph glyph-name="otilde" unicode="&#xf5;" horiz-adv-x="496" 
d="M530 322q0 -128 -63 -225q-72 -109 -190 -109q-197 0 -197 189q0 126 67 225q73 109 186 109q197 0 197 -189zM366 174q31 65 31 150q0 73 -64 73q-54 0 -88 -72q-32 -65 -32 -150q0 -73 64 -73q54 0 89 72zM564 628q-67 -64 -116 -64q-26 0 -71 22l-17 8l-15 7
q-17 7 -27 7q-27 0 -86 -40l-3 92q67 65 115 65q31 0 76 -21l16 -8q10 -5 15 -7q15 -7 23 -7q24 0 86 39z" />
    <glyph glyph-name="uacute" unicode="&#xfa;" horiz-adv-x="513" 
d="M573 500l-115 -500h-128l6 49q-61 -61 -127 -61q-122 0 -122 141q0 22 8 65q3 16 7 34q3 14 6 27l56 245h134l-54 -235q-3 -11 -5 -23q-4 -16 -6 -29q-7 -36 -7 -51q0 -58 41 -58q32 0 95 60l77 336h134zM326 638l223 110l10 -120l-226 -78z" />
    <glyph glyph-name="ugrave" unicode="&#xf9;" horiz-adv-x="513" 
d="M573 500l-115 -500h-128l6 49q-61 -61 -127 -61q-122 0 -122 141q0 22 8 65q3 16 7 34q3 14 6 27l56 245h134l-54 -235q-3 -11 -5 -23q-4 -16 -6 -29q-7 -36 -7 -51q0 -58 41 -58q32 0 95 60l77 336h134zM482 634l-37 -79l-203 72l64 110z" />
    <glyph glyph-name="ucircumflex" unicode="&#xfb;" horiz-adv-x="513" 
d="M573 500l-115 -500h-128l6 49q-61 -61 -127 -61q-122 0 -122 141q0 22 8 65q3 16 7 34q3 14 6 27l56 245h134l-54 -235q-3 -11 -5 -23q-4 -16 -6 -29q-7 -36 -7 -51q0 -58 41 -58q32 0 95 60l77 336h134zM402 728h80l86 -175h-122l-24 64l-58 -64h-130z" />
    <glyph glyph-name="udieresis" unicode="&#xfc;" horiz-adv-x="513" 
d="M247 736h121l-32 -135h-120zM451 736h121l-32 -135h-120zM573 500l-115 -500h-128l6 49q-61 -61 -127 -61q-122 0 -122 141q0 22 8 65q3 16 7 34q3 14 6 27l56 245h134l-54 -235q-3 -11 -5 -23q-4 -16 -6 -29q-7 -36 -7 -51q0 -58 41 -58q32 0 95 60l77 336h134z" />
    <glyph glyph-name="minus" unicode="&#x2212;" 
d="M119 311h436v-120h-436v120z" />
    <glyph glyph-name="multiply" unicode="&#xd7;" 
d="M338 332l140 143l84 -85l-143 -140l143 -139l-85 -85l-139 142l-139 -141l-85 84l142 139l-141 138l85 85z" />
    <glyph glyph-name="dotlessi" unicode="&#x131;" horiz-adv-x="244" 
d="M170 500h134l-115 -500h-134z" />
    <glyph glyph-name="iacute" unicode="&#xed;" horiz-adv-x="244" 
d="M170 500h134l-115 -500h-134zM194 638l223 110l10 -120l-226 -78z" />
    <glyph glyph-name="igrave" unicode="&#xec;" horiz-adv-x="244" 
d="M170 500h134l-115 -500h-134zM351 634l-37 -79l-203 72l64 110z" />
    <glyph glyph-name="icircumflex" unicode="&#xee;" horiz-adv-x="244" 
d="M170 500h134l-115 -500h-134zM271 728h80l86 -175h-122l-24 64l-58 -64h-130z" />
    <glyph glyph-name="germandbls" unicode="&#xdf;" horiz-adv-x="564" 
d="M54 0l123 520q26 109 86 152q55 40 161 40q198 0 198 -145q0 -105 -91 -140q-53 -21 -70 -32q-20 -14 -20 -33q0 -15 13 -27q11 -10 53 -38q44 -29 57 -46q19 -25 19 -71q0 -89 -55 -140q-55 -52 -151 -52q-74 0 -161 28l29 98q70 -12 116 -12q43 0 66 19q20 16 20 40
q0 18 -10 28t-50 34q-47 28 -64 51q-18 25 -18 63q0 58 28 94q24 30 78 55q48 23 62 34q13 12 13 33q0 45 -76 45q-90 0 -112 -96l-118 -502h-126z" />
    <glyph glyph-name="ccedilla" unicode="&#xe7;" horiz-adv-x="410" 
d="M493 481l-34 -98q-77 13 -121 13q-57 0 -90 -67q-29 -58 -29 -138q0 -87 76 -87q43 0 107 8l-11 -99q-63 -22 -129 -25l-6 -21h6q110 0 89 -91q-25 -105 -129 -105q-41 0 -84 11l20 81q30 -1 46 -1q36 0 42 24q6 20 -31 20h-22l19 85q-60 10 -94 54q-35 45 -35 117
q0 153 65 248q70 102 196 102q70 0 149 -31z" />
    <glyph glyph-name="lslash" unicode="&#x142;" horiz-adv-x="292" 
d="M127 220l-37 -23l-41 93l110 69l79 341h134l-56 -244l40 25l41 -92l-113 -71l-73 -318h-134z" />
    <glyph glyph-name="eth" unicode="&#xf0;" horiz-adv-x="527" 
d="M274 470l-46 72l45 31l-64 9l44 116q98 -5 164 -26l98 67l43 -72l-54 -38q118 -86 71 -276q-46 -189 -116 -271q-77 -91 -210 -91q-104 0 -150 70q-43 66 -18 160q26 97 92 155q70 62 166 62q65 0 114 -22q16 89 -72 128zM256 291q-26 -26 -38 -69q-29 -104 61 -104
q103 0 148 178h-1l-2 1q-2 2 -5 3q-10 4 -22 7q-36 11 -77 11q-36 0 -64 -27z" />
    <glyph glyph-name="Thorn" unicode="&#xde;" horiz-adv-x="538" 
d="M343 236q96 0 124 112q11 46 -4 75q-17 33 -66 34l-96 2l-53 -223h95zM216 100l-23 -100h-130l163 690h131l-25 -97h96q100 0 147 -72q46 -69 24 -173q-26 -117 -101 -183q-77 -67 -186 -66z" />
    <glyph glyph-name="oslash" unicode="&#xf8;" horiz-adv-x="496" 
d="M419 501l64 105l71 -31l-71 -111q48 -46 48 -140q0 -128 -63 -225q-72 -109 -190 -109q-47 0 -86 11l-66 -108l-70 31l73 114q-48 46 -48 141q0 126 67 225q73 109 186 109q48 0 85 -12zM276 266l79 130q-9 3 -21 3q-54 0 -88 -72q-32 -65 -32 -150v-8zM367 176
q31 65 31 150v5l-62 -96l-79 -129l10 -1l11 -1q54 0 89 72z" />
    <glyph glyph-name="glyph194" horiz-adv-x="504" 
d="M568 328q0 -81 -32 -154q-37 -81 -104 -128q-78 -54 -193 -54q-87 0 -137 40q-53 43 -53 124q0 93 39 175q41 87 115 134q70 44 168 44q197 0 197 -181zM235 318q-35 -57 -35 -131q0 -31 19 -50q20 -19 53 -19q85 0 122 87q12 28 18 62l2 22q1 4 1 8v4q0 81 -73 81
q-66 0 -107 -64z" />
    <glyph glyph-name="glyph195" horiz-adv-x="344" 
d="M312 500h138l-124 -500h-148l83 334l-143 -77l-38 115z" />
    <glyph glyph-name="glyph196" horiz-adv-x="422" 
d="M3 0l30 123l106 71q73 48 121 87q65 52 65 72q0 25 -70 25q-44 0 -102 -7q-21 -3 -37 -5l-15 -3l22 120q106 26 199 26q87 0 130 -38q37 -33 37 -84q0 -62 -35 -108q-27 -35 -94 -81l-100 -69h189l-32 -129h-414z" />
    <glyph glyph-name="glyph197" horiz-adv-x="427" 
d="M322 510q102 0 148 -36q35 -28 35 -73q0 -65 -37 -103q-28 -28 -71 -38q66 -19 66 -75q0 -79 -57 -131q-68 -63 -201 -63q-93 0 -203 23l42 117q112 -11 178 -11q104 0 104 44q0 26 -79 26h-128l30 120h128q84 0 84 43q0 28 -72 28q-76 0 -178 -12l16 116q115 25 195 25z
" />
    <glyph glyph-name="glyph198" horiz-adv-x="468" 
d="M283 84h-263l27 103l227 313h159l-218 -295h99l27 110h138l-27 -110h61l-29 -121h-63l-21 -84h-138z" />
    <glyph glyph-name="glyph199" horiz-adv-x="461" 
d="M555 500l-33 -132h-271l-30 -62q45 15 93 15q183 0 183 -138q0 -89 -66 -140q-68 -52 -194 -52q-89 0 -232 33l42 121q132 -32 206 -32q100 0 100 53q0 39 -80 39q-41 0 -107 -19l-100 23l94 291h395z" />
    <glyph glyph-name="glyph200" horiz-adv-x="462" 
d="M512 375q-76 15 -156 15q-64 0 -96 -22t-46 -76q54 26 118 26q167 0 167 -124q0 -204 -264 -204q-92 0 -140 49q-43 45 -43 124q0 151 85 248q88 100 231 100q74 0 183 -29zM187 185q-2 -8 -2 -16q0 -13 2 -22q3 -14 11 -23q18 -25 66 -25q100 0 100 72q0 37 -72 37
q-59 0 -105 -23z" />
    <glyph glyph-name="glyph201" horiz-adv-x="411" 
d="M120 501h404l-41 -167l-298 -359l-112 63l261 306l9 33h-255z" />
    <glyph glyph-name="glyph202" horiz-adv-x="478" 
d="M509 474q48 -32 48 -80q0 -87 -100 -129q30 -23 44 -51q10 -22 10 -45q0 -75 -58 -121q-73 -58 -221 -58q-94 0 -149 34q-53 33 -53 85q0 102 118 156q-31 23 -42 50q-5 9 -6 19l-1 7v5q0 67 65 112q72 51 197 51q94 0 148 -35zM347 135q18 13 18 34q0 25 -36 31h-88
q-29 -4 -44 -20q-12 -13 -12 -29q0 -34 79 -34q58 0 83 18zM256 373q-7 -6 -9 -15l-2 -7v-6q0 -17 26 -28h88q45 15 45 46q0 29 -72 29q-56 0 -76 -19z" />
    <glyph glyph-name="glyph203" horiz-adv-x="459" 
d="M63 126q76 -15 156 -15q64 0 96 22t46 76q-64 -26 -118 -26q-167 0 -167 124q0 80 63 138q73 66 201 66q92 0 140 -49q43 -45 43 -124q0 -151 -85 -248q-88 -100 -231 -100q-74 0 -183 29zM388 316q2 8 2 16q0 13 -2 22q-3 14 -10 23q-19 25 -67 25q-100 0 -100 -72
q0 -37 72 -37q59 0 105 23z" />
    <glyph glyph-name="brokenbar" unicode="&#xa6;" horiz-adv-x="335" 
d="M291 700v-372h-134v372h134zM291 170v-380h-134v380h134z" />
    <glyph glyph-name="plusminus" unicode="&#xb1;" 
d="M99 390h169v108h120v-108h171v-120h-171v-100h-120v100h-169v120zM559 139v-120h-460v120h460z" />
    <glyph glyph-name="pi" unicode="&#x3c0;" 
d="M384 386h-85l-26 -386h-135l32 386q-31 0 -88 -13v109q64 18 150 18h251q57 0 109 12v-110q-24 -11 -74 -14v-234q0 -27 13 -37q15 -13 56 -13v-114q-133 0 -169 32q-34 29 -34 132v232z" />
    <glyph glyph-name="bullet" unicode="&#x2022;" horiz-adv-x="458" 
d="M160 380h250v-280h-250v280z" />
    <glyph glyph-name="ordfeminine" unicode="&#xaa;" horiz-adv-x="329" 
d="M401 403q6 -6 16 -8l-21 -82q-68 0 -93 9q-18 6 -26 24q-50 -32 -97 -32q-51 0 -72 30q-21 29 -9 80q11 50 45 74q35 24 103 27l64 3l6 22q2 15 -39 15q-44 0 -133 -7l14 75q77 26 148 26q77 0 106 -22q35 -27 20 -93zM251 455q-34 -3 -39 -27q-4 -26 26 -26q20 0 49 16
l8 40z" />
    <glyph glyph-name="ordmasculine" unicode="&#xba;" horiz-adv-x="343" 
d="M406 644q43 -18 51 -53q10 -43 -3 -97q-24 -100 -75 -141q-48 -39 -140 -39q-65 0 -100 34t-31 92q1 25 9 55q22 89 73 128q47 37 131 37q48 0 85 -16zM309 427q17 18 30 65q5 20 5 36q0 40 -43 40q-51 0 -69 -70q-8 -30 -8 -49q0 -39 39 -39q29 0 46 17z" />
    <glyph glyph-name="quotedblleft" unicode="&#x201c;" horiz-adv-x="363" 
d="M331 680l-105 -255h-132l137 255h100zM521 680l-105 -255h-132l137 255h100z" />
    <glyph glyph-name="asciitilde" unicode="~" 
d="M556 221q-53 -51 -113 -51q-29 0 -108 22l-29 8q-16 4 -27 7q-27 7 -40 7q-48 0 -109 -39l-10 107q63 52 123 52q28 0 104 -22t99 -22q39 0 102 38z" />
    <glyph glyph-name="emdash" unicode="&#x2014;" horiz-adv-x="1026" 
d="M1075 323v-114h-1000v114h1000z" />
    <glyph glyph-name="six" unicode="6" 
d="M597 539q-78 15 -157 15q-115 0 -173 -164q80 35 135 35q181 0 181 -174q0 -119 -69 -189q-72 -74 -202 -74q-100 0 -154 56q-59 61 -59 179q0 164 97 298q109 151 276 151q74 0 168 -22zM249 283l-3 -14l-3 -15q-3 -19 -3 -35q0 -46 18 -76q21 -37 63 -37q121 0 121 132
q0 69 -81 69q-64 0 -112 -24z" />
    <glyph glyph-name="nine" unicode="9" 
d="M121 129q58 -15 137 -15q65 0 117 41q52 42 69 110l-16 -4l-9 -2l-9 -2q-12 -2 -22 -5q-27 -5 -49 -9q-27 -4 -43 -4q-171 0 -171 177q0 95 70 169q82 87 223 87q187 0 187 -252q0 -202 -114 -322q-106 -110 -264 -110q-74 0 -148 22zM472 376q15 76 -4 122
q-21 49 -80 49q-52 0 -89 -32q-40 -34 -40 -87q0 -39 19 -54q17 -13 61 -13q54 0 133 15z" />
    <glyph glyph-name="yen" unicode="&#xa5;" 
d="M165 394h70l-108 266h149l98 -231l178 231h178l-214 -266h71l-28 -118h-132l-9 -11l-6 -22h140l-27 -118h-140l-29 -125h-137l30 125h-146l28 118h145l5 22l-3 11h-139z" />
    <glyph glyph-name="less" unicode="&#x3c;" 
d="M259 254l261 -108v-136l-406 186v110l406 183v-136z" />
    <glyph glyph-name="greater" unicode="&#x3e;" 
d="M155 353v136l406 -183v-110l-406 -186v136l261 108z" />
    <glyph glyph-name="bracketleft" unicode="[" horiz-adv-x="246" 
d="M416 747l-28 -114h-88l-149 -641h88l-28 -114h-226l202 869h229z" />
    <glyph glyph-name="backslash" unicode="\" horiz-adv-x="484" 
d="M319 0l-133 702h140l132 -702h-139z" />
    <glyph glyph-name="bracketright" unicode="]" horiz-adv-x="245" 
d="M-26 -122l28 114h88l149 641h-88l28 114h226l-202 -869h-229z" />
    <glyph glyph-name="bar" unicode="|" horiz-adv-x="335" 
d="M157 700h134v-910h-134v910z" />
    <glyph glyph-name="notequal" unicode="&#x2260;" 
d="M116 416h228l68 154l104 -41l-50 -113h94v-121h-147l-38 -87h185v-121h-238l-63 -143l-104 41l45 102h-84v121h137l38 87h-175v121z" />
    <glyph glyph-name="mu" unicode="&#xb5;" 
d="M128 232l3 10q0 3 2 9l9 39l48 210h134l-49 -210h1l-15 -66q-9 -43 -9 -62q0 -58 41 -58q32 0 95 60l77 336h134l-115 -500h-128l6 49q-61 -61 -127 -61q-16 0 -28 3l-46 -201h-134z" />
    <glyph glyph-name="ae" unicode="&#xe6;" horiz-adv-x="714" 
d="M694 118l-23 -102q-91 -28 -187 -28q-102 0 -139 49q-26 -14 -81 -30q-62 -19 -95 -19q-63 0 -95 52q-32 50 -16 113q29 126 153 149q65 12 139 10q9 25 5 46q-5 28 -30 28q-70 0 -182 -14l21 117q127 22 196 22q84 0 114 -41q56 41 133 41q146 0 154 -133
q3 -45 -13 -101l-23 -85l-269 2q-5 -23 -2 -41q8 -44 68 -44q69 0 172 9zM317 116q-5 40 10 96q-13 0 -36 -1q-20 -1 -43 -3q-51 -4 -62 -51q-4 -19 2 -35q8 -19 28 -19q47 0 101 13zM629 294q10 38 5 64q-8 38 -57 38q-73 0 -98 -100z" />
    <glyph glyph-name="florin" unicode="&#x192;" 
d="M307 -63q-25 -104 -71 -144q-43 -36 -126 -36q-32 0 -93 13l24 106q50 -3 77 -3q44 0 59 64l104 438h-88l28 124h89l6 21q31 108 70 148t115 40q61 0 122 -13l-27 -112q-59 2 -89 2q-28 0 -45 -23q-14 -19 -19 -50l-2 -13h133l-29 -124h-133z" />
    <glyph glyph-name="oe" unicode="&#x153;" horiz-adv-x="759" 
d="M740 118l-23 -102q-91 -28 -188 -28q-98 0 -135 49q-66 -49 -156 -49q-141 0 -159 117q-11 66 8 145q31 122 84 183q69 78 190 78q93 0 136 -54q63 54 152 54q143 0 156 -121q6 -57 -10 -106l-29 -92l-268 2q-6 -27 -2 -45q10 -40 71 -40q69 0 173 9zM350 158
q12 19 21 49l8 25l7 25q10 37 10 72q0 63 -63 63q-48 0 -78 -41q-23 -33 -39 -101q-17 -69 -9 -103q10 -40 58 -40q54 0 85 51zM673 294q11 43 7 64q-6 31 -55 31q-82 0 -104 -93z" />
    <glyph glyph-name="daggerdbl" unicode="&#x2021;" horiz-adv-x="473" 
d="M196 100h-137l31 135h138l30 127h-136l30 135l138 -1l40 172h125l-40 -171h135l-29 -135h-137l-31 -127h138l-32 -135h-138l-40 -170h-124z" />
    <glyph glyph-name="quotedbl" unicode="&#x22;" horiz-adv-x="306" 
d="M109 437l58 251h125l-68 -251h-115zM277 437l58 251h125l-68 -251h-115z" />
    <glyph glyph-name="quotesingle" unicode="'" horiz-adv-x="138" 
d="M109 437l58 251h125l-68 -251h-115z" />
    <glyph glyph-name="parenleft" unicode="(" horiz-adv-x="234" 
d="M412 748q-220 -329 -220 -616q0 -140 16 -255h-128q-29 97 -29 255q0 198 118 427q59 114 118 189h125z" />
    <glyph glyph-name="parenright" unicode=")" horiz-adv-x="235" 
d="M-32 -118q220 329 220 616q0 140 -16 255h128q29 -97 29 -255q0 -198 -118 -427q-59 -114 -118 -189h-125z" />
    <glyph glyph-name="comma" unicode="," horiz-adv-x="175" 
d="M-53 -130l117 283h147l-153 -283h-111z" />
    <glyph glyph-name="hyphen" unicode="-" horiz-adv-x="267" 
d="M83 325h253l-30 -120h-253z" />
    <glyph glyph-name="period" unicode="." horiz-adv-x="152" 
d="M43 153h136l-35 -153h-136z" />
    <glyph glyph-name="colon" unicode=":" horiz-adv-x="158" 
d="M115 449h136l-35 -153h-136zM45 153h136l-35 -153h-136z" />
    <glyph glyph-name="semicolon" unicode=";" horiz-adv-x="175" 
d="M57 -130l153 283h-147l-117 -283h111zM130 449h136l-35 -153h-136z" />
    <glyph glyph-name="equal" unicode="=" 
d="M116 416h444v-121h-444v121zM116 208h444v-121h-444v121z" />
    <glyph glyph-name="question" unicode="?" horiz-adv-x="431" 
d="M488 421q-30 -40 -117 -100q-54 -37 -62 -73l-9 -40h-126q0 49 8 90q9 49 94 110q59 41 79 62q25 26 25 52q0 31 -20 42q-15 8 -53 8q-70 0 -143 -12l14 105q90 27 160 27q184 0 184 -156q0 -68 -34 -115zM158 168h136l-38 -168h-136z" />
    <glyph glyph-name="underscore" unicode="_" horiz-adv-x="478" 
d="M444 -80l-28 -125h-448l28 125h448z" />
    <glyph glyph-name="braceleft" unicode="{" horiz-adv-x="288" 
d="M258 179q-4 -18 -15 -55q-23 -76 -23 -94q0 -48 58 -48l-31 -115q-73 0 -115 33q-44 33 -44 92q0 21 21 99q21 79 21 99q0 50 -67 85l24 95q61 16 83 36q17 15 26 51q7 24 29 146q25 84 79 119q52 33 154 37l-22 -115q-72 -6 -89 -72l-24 -126q-14 -57 -41 -87
q-26 -28 -78 -46q61 -34 61 -94q0 -13 -7 -40z" />
    <glyph glyph-name="braceright" unicode="}" horiz-adv-x="287" 
d="M189 499q22 76 22 94q0 48 -58 48l31 115q73 0 116 -32q43 -34 43 -93q0 -21 -21 -99q-21 -79 -21 -99q0 -50 67 -85l-24 -95q-61 -16 -83 -36q-17 -15 -26 -51q-7 -24 -29 -146q-25 -84 -79 -119q-52 -33 -154 -37l22 115q72 6 89 72l24 126q14 57 41 87q26 28 78 46
q-61 34 -61 94q0 19 23 95z" />
    <glyph glyph-name="cent" unicode="&#xa2;" 
d="M274 29q-85 6 -115 76q-24 59 -4 145q51 207 224 218l23 102h108l-26 -105q37 -4 70 -10l-34 -112q-71 3 -107 3q-59 0 -88 -22q-28 -21 -42 -74q-13 -52 5 -74q18 -23 82 -23q35 0 108 4l-21 -112q-37 -6 -75 -9l-25 -110h-106z" />
    <glyph glyph-name="quoteleft" unicode="&#x2018;" horiz-adv-x="174" 
d="M333 679l-105 -255h-132l137 255h100z" />
    <glyph glyph-name="quoteright" unicode="&#x2019;" horiz-adv-x="174" 
d="M96 425l105 255h132l-137 -255h-100z" />
    <glyph glyph-name="divide" unicode="&#xf7;" 
d="M271 484h132v-132h-132v132zM108 311h460v-120h-460v120zM271 149h132v-132h-132v132z" />
    <glyph glyph-name="Euro" unicode="&#x20ac;" 
d="M512 14q-90 -26 -164 -26q-199 0 -199 192v3h-58l24 105h41q8 46 14 69h-40l25 105h49q93 210 285 210q80 0 166 -29l-31 -99q-60 11 -140 11t-135 -93h206l-24 -105h-223q-10 -36 -14 -69h222l-24 -105h-205q2 -78 79 -78q75 0 157 12z" />
    <glyph glyph-name="ampersand" unicode="&#x26;" horiz-adv-x="641" 
d="M606 541q0 -71 -36 -111q-37 -42 -140 -83l76 -102q12 18 28 57q17 40 21 64h123q-11 -45 -44 -110q-32 -64 -60 -97l80 -93l-93 -80l-72 92q-93 -90 -220 -90q-206 0 -206 174q0 87 50 146q47 54 146 94q-30 52 -30 107q0 93 58 140q52 43 143 43q176 0 176 -151z
M368 120q36 17 57 38l-118 167q-105 -49 -105 -146q0 -77 95 -77q32 0 71 18zM383 419q55 29 73 52q16 21 16 58q0 51 -44 51q-65 0 -65 -75q0 -55 20 -86z" />
    <glyph glyph-name="asterisk" unicode="*" horiz-adv-x="423" 
d="M388 499l38 -120l-73 -22l-41 121l-103 -79l-47 59l105 78l-102 73l46 63l101 -73l39 121l75 -25l-38 -122h123v-74h-123z" />
    <glyph glyph-name="sterling" unicode="&#xa3;" 
d="M593 553q-63 8 -103 8q-35 0 -52 -26q-12 -18 -25 -72l-5 -20h157l-27 -114h-156l-50 -215h92l68 18l-3 -115l-74 -17h-340l26 114h95l49 215h-80l27 114h79l9 36q28 110 70 154q45 46 131 46q50 0 143 -25z" />
    <glyph glyph-name="paragraph" unicode="&#xb6;" horiz-adv-x="565" 
d="M513 594h-57l-142 -594h-108l73 306q-139 3 -139 154q0 94 62 165q66 75 165 75h313l-25 -106h-34l-142 -594h-107z" />
    <glyph glyph-name="dagger" unicode="&#x2020;" horiz-adv-x="454" 
d="M142 497h138l40 171h125l-40 -171h136l-29 -135h-138l-103 -432h-124l101 432h-136z" />
    <glyph glyph-name="percent" unicode="%" 
d="M293 556q-16 -66 -38 -66t-6 66q17 65 38 65q23 0 6 -65zM532 720l79 -30l-424 -714l-79 30zM235 410q120 0 156 146q36 145 -84 145t-156 -145q-36 -146 84 -146zM487 291q120 0 84 -145q-36 -146 -156 -146t-84 146q36 145 156 145zM434 80q22 0 39 66q16 65 -6 65
t-38 -65q-17 -66 5 -66z" />
    <glyph glyph-name="plus" unicode="+" 
d="M107 311h169v168h120v-168h171v-120h-171v-170h-120v170h-169v120z" />
    <glyph glyph-name="asciicircum" unicode="^" 
d="M308 530l-113 -217h-140l194 347h114l194 -347h-140z" />
    <glyph glyph-name="quotedblright" unicode="&#x201d;" horiz-adv-x="364" 
d="M96 425l105 255h132l-137 -255h-100zM286 425l105 255h132l-137 -255h-100z" />
    <glyph glyph-name="uni2070" unicode="&#x2070;" horiz-adv-x="280" 
d="M413 765q24 -41 1 -133q-27 -109 -75 -143q-32 -22 -95 -22q-67 0 -88 35q-23 38 0 130q27 108 77 145q33 24 94 24q65 0 86 -36zM266 632q-11 -45 -10 -59q1 -11 12 -11t17 11q8 13 19 59q12 47 12 62q-1 12 -12 12q-19 0 -38 -74z" />
    <glyph glyph-name="uni00B9" unicode="&#xb9;" horiz-adv-x="280" 
d="M313 790h96l-77 -312h-106l48 195l-55 -32l-30 74z" />
    <glyph glyph-name="uni00B2" unicode="&#xb2;" horiz-adv-x="280" 
d="M133 478l22 90l88 59q54 36 60 57q4 15 -33 15q-22 0 -78 -6l21 99q75 9 120 9q61 0 81 -23q19 -23 5 -77q-15 -60 -81 -100l-45 -28h94l-23 -95h-231z" />
    <glyph glyph-name="uni00B3" unicode="&#xb3;" horiz-adv-x="280" 
d="M321 801q121 0 99 -89q-12 -52 -46 -70q31 -15 16 -73q-25 -102 -143 -102q-49 0 -119 8l29 93q60 -6 93 -6q29 0 33 16q4 14 -23 14h-66l21 85h64q20 0 24 14q4 15 -23 15q-37 0 -86 -5l17 91q70 9 110 9z" />
    <glyph glyph-name="uni2074" unicode="&#x2074;" horiz-adv-x="280" 
d="M266 513h-135l22 88l89 189h118l-97 -182h27l37 90h91l-23 -90h11l-24 -95h-11l-8 -35h-105z" />
    <glyph glyph-name="uni2075" unicode="&#x2075;" horiz-adv-x="280" 
d="M434 790l-22 -90h-124l-9 -25q29 6 45 6q93 0 69 -99q-29 -111 -146 -111q-52 0 -115 14l30 85q53 -9 90 -9q26 0 29 15q4 16 -10 16q-9 0 -27 -4l-75 11l58 191h207z" />
    <glyph glyph-name="uni2076" unicode="&#x2076;" horiz-adv-x="280" 
d="M414 702q-65 6 -93 6q-33 0 -39 -26q23 5 39 5q104 0 78 -105q-30 -115 -148 -115q-132 0 -92 155q22 90 61 132q44 47 120 47q36 0 101 -12zM259 593q-7 -34 10 -34t22 21q6 21 -11 21q-12 0 -21 -8z" />
    <glyph glyph-name="uni2077" unicode="&#x2077;" horiz-adv-x="280" 
d="M209 790h227l-25 -101l-150 -221l-121 21l139 183l3 13h-99z" />
    <glyph glyph-name="uni2078" unicode="&#x2078;" horiz-adv-x="280" 
d="M430 711q-11 -45 -45 -71q27 -18 14 -68q-27 -105 -154 -105q-65 0 -90 23q-26 25 -12 82q11 45 49 69q-22 20 -9 71q22 89 145 89q124 0 102 -90zM291 574q1 6 -1 13t-5 12h-14q-14 -11 -18 -25q-7 -22 13 -22q18 0 25 22zM284 697q-1 -5 1 -13q1 -6 4 -12h14
q14 12 17 25q5 19 -13 19q-17 0 -23 -19z" />
    <glyph glyph-name="uni2079" unicode="&#x2079;" horiz-adv-x="280" 
d="M160 568q48 -6 86 -6q18 0 28 8q8 6 10 15l-11 -2l-12 -1l-13 -1q-102 0 -76 104q30 116 148 116q132 0 90 -165q-23 -89 -59 -128q-41 -41 -114 -41q-48 0 -105 14zM310 669q10 39 -9 39q-15 0 -22 -23q-5 -22 11 -22q8 0 20 6z" />
    <glyph glyph-name="questiondown" unicode="&#xbf;" horiz-adv-x="432" 
d="M60 79q30 40 117 100q54 37 62 73l9 40h126q0 -49 -8 -90q-9 -49 -94 -110q-59 -41 -79 -62q-25 -26 -25 -52q0 -31 20 -42q15 -8 53 -8q70 0 143 12l-14 -105q-90 -27 -160 -27q-184 0 -184 156q0 68 34 115zM390 332h-136l38 168h136z" />
    <glyph glyph-name="questiondown.case" horiz-adv-x="378" 
d="M78 279q30 40 117 100q54 37 62 73l9 40h126q0 -49 -8 -90q-9 -49 -94 -110q-59 -41 -79 -62q-25 -26 -25 -52q0 -31 20 -42q15 -8 53 -8q70 0 143 12l-14 -105q-90 -27 -160 -27q-184 0 -184 156q0 68 34 115zM408 532h-136l38 168h136z" />
    <glyph glyph-name="ellipsis" unicode="&#x2026;" horiz-adv-x="614" 
d="M43 153h136l-35 -153h-136zM273 153h136l-35 -153h-136zM505 153h136l-35 -153h-136z" />
    <glyph glyph-name="endash.case" horiz-adv-x="527" 
d="M582 353v-114h-500v114h500z" />
    <glyph glyph-name="emdash.case" horiz-adv-x="1027" 
d="M1082 353v-114h-1000v114h1000z" />
    <glyph glyph-name="periodcentered" unicode="&#xb7;" horiz-adv-x="151" 
d="M94 376h135l-38 -169h-135z" />
    <glyph glyph-name="periodcentered.case" horiz-adv-x="152" 
d="M104 416h135l-38 -169h-135z" />
    <glyph glyph-name="currency" unicode="&#xa4;" 
d="M424 75q-86 -41 -170 0l-73 -73l-92 92l73 73q-41 84 0 170l-73 73l92 92l73 -73q84 40 170 0l73 73l92 -92l-73 -73q40 -86 0 -170l73 -73l-92 -92zM339 177q31 0 53 22t22 53t-22 53t-53 22t-53 -22t-22 -53t22 -53t53 -22z" />
    <glyph glyph-name="perthousand" unicode="&#x2030;" horiz-adv-x="833" 
d="M297 556q-16 -66 -38 -66t-6 66q17 65 38 65q23 0 6 -65zM516 720l80 -23l-371 -721l-81 22zM239 410q120 0 156 146q36 145 -84 145t-156 -145q-36 -146 84 -146zM501 291q120 0 84 -145q-36 -146 -156 -146t-84 146q36 145 156 145zM448 80q22 0 39 66q16 65 -6 65
t-38 -65q-17 -66 5 -66zM758 291q120 0 84 -145q-36 -146 -156 -146t-84 146q36 145 156 145zM705 80q22 0 39 66q16 65 -6 65t-38 -65q-17 -66 5 -66z" />
    <glyph glyph-name="lessequal" unicode="&#x2264;" 
d="M267 337l272 -54v-130l-421 121v116l421 126v-130zM118 139h421v-120h-421v120z" />
    <glyph glyph-name="greaterequal" unicode="&#x2265;" 
d="M130 386v130l421 -126v-116l-421 -121v130l272 54zM551 19h-421v120h421v-120z" />
    <glyph glyph-name="logicalnot" unicode="&#xac;" 
d="M549 358v-254h-120v134h-316v120h436z" />
    <glyph glyph-name="Delta" unicode="&#x2206;" 
d="M206 660h225l123 -558v-102h-472v104zM305 548l-90 -434h206l-89 434h-27z" />
    <glyph glyph-name="Omega" unicode="&#x2126;" 
d="M195 105q-92 108 -92 280q0 151 55 218q57 69 185 69t185 -69q55 -67 55 -218q0 -107 -46 -204q-23 -49 -46 -76h80v-114h-208v99q78 135 78 260q0 116 -17 156q-20 46 -81 46t-81 -46q-17 -40 -17 -156q0 -125 78 -260v-99h-208v114h80z" />
    <glyph glyph-name="oslashacute" unicode="&#x1ff;" horiz-adv-x="496" 
d="M419 501l64 105l71 -31l-71 -111q48 -46 48 -140q0 -128 -63 -225q-72 -109 -190 -109q-47 0 -86 11l-66 -108l-70 31l73 114q-48 46 -48 141q0 126 67 225q73 109 186 109q48 0 85 -12zM276 266l79 130q-9 3 -21 3q-54 0 -88 -72q-32 -65 -32 -150v-8zM367 176
q31 65 31 150v5l-62 -96l-79 -129l10 -1l11 -1q54 0 89 72zM321 638l223 110l10 -120l-226 -78z" />
    <glyph glyph-name="exclamdown" unicode="&#xa1;" horiz-adv-x="161" 
d="M106 -200h-143l112 442h126zM229 347h-136l35 153h136z" />
    <glyph glyph-name="exclamdown.case" horiz-adv-x="163" 
d="M148 -20h-143l112 442h126zM271 527h-136l35 153h136z" />
    <glyph glyph-name="quotesinglbase" unicode="&#x201a;" horiz-adv-x="150" 
d="M-66 -165l105 255h132l-137 -255h-100z" />
    <glyph glyph-name="parenleft.case" horiz-adv-x="234" 
d="M419 778q-220 -329 -220 -616q0 -140 16 -255h-128q-29 97 -29 255q0 198 118 427q59 114 118 189h125z" />
    <glyph glyph-name="parenright.case" horiz-adv-x="236" 
d="M-24 -88q220 329 220 616q0 140 -16 255h128q29 -97 29 -255q0 -198 -118 -427q-59 -114 -118 -189h-125z" />
    <glyph glyph-name="bracketleft.case" horiz-adv-x="245" 
d="M422 777l-28 -114h-88l-149 -641h88l-28 -114h-226l202 869h229z" />
    <glyph glyph-name="bracketright.case" horiz-adv-x="245" 
d="M-19 -92l28 114h88l149 641h-88l28 114h226l-202 -869h-229z" />
    <glyph glyph-name="braceleft.case" horiz-adv-x="288" 
d="M250 154l-9 -28q-4 -16 -7 -27q-7 -27 -7 -39q0 -48 58 -48l-31 -115q-73 0 -115 33q-44 33 -44 92q0 21 21 99q21 79 21 99q0 50 -67 85l24 95q61 16 83 36q17 15 26 51q7 24 29 146q25 84 79 119q52 33 154 37l-22 -115q-72 -6 -89 -72l-24 -126q-14 -57 -41 -87
q-26 -28 -78 -46q61 -34 61 -94q0 -19 -22 -95z" />
    <glyph glyph-name="braceright.case" horiz-adv-x="287" 
d="M196 529q22 76 22 94q0 48 -58 48l31 115q73 0 116 -32q43 -34 43 -93q0 -21 -21 -99q-21 -79 -21 -99q0 -50 67 -85l-24 -95q-61 -16 -83 -36q-17 -15 -26 -51q-7 -24 -29 -146q-25 -84 -79 -119q-52 -33 -154 -37l22 115q72 6 89 72l24 126q14 57 41 87q26 28 78 46
q-61 34 -61 94q0 19 23 95z" />
    <glyph glyph-name="glyph290" horiz-adv-x="513" 
d="M571 859l-61 -105l-227 77l66 119z" />
    <glyph glyph-name="glyph291" horiz-adv-x="462" 
d="M433 776h-92l-93 151h132l29 -57l53 57h131z" />
    <glyph glyph-name="glyph292" horiz-adv-x="456" 
d="M594 842q-64 -63 -114 -63q-17 0 -39 7q-15 4 -41 15q-53 21 -70 21q-25 0 -84 -39l-4 93q68 64 116 64q20 0 45 -7q18 -4 42 -14q52 -21 60 -21q25 0 87 38z" />
    <glyph glyph-name="glyph293" horiz-adv-x="410" 
d="M287 923h111l-32 -135h-110zM486 923h111l-33 -135h-109z" />
    <glyph glyph-name="glyph294" horiz-adv-x="462" 
d="M274 915h327l-25 -109h-327z" />
    <glyph glyph-name="glyph295" horiz-adv-x="462" 
d="M383 927q-6 -39 35 -39q38 0 53 39h122q-24 -71 -66 -105q-48 -39 -131 -39q-74 0 -109 38q-35 37 -26 106h122z" />
    <glyph glyph-name="glyph296" horiz-adv-x="338" 
d="M393 629q-42 -29 -102 -29q-58 0 -86 29q-30 31 -16 88q29 117 160 117q57 0 85 -27q31 -31 17 -90q-14 -57 -58 -88zM312 686q45 0 52 31q4 17 -10 25q-6 3 -14 5q-6 1 -13 1q-44 0 -52 -31q-7 -31 37 -31z" />
    <glyph glyph-name="glyph297" horiz-adv-x="689" 
d="M517 780l111 198l109 -45l-121 -193zM312 780l112 199l109 -45l-121 -193z" />
    <glyph glyph-name="glyph298" horiz-adv-x="255" 
d="M282 909h118l-34 -138h-116z" />
    <glyph glyph-name="Aringacute" unicode="&#x1fa;" horiz-adv-x="551" 
d="M313 666q-4 22 3 51q29 117 160 117q57 0 85 -27q31 -31 17 -90q-8 -30 -22 -50l-20 -667h-138l4 118h-198l-53 -118h-138zM345 963l264 91l10 -120l-264 -78zM256 238h151l14 322h-21zM439 686q45 0 52 31q4 17 -10 25q-6 3 -14 5q-6 1 -13 1q-44 0 -52 -31
q-7 -31 37 -31z" />
    <glyph glyph-name="Eng" unicode="&#x14a;" horiz-adv-x="651" 
d="M585 -6q-31 -136 -72 -170q-39 -34 -168 -34l23 120q42 2 56 14q16 14 29 70l1 6h-76l-44 543h-12l-127 -543h-130l157 680h219l36 -533h11l30 130l92 403h133l-33 -141h1z" />
    <glyph glyph-name="amacron" unicode="&#x101;" horiz-adv-x="528" 
d="M80 170q0 123 59 222q71 120 195 120q73 0 250 -33l-75 -323q-14 -62 -27 -153l-133 -5q9 61 13 78q-64 -88 -141 -88q-141 0 -141 182zM247 318q-31 -68 -31 -148q0 -68 51 -68q41 0 117 89l46 193q-66 14 -92 14q-56 0 -91 -80zM302 736h309l-26 -109h-308z" />
    <glyph glyph-name="abreve" unicode="&#x103;" horiz-adv-x="528" 
d="M80 170q0 123 59 222q71 120 195 120q73 0 250 -33l-75 -323q-14 -62 -27 -153l-133 -5q9 61 13 78q-64 -88 -141 -88q-141 0 -141 182zM247 318q-31 -68 -31 -148q0 -68 51 -68q41 0 117 89l46 193q-66 14 -92 14q-56 0 -91 -80zM356 702q-3 -37 36 -37q40 0 53 37h103
q-44 -132 -185 -132q-127 0 -109 132h102z" />
    <glyph glyph-name="aringacute" unicode="&#x1fb;" horiz-adv-x="528" 
d="M80 170q0 123 59 222q71 120 195 120q73 0 250 -33l-75 -323q-14 -62 -27 -153l-133 -5q9 61 13 78q-64 -88 -141 -88q-141 0 -141 182zM247 318q-31 -68 -31 -148q0 -68 51 -68q41 0 117 89l46 193q-66 14 -92 14q-56 0 -91 -80zM348 712q35 31 82 31q48 0 67 -31
q17 -30 6 -77q-12 -50 -47 -79t-82 -29t-66 32q-18 30 -6 77t46 76zM377 615q6 -9 19 -9q27 0 36 29q4 12 -4 20q-7 8 -18 8q-28 0 -36 -27q-4 -11 3 -21zM433 723l223 110l10 -120l-226 -78z" />
    <glyph glyph-name="aogonek" unicode="&#x105;" horiz-adv-x="528" 
d="M439 -203q-57 -11 -98 -11q-83 0 -83 77q0 35 32 77q24 32 59 61q1 3 2 14l2 10l2 12q5 30 7 39q-64 -88 -141 -88q-141 0 -141 182q0 123 59 222q71 120 195 120q73 0 250 -33l-75 -323q-14 -62 -27 -153l-10 -1q-22 -14 -44 -39q-26 -29 -26 -45q0 -14 13 -14q7 0 37 3
zM247 318q-31 -68 -31 -148q0 -68 51 -68q41 0 117 89l46 193q-66 14 -92 14q-56 0 -91 -80z" />
    <glyph glyph-name="aeacute" unicode="&#x1fd;" horiz-adv-x="714" 
d="M694 118l-23 -102q-91 -28 -187 -28q-102 0 -139 49q-26 -14 -81 -30q-62 -19 -95 -19q-63 0 -95 52q-32 50 -16 113q29 126 153 149q65 12 139 10q9 25 5 46q-5 28 -30 28q-70 0 -182 -14l21 117q127 22 196 22q84 0 114 -41q56 41 133 41q146 0 154 -133
q3 -45 -13 -101l-23 -85l-269 2q-5 -23 -2 -41q8 -44 68 -44q69 0 172 9zM317 116q-5 40 10 96q-13 0 -36 -1q-20 -1 -43 -3q-51 -4 -62 -51q-4 -19 2 -35q8 -19 28 -19q47 0 101 13zM629 294q10 38 5 64q-8 38 -57 38q-73 0 -98 -100zM425 638l223 110l10 -120l-226 -78z
" />
    <glyph glyph-name="cacute" unicode="&#x107;" horiz-adv-x="409" 
d="M492 481l-34 -98q-77 13 -121 13q-57 0 -90 -67q-29 -58 -29 -138q0 -87 76 -87q43 0 107 8l-11 -99q-73 -25 -145 -25q-74 0 -117 45q-46 47 -46 129q0 153 65 248q70 102 196 102q70 0 149 -31zM280 638l223 110l10 -120l-226 -78z" />
    <glyph glyph-name="ccircumflex" unicode="&#x109;" horiz-adv-x="409" 
d="M492 481l-34 -98q-77 13 -121 13q-57 0 -90 -67q-29 -58 -29 -138q0 -87 76 -87q43 0 107 8l-11 -99q-73 -25 -145 -25q-74 0 -117 45q-46 47 -46 129q0 153 65 248q70 102 196 102q70 0 149 -31zM357 728h80l86 -175h-122l-24 64l-58 -64h-130z" />
    <glyph glyph-name="ccaron" unicode="&#x10d;" horiz-adv-x="409" 
d="M327 575l-82 175h123l29 -66l53 66h129l-167 -175h-85zM492 481l-34 -98q-77 13 -121 13q-57 0 -90 -67q-29 -58 -29 -138q0 -87 76 -87q43 0 107 8l-11 -99q-73 -25 -145 -25q-74 0 -117 45q-46 47 -46 129q0 153 65 248q70 102 196 102q70 0 149 -31z" />
    <glyph glyph-name="cdotaccent" unicode="&#x10b;" horiz-adv-x="409" 
d="M492 481l-34 -98q-77 13 -121 13q-57 0 -90 -67q-29 -58 -29 -138q0 -87 76 -87q43 0 107 8l-11 -99q-73 -25 -145 -25q-74 0 -117 45q-46 47 -46 129q0 153 65 248q70 102 196 102q70 0 149 -31zM332 719h116l-32 -137h-116z" />
    <glyph glyph-name="dcaron" unicode="&#x10f;" horiz-adv-x="637" 
d="M744 429h-123l61 251h122zM473 0h-130l9 52q-56 -64 -128 -64q-144 0 -144 177q0 134 64 234q71 112 188 112q42 0 120 -21l49 210h134zM428 383q-58 14 -96 14q-52 0 -86 -81q-30 -71 -30 -150q0 -64 51 -64q37 0 113 72z" />
    <glyph glyph-name="dcroat" unicode="&#x111;" horiz-adv-x="528" 
d="M627 666h54l-28 -119h-54l-126 -547h-130l9 52q-56 -64 -128 -64q-144 0 -144 177q0 134 64 234q71 112 188 112q42 0 120 -21l13 57h-120l27 119h121l8 34h134zM428 383q-58 14 -96 14q-52 0 -86 -81q-30 -71 -30 -150q0 -64 51 -64q37 0 113 72z" />
    <glyph glyph-name="ecaron" unicode="&#x11b;" horiz-adv-x="476" 
d="M454 115l-15 -99q-93 -28 -189 -28q-169 0 -169 170q0 149 64 244q73 109 210 109q175 0 175 -149q0 -95 -67 -133q-61 -34 -210 -34h-35q-3 -12 -3 -34q0 -59 73 -59q68 0 166 13zM274 294q69 0 97 15q27 15 27 51q0 43 -50 43q-89 0 -115 -109h41zM323 575l-82 175h123
l29 -66l53 66h129l-167 -175h-85z" />
    <glyph glyph-name="emacron" unicode="&#x113;" horiz-adv-x="476" 
d="M454 115l-15 -99q-93 -28 -189 -28q-169 0 -169 170q0 149 64 244q73 109 210 109q175 0 175 -149q0 -95 -67 -133q-61 -34 -210 -34h-35q-3 -12 -3 -34q0 -59 73 -59q68 0 166 13zM274 294q69 0 97 15q27 15 27 51q0 43 -50 43q-89 0 -115 -109h41zM243 736h309
l-26 -109h-308z" />
    <glyph glyph-name="ebreve" unicode="&#x115;" horiz-adv-x="476" 
d="M454 115l-15 -99q-93 -28 -189 -28q-169 0 -169 170q0 149 64 244q73 109 210 109q175 0 175 -149q0 -95 -67 -133q-61 -34 -210 -34h-35q-3 -12 -3 -34q0 -59 73 -59q68 0 166 13zM274 294q69 0 97 15q27 15 27 51q0 43 -50 43q-89 0 -115 -109h41zM342 702
q-3 -37 36 -37q40 0 53 37h103q-44 -132 -185 -132q-127 0 -109 132h102z" />
    <glyph glyph-name="edotaccent" unicode="&#x117;" horiz-adv-x="476" 
d="M454 115l-15 -99q-93 -28 -189 -28q-169 0 -169 170q0 149 64 244q73 109 210 109q175 0 175 -149q0 -95 -67 -133q-61 -34 -210 -34h-35q-3 -12 -3 -34q0 -59 73 -59q68 0 166 13zM274 294q69 0 97 15q27 15 27 51q0 43 -50 43q-89 0 -115 -109h41zM337 719h116
l-32 -137h-116z" />
    <glyph glyph-name="eogonek" unicode="&#x119;" horiz-adv-x="476" 
d="M402 -183q-57 -11 -98 -11q-83 0 -83 77q0 46 56 106q-9 -1 -27 -1q-169 0 -169 170q0 149 64 244q73 109 210 109q175 0 175 -149q0 -95 -67 -133q-61 -34 -210 -34h-35q-3 -12 -3 -34q0 -59 73 -59q68 0 166 13l-15 -99q-9 -3 -20 -6q-21 -17 -36 -36q-18 -23 -18 -36
q0 -14 13 -14q7 0 37 3zM274 294q69 0 97 15q27 15 27 51q0 43 -50 43q-89 0 -115 -109h41z" />
    <glyph glyph-name="gcircumflex" unicode="&#x11d;" horiz-adv-x="484" 
d="M9 -93q0 47 40 84q27 24 82 51q-20 20 -20 53q0 45 60 96q-68 40 -68 125t56 140q58 56 151 56q49 0 121 -18l146 6l-25 -108h-58q4 -22 4 -51q0 -77 -59 -130q-60 -54 -150 -54q-25 0 -43 5q-15 -20 -15 -36q0 -12 22 -19q16 -5 72 -13q62 -9 96 -33q46 -32 46 -93
q0 -89 -64 -143q-65 -55 -177 -55q-217 0 -217 137zM247 -5l-12 2l-11 2q-26 5 -36 7q-20 -11 -37 -28q-20 -22 -20 -40q0 -56 92 -56q50 0 79 13q39 17 39 57q0 18 -19 27q-12 6 -49 12zM353 290q22 23 22 57q0 56 -70 56q-35 0 -57 -24q-22 -22 -22 -57q0 -56 70 -56
q35 0 57 24zM401 728h80l86 -175h-122l-24 64l-58 -64h-130z" />
    <glyph glyph-name="gbreve" unicode="&#x11f;" horiz-adv-x="484" 
d="M9 -93q0 47 40 84q27 24 82 51q-20 20 -20 53q0 45 60 96q-68 40 -68 125t56 140q58 56 151 56q49 0 121 -18l146 6l-25 -108h-58q4 -22 4 -51q0 -77 -59 -130q-60 -54 -150 -54q-25 0 -43 5q-15 -20 -15 -36q0 -12 22 -19q16 -5 72 -13q62 -9 96 -33q46 -32 46 -93
q0 -89 -64 -143q-65 -55 -177 -55q-217 0 -217 137zM247 -5l-12 2l-11 2q-26 5 -36 7q-20 -11 -37 -28q-20 -22 -20 -40q0 -56 92 -56q50 0 79 13q39 17 39 57q0 18 -19 27q-12 6 -49 12zM353 290q22 23 22 57q0 56 -70 56q-35 0 -57 -24q-22 -22 -22 -57q0 -56 70 -56
q35 0 57 24zM353 702q-3 -37 36 -37q40 0 53 37h103q-44 -132 -185 -132q-127 0 -109 132h102z" />
    <glyph glyph-name="gdotaccent" unicode="&#x121;" horiz-adv-x="484" 
d="M9 -93q0 47 40 84q27 24 82 51q-20 20 -20 53q0 45 60 96q-68 40 -68 125t56 140q58 56 151 56q49 0 121 -18l146 6l-25 -108h-58q4 -22 4 -51q0 -77 -59 -130q-60 -54 -150 -54q-25 0 -43 5q-15 -20 -15 -36q0 -12 22 -19q16 -5 72 -13q62 -9 96 -33q46 -32 46 -93
q0 -89 -64 -143q-65 -55 -177 -55q-217 0 -217 137zM247 -5l-12 2l-11 2q-26 5 -36 7q-20 -11 -37 -28q-20 -22 -20 -40q0 -56 92 -56q50 0 79 13q39 17 39 57q0 18 -19 27q-12 6 -49 12zM353 290q22 23 22 57q0 56 -70 56q-35 0 -57 -24q-22 -22 -22 -57q0 -56 70 -56
q35 0 57 24zM326 719h116l-32 -137h-116z" />
    <glyph glyph-name="uni0123" unicode="&#x123;" horiz-adv-x="484" 
d="M507 814l-98 -236h-123l107 236h114zM9 -93q0 47 40 84q27 24 82 51q-20 20 -20 53q0 45 60 96q-68 40 -68 125t56 140q58 56 151 56q49 0 121 -18l146 6l-25 -108h-58q4 -22 4 -51q0 -77 -59 -130q-60 -54 -150 -54q-25 0 -43 5q-15 -20 -15 -36q0 -12 22 -19
q16 -5 72 -13q62 -9 96 -33q46 -32 46 -93q0 -89 -64 -143q-65 -55 -177 -55q-217 0 -217 137zM247 -5l-12 2l-11 2q-26 5 -36 7q-20 -11 -37 -28q-20 -22 -20 -40q0 -56 92 -56q50 0 79 13q39 17 39 57q0 18 -19 27q-12 6 -49 12zM353 290q22 23 22 57q0 56 -70 56
q-35 0 -57 -24q-22 -22 -22 -57q0 -56 70 -56q35 0 57 24z" />
    <glyph glyph-name="hcircumflex" unicode="&#x125;" horiz-adv-x="513" 
d="M55 0l161 700h134l-56 -247q59 59 125 59q122 0 122 -141q0 -23 -8 -65q-3 -15 -7 -34l-3 -14q-1 -6 -3 -13l-56 -245h-134l54 235q3 11 5 23q4 16 6 29q7 36 7 51q0 31 -7 43q-8 15 -33 15q-31 0 -96 -60l-77 -336h-134zM299 1122h80l86 -175h-122l-24 64l-58 -64h-130z
" />
    <glyph glyph-name="hbar" unicode="&#x127;" horiz-adv-x="513" 
d="M152 646h51l13 54h134l-12 -54h123l-28 -116h-122l-17 -77q59 59 125 59q122 0 122 -141q0 -23 -8 -65q-3 -15 -7 -34l-3 -14q-1 -6 -3 -13l-56 -245h-134l54 235q3 11 5 23q4 16 6 29q7 36 7 51q0 31 -7 43q-8 15 -33 15q-31 0 -96 -60l-77 -336h-134l122 530h-52z" />
    <glyph glyph-name="itilde" unicode="&#x129;" horiz-adv-x="244" 
d="M170 500h134l-115 -500h-134zM438 628q-67 -64 -116 -64q-26 0 -71 22l-17 8l-15 7q-17 7 -27 7q-27 0 -86 -40l-3 92q67 65 115 65q31 0 76 -21l16 -8q10 -5 15 -7q15 -7 23 -7q24 0 86 39z" />
    <glyph glyph-name="imacron" unicode="&#x12b;" horiz-adv-x="243" 
d="M170 500h134l-115 -500h-134zM126 736h309l-26 -109h-308z" />
    <glyph glyph-name="ibreve" unicode="&#x12d;" horiz-adv-x="244" 
d="M170 500h134l-115 -500h-134zM223 702q-3 -37 36 -37q40 0 53 37h103q-44 -132 -185 -132q-127 0 -109 132h102z" />
    <glyph glyph-name="iogonek" unicode="&#x12f;" horiz-adv-x="243" 
d="M144 -203q-57 -11 -98 -11q-83 0 -83 77q0 35 32 78q24 33 60 61l115 498h134l-115 -500q-28 -14 -53 -38q-29 -27 -29 -44q0 -14 13 -14q7 0 37 3zM213 689h135l-31 -137h-136z" />
    <glyph glyph-name="jcircumflex" unicode="&#x135;" horiz-adv-x="243" 
d="M170 500h134l-115 -500q-24 -105 -55 -138q-32 -35 -162 -92l-42 107q77 40 96 59q18 18 29 64zM248 750h80l86 -175h-122l-24 64l-58 -64h-130z" />
    <glyph glyph-name="uni0137" unicode="&#x137;" horiz-adv-x="467" 
d="M171 -72h123l-107 -237h-113zM55 0l161 700h134l-90 -389l34 7l127 181h147l-174 -240l66 -259h-137l-48 207l-40 -6l-46 -201h-134z" />
    <glyph glyph-name="lacute" unicode="&#x13a;" horiz-adv-x="244" 
d="M216 700h134l-161 -700h-134zM86 1012l223 110l10 -120l-226 -78z" />
    <glyph glyph-name="lcaron" unicode="&#x13e;" horiz-adv-x="353" 
d="M460 429h-123l61 251h122zM216 700h134l-161 -700h-134z" />
    <glyph glyph-name="uni013C" unicode="&#x13c;" horiz-adv-x="244" 
d="M-51 -309h113l107 237h-123zM216 700h134l-161 -700h-134z" />
    <glyph glyph-name="nacute" unicode="&#x144;" horiz-adv-x="513" 
d="M55 0l115 500h128l-6 -49q61 61 127 61q122 0 122 -141q0 -22 -8 -64q-3 -16 -7 -34q-3 -13 -6 -28l-56 -245h-134l54 235q3 11 5 23q4 16 6 29q7 36 7 51q0 31 -7 43q-8 15 -34 15q-32 0 -95 -60l-77 -336h-134zM332 638l223 110l10 -120l-226 -78z" />
    <glyph glyph-name="ncaron" unicode="&#x148;" horiz-adv-x="513" 
d="M55 0l115 500h128l-6 -49q61 61 127 61q122 0 122 -141q0 -22 -8 -64q-3 -16 -7 -34q-3 -13 -6 -28l-56 -245h-134l54 235q3 11 5 23q4 16 6 29q7 36 7 51q0 31 -7 43q-8 15 -34 15q-32 0 -95 -60l-77 -336h-134zM344 575l-82 175h123l29 -66l53 66h129l-167 -175h-85z
" />
    <glyph glyph-name="uni0146" unicode="&#x146;" horiz-adv-x="513" 
d="M55 0l115 500h128l-6 -49q61 61 127 61q122 0 122 -141q0 -22 -8 -64q-3 -16 -7 -34q-3 -13 -6 -28l-56 -245h-134l54 235q3 11 5 23q4 16 6 29q7 36 7 51q0 31 -7 43q-8 15 -34 15q-32 0 -95 -60l-77 -336h-134zM193 -72h123l-107 -237h-113z" />
    <glyph glyph-name="omacron" unicode="&#x14d;" horiz-adv-x="496" 
d="M530 322q0 -128 -63 -225q-72 -109 -190 -109q-197 0 -197 189q0 126 67 225q73 109 186 109q197 0 197 -189zM366 174q31 65 31 150q0 73 -64 73q-54 0 -88 -72q-32 -65 -32 -150q0 -73 64 -73q54 0 89 72zM249 736h309l-26 -109h-308z" />
    <glyph glyph-name="obreve" unicode="&#x14f;" horiz-adv-x="496" 
d="M530 322q0 -128 -63 -225q-72 -109 -190 -109q-197 0 -197 189q0 126 67 225q73 109 186 109q197 0 197 -189zM366 174q31 65 31 150q0 73 -64 73q-54 0 -88 -72q-32 -65 -32 -150q0 -73 64 -73q54 0 89 72zM349 702q-3 -37 36 -37q40 0 53 37h103q-44 -132 -185 -132
q-127 0 -109 132h102z" />
    <glyph glyph-name="ohungarumlaut" unicode="&#x151;" horiz-adv-x="496" 
d="M530 322q0 -128 -63 -225q-72 -109 -190 -109q-197 0 -197 189q0 126 67 225q73 109 186 109q197 0 197 -189zM366 174q31 65 31 150q0 73 -64 73q-54 0 -88 -72q-32 -65 -32 -150q0 -73 64 -73q54 0 89 72zM381 628l156 190l89 -67l-164 -188zM188 628l155 189l89 -66
l-164 -188z" />
    <glyph glyph-name="racute" unicode="&#x155;" horiz-adv-x="334" 
d="M170 500h133l-18 -72q82 74 157 84l-39 -140q-49 -15 -141 -57l-73 -315h-134zM262 638l223 110l10 -120l-226 -78z" />
    <glyph glyph-name="uni0157" unicode="&#x157;" horiz-adv-x="334" 
d="M170 500h133l-18 -72q82 74 157 84l-39 -140q-49 -15 -141 -57l-73 -315h-134zM-44 -309h113l107 237h-123z" />
    <glyph glyph-name="rcaron" unicode="&#x159;" horiz-adv-x="334" 
d="M170 500h133l-18 -72q82 74 157 84l-39 -140q-49 -15 -141 -57l-73 -315h-134zM251 575l-82 175h123l29 -66l53 66h129l-167 -175h-85z" />
    <glyph glyph-name="sacute" unicode="&#x15b;" horiz-adv-x="432" 
d="M470 381q-103 16 -168 16q-62 0 -62 -49q0 -16 15 -25q13 -9 56 -22q74 -23 98 -43q35 -27 35 -80q0 -94 -64 -144q-59 -46 -161 -46q-97 0 -173 34l25 98q96 -18 163 -18q73 0 73 49q0 20 -62 38q-71 20 -101 44q-38 30 -38 80q0 93 64 148q58 50 144 50q106 0 180 -31z
M291 638l223 110l10 -120l-226 -78z" />
    <glyph glyph-name="scircumflex" unicode="&#x15d;" horiz-adv-x="432" 
d="M470 381q-103 16 -168 16q-62 0 -62 -49q0 -16 15 -25q13 -9 56 -22q74 -23 98 -43q35 -27 35 -80q0 -94 -64 -144q-59 -46 -161 -46q-97 0 -173 34l25 98q96 -18 163 -18q73 0 73 49q0 20 -62 38q-71 20 -101 44q-38 30 -38 80q0 93 64 148q58 50 144 50q106 0 180 -31z
M367 728h80l86 -175h-122l-24 64l-58 -64h-130z" />
    <glyph glyph-name="scedilla" unicode="&#x15f;" horiz-adv-x="434" 
d="M187 -229q-41 0 -84 11l20 81q30 -1 46 -1q36 0 42 24q6 20 -31 20h-22l18 84q-75 8 -129 32l25 98q96 -18 163 -18q73 0 73 49q0 20 -62 38q-71 20 -101 44q-38 30 -38 80q0 93 64 148q58 50 144 50q106 0 180 -31l-24 -99q-103 16 -168 16q-62 0 -62 -49q0 -16 15 -25
q13 -9 56 -22q74 -23 98 -43q35 -27 35 -80q0 -92 -62 -142q-57 -46 -156 -48l-6 -21h6q110 0 89 -91q-25 -105 -129 -105z" />
    <glyph glyph-name="uni0219" unicode="&#x219;" horiz-adv-x="432" 
d="M470 381q-103 16 -168 16q-62 0 -62 -49q0 -16 15 -25q13 -9 56 -22q74 -23 98 -43q35 -27 35 -80q0 -94 -64 -144q-59 -46 -161 -46q-97 0 -173 34l25 98q96 -18 163 -18q73 0 73 49q0 20 -62 38q-71 20 -101 44q-38 30 -38 80q0 93 64 148q58 50 144 50q106 0 180 -31z
M58 -309h113l107 237h-123z" />
    <glyph glyph-name="tcaron" unicode="&#x165;" horiz-adv-x="464" 
d="M571 429h-123l61 251h122zM292 386l-46 -200q-8 -34 -8 -56q0 -28 29 -28q26 0 68 5l-11 -96q-53 -23 -112 -23q-54 0 -85 32q-28 29 -28 76q0 40 15 102l44 188h-54l30 114h51l29 128h134l-29 -128h105l-28 -114h-104z" />
    <glyph glyph-name="uni021B" unicode="&#x21b;" horiz-adv-x="329" 
d="M292 386l-46 -200q-8 -34 -8 -56q0 -28 29 -28q26 0 68 5l-11 -96q-53 -23 -112 -23q-54 0 -85 32q-28 29 -28 76q0 40 15 102l44 188h-54l30 114h51l29 128h134l-29 -128h105l-28 -114h-104zM15 -309h113l107 237h-123z" />
    <glyph glyph-name="tbar" unicode="&#x167;" horiz-adv-x="332" 
d="M294 386l-16 -70h91l-25 -116h-93l-3 -14q-8 -34 -8 -56q0 -28 29 -28q26 0 68 5l-11 -96q-53 -23 -112 -23q-54 0 -85 32q-28 29 -28 76q0 40 15 102v2h-50l25 116h52l17 70h-54l30 114h51l29 128h134l-29 -128h105l-28 -114h-104z" />
    <glyph glyph-name="utilde" unicode="&#x169;" horiz-adv-x="513" 
d="M573 500l-115 -500h-128l6 49q-61 -61 -127 -61q-122 0 -122 141q0 22 8 65q3 16 7 34q3 14 6 27l56 245h134l-54 -235q-3 -11 -5 -23q-4 -16 -6 -29q-7 -36 -7 -51q0 -58 41 -58q32 0 95 60l77 336h134zM570 628q-67 -64 -116 -64q-26 0 -71 22l-17 8l-15 7q-17 7 -27 7
q-27 0 -86 -40l-3 92q67 65 115 65q31 0 76 -21l16 -8q10 -5 15 -7q15 -7 23 -7q24 0 86 39z" />
    <glyph glyph-name="umacron" unicode="&#x16b;" horiz-adv-x="513" 
d="M573 500l-115 -500h-128l6 49q-61 -61 -127 -61q-122 0 -122 141q0 22 8 65q3 16 7 34q3 14 6 27l56 245h134l-54 -235q-3 -11 -5 -23q-4 -16 -6 -29q-7 -36 -7 -51q0 -58 41 -58q32 0 95 60l77 336h134zM255 736h309l-26 -109h-308z" />
    <glyph glyph-name="ubreve" unicode="&#x16d;" horiz-adv-x="513" 
d="M573 500l-115 -500h-128l6 49q-61 -61 -127 -61q-122 0 -122 141q0 22 8 65q3 16 7 34q3 14 6 27l56 245h134l-54 -235q-3 -11 -5 -23q-4 -16 -6 -29q-7 -36 -7 -51q0 -58 41 -58q32 0 95 60l77 336h134zM354 702q-3 -37 36 -37q40 0 53 37h103q-44 -132 -185 -132
q-127 0 -109 132h102z" />
    <glyph glyph-name="uring" unicode="&#x16f;" horiz-adv-x="513" 
d="M345 712q35 31 82 31q48 0 67 -31q17 -30 6 -77q-12 -50 -47 -79t-82 -29t-66 32q-18 30 -6 77t46 76zM374 615q6 -9 19 -9q27 0 36 29q4 12 -4 20q-7 8 -18 8q-28 0 -36 -27q-4 -11 3 -21zM573 500l-115 -500h-128l6 49q-61 -61 -127 -61q-122 0 -122 141q0 22 8 65
q3 16 7 34q3 14 6 27l56 245h134l-54 -235q-3 -11 -5 -23q-4 -16 -6 -29q-7 -36 -7 -51q0 -58 41 -58q32 0 95 60l77 336h134z" />
    <glyph glyph-name="uhungarumlaut" unicode="&#x171;" horiz-adv-x="513" 
d="M573 500l-115 -500h-128l6 49q-61 -61 -127 -61q-122 0 -122 141q0 22 8 65q3 16 7 34q3 14 6 27l56 245h134l-54 -235q-3 -11 -5 -23q-4 -16 -6 -29q-7 -36 -7 -51q0 -58 41 -58q32 0 95 60l77 336h134zM386 628l156 190l89 -67l-164 -188zM193 628l155 189l89 -66
l-164 -188z" />
    <glyph glyph-name="uogonek" unicode="&#x173;" horiz-adv-x="513" 
d="M573 500l-115 -500q-23 -12 -47 -37q-28 -28 -28 -45q0 -14 13 -14q7 0 37 3l-13 -110q-57 -11 -98 -11q-83 0 -83 77q0 35 31 77q25 33 60 61l6 48q-61 -61 -127 -61q-122 0 -122 141q0 22 8 65q3 16 7 34q3 14 6 27l56 245h134l-54 -235q-3 -11 -5 -23q-4 -16 -6 -29
q-7 -36 -7 -51q0 -58 41 -58q32 0 95 60l77 336h134z" />
    <glyph glyph-name="wgrave" unicode="&#x1e81;" horiz-adv-x="762" 
d="M270 500l-32 -386h23l159 376h152l-20 -376h23l149 386h135l-204 -500h-223l19 311l-126 -311h-219l29 500h135zM611 634l-37 -79l-203 72l64 110z" />
    <glyph glyph-name="wacute" unicode="&#x1e83;" horiz-adv-x="762" 
d="M270 500l-32 -386h23l159 376h152l-20 -376h23l149 386h135l-204 -500h-223l19 311l-126 -311h-219l29 500h135zM454 638l223 110l10 -120l-226 -78z" />
    <glyph glyph-name="wcircumflex" unicode="&#x175;" horiz-adv-x="762" 
d="M270 500l-32 -386h23l159 376h152l-20 -376h23l149 386h135l-204 -500h-223l19 311l-126 -311h-219l29 500h135zM531 728h80l86 -175h-122l-24 64l-58 -64h-130z" />
    <glyph glyph-name="wdieresis" unicode="&#x1e85;" horiz-adv-x="762" 
d="M270 500l-32 -386h23l159 376h152l-20 -376h23l149 386h135l-204 -500h-223l19 311l-126 -311h-219l29 500h135zM387 736h111l-32 -135h-110zM581 736h111l-32 -135h-110z" />
    <glyph glyph-name="ygrave" unicode="&#x1ef3;" horiz-adv-x="464" 
d="M257 500l-14 -389h15l174 389h135l-332 -710h-133l103 210h-83l4 500h131zM460 634l-37 -79l-203 72l64 110z" />
    <glyph glyph-name="ycircumflex" unicode="&#x177;" horiz-adv-x="464" 
d="M257 500l-14 -389h15l174 389h135l-332 -710h-133l103 210h-83l4 500h131zM380 728h80l86 -175h-122l-24 64l-58 -64h-130z" />
    <glyph glyph-name="zacute" unicode="&#x17a;" horiz-adv-x="414" 
d="M151 500h345l-28 -111l-252 -275h192l-29 -114h-345l25 112l251 274h-188zM280 638l223 110l10 -120l-226 -78z" />
    <glyph glyph-name="zdotaccent" unicode="&#x17c;" horiz-adv-x="414" 
d="M122 386h188l-251 -274l-25 -112h345l29 114h-192l252 275l28 111h-345zM308 719h116l-32 -137h-116z" />
    <glyph glyph-name="infinity" unicode="&#x221e;" 
d="M94 291q0 172 137 172q75 0 116 -78q41 78 116 78q137 0 137 -171t-139 -171q-75 0 -114 77q-40 -77 -114 -77q-139 0 -139 170zM252 348q-36 0 -36 -57q0 -55 36 -55q20 0 50 56q-28 56 -50 56zM442 236q36 0 36 55q0 57 -36 57q-22 0 -50 -56q30 -56 50 -56z" />
    <glyph glyph-name="approxequal" unicode="&#x2248;" 
d="M555 316q-54 -51 -115 -51q-29 0 -109 22l-29 8q-16 4 -27 7q-28 7 -41 7q-48 0 -110 -39l-10 107q64 52 124 52q28 0 105 -22t100 -22q40 0 103 38zM555 96q-54 -51 -115 -51q-18 0 -49 7q-22 5 -60 15q-79 22 -97 22q-48 0 -110 -39l-10 107q64 52 124 52q28 0 105 -22
t100 -22q40 0 103 38z" />
    <glyph glyph-name="uni1EF9" unicode="&#x1ef9;" horiz-adv-x="464" 
d="M257 500l-14 -389h15l174 389h135l-332 -710h-133l103 210h-83l4 500h131zM548 628q-67 -64 -116 -64q-26 0 -71 22l-17 8l-15 7q-17 7 -27 7q-27 0 -86 -40l-3 92q67 65 115 65q31 0 76 -21l16 -8q10 -5 15 -7q15 -7 23 -7q24 0 86 39z" />
    <glyph glyph-name="uni1EB0" unicode="&#x1eb0;" horiz-adv-x="551" 
d="M663 1043l-56 -99l-229 79l64 110zM319 680h238l-21 -680h-138l4 118h-198l-53 -118h-138zM256 238h151l14 322h-21zM438 887q-6 -39 35 -39q38 0 53 39h122q-24 -71 -66 -105q-48 -39 -131 -39q-74 0 -109 38q-35 37 -26 106h122z" />
    <glyph glyph-name="uni1EF8" unicode="&#x1ef8;" horiz-adv-x="504" 
d="M381 288l-68 -288h-128l68 294l-95 386h140l48 -265l169 265h146zM611 809q-67 -64 -116 -64q-26 0 -71 22l-17 8l-15 7q-17 7 -27 7q-27 0 -86 -40l-3 92q67 65 115 65q31 0 76 -21l16 -8q10 -5 15 -7q15 -7 23 -7q24 0 86 39z" />
    <glyph glyph-name="uni1EC5" unicode="&#x1ec5;" horiz-adv-x="476" 
d="M607 814q-67 -64 -116 -64q-26 0 -71 22q-46 22 -59 22q-27 0 -86 -40l-3 92q67 65 115 65q19 0 40 -7q16 -5 36 -14q45 -22 54 -22q24 0 86 39zM454 115l-15 -99q-93 -28 -189 -28q-169 0 -169 170q0 149 64 244q73 109 210 109q175 0 175 -149q0 -95 -67 -133
q-61 -34 -210 -34h-35q-3 -12 -3 -34q0 -59 73 -59q68 0 166 13zM274 294q69 0 97 15q27 15 27 51q0 43 -50 43q-89 0 -115 -109h41zM372 720h80l86 -175h-122l-24 64l-58 -64h-130z" />
    <glyph glyph-name="uni1ED7" unicode="&#x1ed7;" horiz-adv-x="496" 
d="M530 322q0 -128 -63 -225q-72 -109 -190 -109q-197 0 -197 189q0 126 67 225q73 109 186 109q197 0 197 -189zM366 174q31 65 31 150q0 73 -64 73q-54 0 -88 -72q-32 -65 -32 -150q0 -73 64 -73q54 0 89 72zM601 814q-67 -64 -116 -64q-26 0 -71 22q-46 22 -59 22
q-27 0 -86 -40l-3 92q67 65 115 65q31 0 76 -21l16 -8q10 -5 15 -7q15 -7 23 -7q24 0 86 39zM370 720h80l86 -175h-122l-24 64l-58 -64h-130z" />
    <glyph glyph-name="uni1EAB" unicode="&#x1eab;" horiz-adv-x="528" 
d="M80 170q0 123 59 222q71 120 195 120q73 0 250 -33l-75 -323q-14 -62 -27 -153l-133 -5q9 61 13 78q-64 -88 -141 -88q-141 0 -141 182zM247 318q-31 -68 -31 -148q0 -68 51 -68q41 0 117 89l46 193q-66 14 -92 14q-56 0 -91 -80zM632 814q-67 -64 -116 -64q-26 0 -71 22
l-17 8l-15 7q-17 7 -27 7q-27 0 -86 -40l-3 92q67 65 115 65q31 0 76 -21l16 -8q10 -5 15 -7q15 -7 23 -7q24 0 86 39zM404 720h80l86 -175h-122l-24 64l-58 -64h-130z" />
    <glyph glyph-name="glyph370" horiz-adv-x="280" 
d="M388 665q24 -41 1 -133q-27 -109 -75 -143q-32 -22 -95 -22q-67 0 -88 35q-23 38 0 130q27 108 77 145q33 24 94 24q65 0 86 -36zM241 532q-11 -45 -10 -59q1 -11 12 -11t17 11q8 13 19 59q12 47 12 62q-1 12 -12 12q-19 0 -38 -74z" />
    <glyph glyph-name="glyph371" horiz-adv-x="280" 
d="M285 690h96l-77 -312h-106l48 195l-55 -32l-30 74z" />
    <glyph glyph-name="glyph372" horiz-adv-x="280" 
d="M108 378l22 90l88 59q54 36 60 57q4 15 -33 15q-22 0 -78 -6l21 99q75 9 120 9q61 0 81 -23q19 -23 5 -77q-15 -60 -81 -100l-45 -28h94l-23 -95h-231z" />
    <glyph glyph-name="glyph373" horiz-adv-x="280" 
d="M299 701q121 0 99 -89q-12 -52 -46 -70q31 -15 16 -73q-25 -102 -143 -102q-49 0 -119 8l29 93q60 -6 93 -6q29 0 33 16q4 14 -23 14h-66l21 85h64q20 0 24 14q4 15 -23 15q-37 0 -86 -5l17 91q70 9 110 9z" />
    <glyph glyph-name="glyph374" horiz-adv-x="280" 
d="M243 413h-135l22 88l89 189h118l-97 -182h27l37 90h91l-23 -90h11l-24 -95h-11l-8 -35h-105z" />
    <glyph glyph-name="glyph375" horiz-adv-x="280" 
d="M411 690l-22 -90h-124l-9 -25q29 6 45 6q93 0 69 -99q-29 -111 -146 -111q-52 0 -115 14l30 85q53 -9 90 -9q26 0 29 15q4 16 -10 16q-9 0 -27 -4l-75 11l58 191h207z" />
    <glyph glyph-name="glyph376" horiz-adv-x="280" 
d="M388 602q-65 6 -93 6q-33 0 -39 -26q23 5 39 5q104 0 78 -105q-30 -115 -148 -115q-132 0 -92 155q22 90 61 132q44 47 120 47q36 0 101 -12zM233 493q-7 -34 10 -34t22 21q6 21 -11 21q-12 0 -21 -8z" />
    <glyph glyph-name="glyph377" horiz-adv-x="280" 
d="M192 690h227l-25 -101l-150 -221l-121 21l139 183l3 13h-99z" />
    <glyph glyph-name="glyph378" horiz-adv-x="280" 
d="M404 611q-11 -45 -45 -71q27 -18 14 -68q-27 -105 -154 -105q-65 0 -90 23q-26 25 -12 82q11 45 49 69q-22 20 -9 71q22 89 145 89q124 0 102 -90zM265 474q1 6 -1 13t-5 12h-14q-14 -11 -18 -25q-7 -22 13 -22q18 0 25 22zM258 597q-1 -5 1 -13q1 -6 4 -12h14
q14 12 17 25q5 19 -13 19q-17 0 -23 -19z" />
    <glyph glyph-name="glyph379" horiz-adv-x="280" 
d="M140 468q48 -6 86 -6q18 0 28 8q8 6 10 15l-11 -2l-12 -1l-13 -1q-102 0 -76 104q30 116 148 116q132 0 90 -165q-23 -89 -59 -128q-41 -41 -114 -41q-48 0 -105 14zM290 569q10 39 -9 39q-15 0 -22 -23q-5 -22 11 -22q8 0 20 6z" />
    <glyph glyph-name="quotedblbase" unicode="&#x201e;" horiz-adv-x="347" 
d="M366 85l-105 -255h-132l137 255h100zM146 85l-105 -255h-132l137 255h100z" />
    <glyph glyph-name="guilsinglleft" unicode="&#x2039;" horiz-adv-x="232" 
d="M289 305l-113 -65l80 -77l-33 -120l-170 169l23 61l250 163z" />
    <glyph glyph-name="guilsinglright" unicode="&#x203a;" horiz-adv-x="234" 
d="M56 174l113 65l-80 77l33 120l170 -169l-23 -61l-250 -163z" />
    <glyph glyph-name="guillemotleft" unicode="&#xab;" horiz-adv-x="482" 
d="M539 305l-113 -65l80 -77l-33 -120l-170 169l23 61l250 163zM289 305l-113 -65l80 -77l-33 -120l-170 169l23 61l250 163z" />
    <glyph glyph-name="guillemotright" unicode="&#xbb;" horiz-adv-x="474" 
d="M296 174l113 65l-80 77l33 120l170 -169l-23 -61l-250 -163zM56 174l113 65l-80 77l33 120l170 -169l-23 -61l-250 -163z" />
    <glyph glyph-name="slash" unicode="/" horiz-adv-x="468" 
d="M37 20l431 698l126 -44l-431 -698z" />
    <glyph glyph-name="b" unicode="b" horiz-adv-x="527" 
d="M531 461q31 -42 31 -112q0 -157 -68 -256q-72 -104 -192 -104q-108 0 -244 33l156 678h134l-55 -239q59 51 119 51q81 0 119 -51zM397 191q28 68 28 144q0 27 -10 42q-13 21 -43 21q-44 0 -105 -50l-54 -235q44 -10 87 -10q61 0 97 88z" />
    <glyph glyph-name="c" unicode="c" horiz-adv-x="409" 
d="M492 481l-34 -98q-77 13 -121 13q-57 0 -90 -67q-29 -58 -29 -138q0 -87 76 -87q43 0 107 8l-11 -99q-73 -25 -145 -25q-74 0 -117 45q-46 47 -46 129q0 153 65 248q70 102 196 102q70 0 149 -31z" />
    <glyph glyph-name="e" unicode="e" horiz-adv-x="476" 
d="M454 115l-15 -99q-93 -28 -189 -28q-169 0 -169 170q0 149 64 244q73 109 210 109q175 0 175 -149q0 -95 -67 -133q-61 -34 -210 -34h-35q-3 -12 -3 -34q0 -59 73 -59q68 0 166 13zM274 294q69 0 97 15q27 15 27 51q0 43 -50 43q-89 0 -115 -109h41z" />
    <glyph glyph-name="f" unicode="f" horiz-adv-x="328" 
d="M210 0l-63 -211h-121l140 595h-46l28 116h43l5 20q24 105 61 147q40 45 121 45q46 0 95 -23l-24 -98q-35 7 -65 7q-23 0 -36 -24q-8 -15 -18 -55l-5 -19h105l-28 -114h-102z" />
    <glyph glyph-name="i" unicode="i" horiz-adv-x="243" 
d="M170 500h134l-115 -500h-134zM213 689h135l-31 -137h-136z" />
    <glyph glyph-name="j" unicode="j" horiz-adv-x="243" 
d="M170 500h134l-115 -500q-24 -105 -55 -138q-32 -35 -162 -92l-42 107q77 40 96 59q18 18 29 64zM211 680h135l-31 -137h-136z" />
    <glyph glyph-name="k" unicode="k" horiz-adv-x="467" 
d="M55 0l161 700h134l-90 -389l34 7l127 181h147l-174 -240l66 -259h-137l-48 207l-40 -6l-46 -201h-134z" />
    <glyph glyph-name="l" unicode="l" horiz-adv-x="244" 
d="M216 700h134l-161 -700h-134z" />
    <glyph glyph-name="m" unicode="m" horiz-adv-x="776" 
d="M329 0l54 235q3 11 5 23q4 16 6 29q7 36 7 51q0 58 -41 58q-32 0 -94 -60l-77 -336h-134l115 500h128l-5 -48q57 60 130 60q53 0 84 -35q15 -18 20 -36q79 71 156 71q120 0 120 -141q0 -24 -7 -65q-5 -31 -12 -61l-56 -245h-134l56 235q3 12 5 23q4 15 6 28q7 34 7 48
q0 62 -37 62t-97 -58q-7 -60 -15 -93l-56 -245h-134z" />
    <glyph glyph-name="p" unicode="p" horiz-adv-x="527" 
d="M170 500h131l-10 -52q61 64 127 64q73 0 110 -49q35 -44 35 -121q0 -139 -64 -240q-71 -113 -188 -113q-47 0 -121 21l-51 -220h-132zM263 326l-48 -209q58 -14 96 -14q52 0 86 81q30 71 30 150q0 64 -51 64q-37 0 -113 -72z" />
    <glyph glyph-name="q" unicode="q" horiz-adv-x="526" 
d="M116 35q-36 45 -36 127q0 139 65 239q72 110 187 110q85 0 251 -33l-158 -688h-134l61 263q-56 -65 -128 -65q-70 0 -108 47zM247 319q-31 -71 -31 -153q0 -64 51 -64q37 0 113 72l48 209q-59 14 -97 14q-49 0 -84 -78z" />
    <glyph glyph-name="r" unicode="r" horiz-adv-x="334" 
d="M170 500h133l-18 -72q82 74 157 84l-39 -140q-49 -15 -141 -57l-73 -315h-134z" />
    <glyph glyph-name="t" unicode="t" horiz-adv-x="329" 
d="M292 386l-46 -200q-8 -34 -8 -56q0 -28 29 -28q26 0 68 5l-11 -96q-53 -23 -112 -23q-54 0 -85 32q-28 29 -28 76q0 40 15 102l44 188h-54l30 114h51l29 128h134l-29 -128h105l-28 -114h-104z" />
    <glyph glyph-name="u" unicode="u" horiz-adv-x="513" 
d="M573 500l-115 -500h-128l6 49q-61 -61 -127 -61q-122 0 -122 141q0 22 8 65q3 16 7 34q3 14 6 27l56 245h134l-54 -235q-3 -11 -5 -23q-4 -16 -6 -29q-7 -36 -7 -51q0 -58 41 -58q32 0 95 60l77 336h134z" />
    <glyph glyph-name="v" unicode="v" horiz-adv-x="463" 
d="M257 500l-14 -389h18l171 389h135l-235 -500h-210l4 500h131z" />
    <glyph glyph-name="w" unicode="w" horiz-adv-x="762" 
d="M270 500l-32 -386h23l159 376h152l-20 -376h23l149 386h135l-204 -500h-223l19 311l-126 -311h-219l29 500h135z" />
    <glyph glyph-name="x" unicode="x" horiz-adv-x="430" 
d="M260 500l39 -153l104 153h136l-197 -260l80 -240h-136l-39 147l-102 -147h-139l196 250l-78 250h136z" />
    <glyph glyph-name="y" unicode="y" horiz-adv-x="464" 
d="M257 500l-14 -389h15l174 389h135l-332 -710h-133l103 210h-83l4 500h131z" />
    <glyph glyph-name="z" unicode="z" horiz-adv-x="414" 
d="M151 500h345l-28 -111l-252 -275h192l-29 -114h-345l25 112l251 274h-188z" />
    <glyph glyph-name="d" unicode="d" horiz-adv-x="528" 
d="M473 0h-130l9 52q-56 -64 -128 -64q-144 0 -144 177q0 134 64 234q71 112 188 112q42 0 120 -21l49 210h134zM428 383q-58 14 -96 14q-52 0 -86 -81q-30 -71 -30 -150q0 -64 51 -64q37 0 113 72z" />
    <glyph glyph-name="uniF6BE" unicode="&#xf6be;" horiz-adv-x="244" 
d="M170 500h134l-115 -500q-24 -105 -55 -138q-32 -35 -162 -92l-42 107q77 40 96 59q18 18 29 64z" />
    <glyph glyph-name="Eth" unicode="&#xd0;" horiz-adv-x="613" 
d="M73 0l63 275h-53l29 136h56l62 269h214q224 0 224 -207q0 -189 -84 -321q-97 -152 -267 -152h-244zM416 560h-76l-34 -149h109l-30 -136h-111l-35 -155h90q97 0 153 130q44 104 44 223q0 87 -110 87z" />
    <glyph glyph-name="radical" unicode="&#x221a;" 
d="M101 440h166l92 -456h13l163 807h136l-200 -921h-214l-102 450h-54v120z" />
    <glyph glyph-name="product" unicode="&#x220f;" 
d="M429 640h-113v-820h-138v820h-53v120h499v-120h-57v-820h-138v820z" />
    <glyph glyph-name="lozenge" unicode="&#x25ca;" 
d="M119 324l149 336h175l148 -336l-148 -324h-175zM458 324l-94 222h-17l-95 -222l95 -210h17z" />
    <glyph glyph-name="glyph411" 
d="M516 653l95 146l84 -32l-110 -167q41 -52 41 -142q0 -195 -74 -321q-88 -149 -254 -149q-54 0 -100 22l-87 -133l-81 30l102 157q-45 57 -45 144q0 215 97 343q90 121 227 121q58 0 105 -19zM275 442q-39 -90 -39 -219l203 312q-16 10 -42 10q-77 0 -122 -103zM436 223
q39 92 40 210l-202 -307q17 -11 39 -11q77 0 123 108z" />
    <glyph glyph-name="integral" unicode="&#x222b;" 
d="M416 -16q0 -183 -149 -183q-39 0 -97 13l4 110q25 -3 53 -3q29 0 40 14q11 15 11 52v606q0 106 33 148q33 40 116 40q38 0 105 -14l-4 -110q-32 4 -64 4q-28 0 -38 -16q-10 -15 -10 -53v-608z" />
    <glyph glyph-name="partialdiff" unicode="&#x2202;" 
d="M162 667q85 45 181 45q135 0 197 -90q59 -88 59 -275q0 -183 -59 -268q-61 -88 -196 -88q-235 0 -235 225q0 106 57 164t162 58q68 0 127 -24q-6 105 -33 143q-29 41 -102 41t-154 -34zM253 216q0 -111 91 -111q111 0 111 197q-38 22 -110 22q-92 0 -92 -108z" />
    <glyph glyph-name="zero" unicode="0" 
d="M617 460q0 -212 -88 -344q-85 -128 -218 -128q-216 0 -216 212t88 344q85 128 218 128q216 0 216 -212zM279 438q-43 -103 -43 -220q0 -59 16 -84q17 -28 61 -28q71 0 120 116q43 102 43 218q0 60 -16 86q-17 28 -62 28q-70 0 -119 -116z" />
    <glyph glyph-name="one" unicode="1" 
d="M449 660h119l-152 -660h-137l115 498l-163 -90l-37 108z" />
    <glyph glyph-name="three" unicode="3" 
d="M212 631q89 41 189 41q103 0 151 -34t48 -109q0 -68 -27 -109q-26 -39 -93 -73q36 -21 49 -45q14 -27 14 -79q0 -105 -78 -170t-206 -65q-98 0 -200 36l29 94q114 -12 183 -12q55 0 91 28q40 31 40 83q0 29 -18 41q-19 13 -68 14l-126 2l25 102l129 6q39 2 76 34
q39 34 39 76q0 62 -90 62q-78 0 -171 -13z" />
    <glyph glyph-name="seven" unicode="7" 
d="M224 660h412l-40 -173l-354 -505l-125 36l347 483l8 41h-275z" />
    <glyph glyph-name="eight" unicode="8" 
d="M589 633q49 -37 49 -93q0 -74 -32 -122q-25 -39 -83 -78q52 -39 52 -123q0 -101 -91 -167q-88 -64 -215 -64q-109 0 -158 43q-46 41 -46 125q0 57 46 112q18 22 42 43q20 16 42 31q-30 30 -38 56q-3 10 -4 22v21q0 94 75 161q82 73 213 73q94 0 148 -40zM393 138
q37 32 37 73q0 46 -43 64h-88q-85 -30 -85 -95q0 -41 19 -59q20 -17 67 -17q54 0 93 34zM328 523q-34 -31 -34 -68q0 -24 7 -37q6 -12 26 -29h88q30 17 52 44q23 29 23 53q0 69 -79 69q-47 0 -83 -32z" />
    <glyph glyph-name="fraction" unicode="&#x2044;" horiz-adv-x="73" 
d="M-158 12l431 698l126 -44l-431 -698z" />
    <glyph glyph-name="glyph420" horiz-adv-x="906" 
d="M964 678q78 -112 28 -303q-43 -165 -99 -234q-58 -71 -154 -71q-84 0 -113 44q-33 -16 -87 -30q-60 -16 -102 -16q-94 0 -126 85q-27 69 -7 169q54 270 252 270q48 0 244 -33q-2 -8 -5 -23q-4 -18 -9 -39q-12 -55 -23 -104q-31 -143 -34 -163q-4 -33 40 -33q29 0 52 43
q23 42 50 147q37 147 -6 217q-56 91 -258 91q-318 0 -400 -344q-37 -156 24 -253q70 -113 258 -113q38 0 137 9l-26 -111q-97 -10 -142 -10q-227 0 -329 148q-93 135 -46 330q58 243 193 352q129 104 351 104q247 0 337 -129zM536 194q32 10 58 26q2 23 20 105q7 32 16 72
q8 32 16 67q-10 2 -21 4l-25 5q-30 5 -45 5q-81 0 -116 -156q-14 -61 -5 -99q9 -40 38 -41q28 -1 64 12z" />
    <glyph glyph-name="onequarter" unicode="&#xbc;" horiz-adv-x="634" 
d="M282 790h96l-77 -312h-106l48 195l-55 -32l-30 74zM102 20l431 698l126 -44l-431 -698zM524 35h-135l22 88l89 189h118l-97 -182h27l37 90h91l-23 -90h11l-24 -95h-11l-8 -35h-105z" />
    <glyph glyph-name="uni2080" unicode="&#x2080;" horiz-adv-x="280" 
d="M303 287q24 -41 1 -133q-27 -109 -75 -143q-32 -22 -95 -22q-67 0 -88 35q-23 38 0 130q27 108 77 145q33 24 94 24q65 0 86 -36zM156 154q-11 -45 -10 -59q1 -11 12 -11t17 11q8 13 19 59q12 47 12 62q-1 12 -12 12q-19 0 -38 -74z" />
    <glyph glyph-name="uni2081" unicode="&#x2081;" horiz-adv-x="280" 
d="M189 212h96l-77 -312h-106l48 195l-55 -32l-30 74z" />
    <glyph glyph-name="uni2082" unicode="&#x2082;" horiz-adv-x="280" 
d="M-4 -100l22 90l88 59q54 36 60 57q4 15 -33 15q-22 0 -78 -6l21 99q75 9 120 9q61 0 81 -23q19 -23 5 -77q-15 -60 -81 -100l-45 -28h94l-23 -95h-231z" />
    <glyph glyph-name="uni2083" unicode="&#x2083;" horiz-adv-x="280" 
d="M184 223q121 0 99 -89q-12 -52 -46 -70q31 -15 16 -73q-25 -102 -143 -102q-49 0 -119 8l29 93q60 -6 93 -6q29 0 33 16q4 14 -23 14h-66l21 85h64q20 0 24 14q4 15 -23 15q-37 0 -86 -5l17 91q70 9 110 9z" />
    <glyph glyph-name="uni2084" unicode="&#x2084;" horiz-adv-x="280" 
d="M133 -65h-135l22 88l89 189h118l-97 -182h27l37 90h91l-23 -90h11l-24 -95h-11l-8 -35h-105z" />
    <glyph glyph-name="uni2085" unicode="&#x2085;" horiz-adv-x="280" 
d="M296 212l-22 -90h-124l-9 -25q29 6 45 6q93 0 69 -99q-29 -111 -146 -111q-52 0 -115 14l30 85q53 -9 90 -9q26 0 29 15q4 16 -10 16q-9 0 -27 -4l-75 11l58 191h207z" />
    <glyph glyph-name="uni2086" unicode="&#x2086;" horiz-adv-x="280" 
d="M280 124q-65 6 -93 6q-33 0 -39 -26q23 5 39 5q104 0 78 -105q-30 -115 -148 -115q-132 0 -92 155q22 90 61 132q44 47 120 47q36 0 101 -12zM125 15q-7 -34 10 -34t22 21q6 21 -11 21q-12 0 -21 -8z" />
    <glyph glyph-name="uni2087" unicode="&#x2087;" horiz-adv-x="280" 
d="M76 212h227l-25 -101l-150 -221l-121 21l139 183l3 13h-99z" />
    <glyph glyph-name="uni2088" unicode="&#x2088;" horiz-adv-x="280" 
d="M295 133q-11 -45 -45 -71q27 -18 14 -68q-27 -105 -154 -105q-65 0 -90 23q-26 25 -12 82q11 45 49 69q-22 20 -9 71q22 89 145 89q124 0 102 -90zM156 -4q1 6 -1 13t-5 12h-14q-14 -11 -18 -25q-7 -22 13 -22q18 0 25 22zM149 119q-1 -5 1 -13q1 -6 4 -12h14
q14 12 17 25q5 19 -13 19q-17 0 -23 -19z" />
    <glyph glyph-name="uni2089" unicode="&#x2089;" horiz-adv-x="280" 
d="M27 -10q48 -6 86 -6q18 0 28 8q8 6 10 15l-11 -2l-12 -1l-13 -1q-102 0 -76 104q30 116 148 116q132 0 90 -165q-23 -89 -59 -128q-41 -41 -114 -41q-48 0 -105 14zM177 91q10 39 -9 39q-15 0 -22 -23q-5 -22 11 -22q8 0 20 6z" />
    <glyph glyph-name="glyph432" horiz-adv-x="280" 
d="M281 187q24 -41 1 -133q-27 -109 -75 -143q-32 -22 -95 -22q-67 0 -88 35q-23 38 0 130q27 108 77 145q33 24 94 24q65 0 86 -36zM134 54q-11 -45 -10 -59q1 -11 12 -11t17 11q8 13 19 59q12 47 12 62q-1 12 -12 12q-19 0 -38 -74z" />
    <glyph glyph-name="glyph433" horiz-adv-x="280" 
d="M180 212h96l-77 -312h-106l48 195l-55 -32l-30 74z" />
    <glyph glyph-name="glyph434" horiz-adv-x="280" 
d="M1 -100l22 90l88 59q54 36 60 57q4 15 -33 15q-22 0 -78 -6l21 99q75 9 120 9q61 0 81 -23q19 -23 5 -77q-15 -60 -81 -100l-45 -28h94l-23 -95h-231z" />
    <glyph glyph-name="glyph435" horiz-adv-x="280" 
d="M185 223q121 0 99 -89q-12 -52 -46 -70q31 -15 16 -73q-25 -102 -143 -102q-49 0 -119 8l29 93q60 -6 93 -6q29 0 33 16q4 14 -23 14h-66l21 85h64q20 0 24 14q4 15 -23 15q-37 0 -86 -5l17 91q70 9 110 9z" />
    <glyph glyph-name="glyph436" horiz-adv-x="280" 
d="M136 -65h-135l22 88l89 189h118l-97 -182h27l37 90h91l-23 -90h11l-24 -95h-11l-8 -35h-105z" />
    <glyph glyph-name="glyph437" horiz-adv-x="280" 
d="M296 212l-22 -90h-124l-9 -25q29 6 45 6q93 0 69 -99q-29 -111 -146 -111q-52 0 -115 14l30 85q53 -9 90 -9q26 0 29 15q4 16 -10 16q-9 0 -27 -4l-75 11l58 191h207z" />
    <glyph glyph-name="glyph438" horiz-adv-x="280" 
d="M277 124q-65 6 -93 6q-33 0 -39 -26q23 5 39 5q104 0 78 -105q-30 -115 -148 -115q-132 0 -92 155q22 90 61 132q44 47 120 47q36 0 101 -12zM122 15q-7 -34 10 -34t22 21q6 21 -11 21q-12 0 -21 -8z" />
    <glyph glyph-name="glyph439" horiz-adv-x="280" 
d="M75 212h227l-25 -101l-150 -221l-121 21l139 183l3 13h-99z" />
    <glyph glyph-name="glyph440" horiz-adv-x="280" 
d="M296 133q-11 -45 -45 -71q27 -18 14 -68q-27 -105 -154 -105q-65 0 -90 23q-26 25 -12 82q11 45 49 69q-22 20 -9 71q22 89 145 89q124 0 102 -90zM157 -4q1 6 -1 13t-5 12h-14q-14 -11 -18 -25q-7 -22 13 -22q18 0 25 22zM150 119q-1 -5 1 -13q1 -6 4 -12h14
q14 12 17 25q5 19 -13 19q-17 0 -23 -19z" />
    <glyph glyph-name="glyph441" horiz-adv-x="280" 
d="M28 -10q48 -6 86 -6q18 0 28 8q8 6 10 15l-11 -2l-12 -1l-13 -1q-102 0 -76 104q30 116 148 116q132 0 90 -165q-23 -89 -59 -128q-41 -41 -114 -41q-48 0 -105 14zM178 91q10 39 -9 39q-15 0 -22 -23q-5 -22 11 -22q8 0 20 6z" />
    <glyph glyph-name="onehalf" unicode="&#xbd;" horiz-adv-x="647" 
d="M282 790h96l-77 -312h-106l48 195l-55 -32l-30 74zM102 20l431 698l126 -44l-431 -698zM411 0l22 90l88 59q54 36 60 57q4 15 -33 15q-22 0 -78 -6l21 99q75 9 120 9q61 0 81 -23q19 -23 5 -77q-15 -60 -81 -100l-45 -28h94l-23 -95h-231z" />
    <glyph glyph-name="threequarters" unicode="&#xbe;" horiz-adv-x="631" 
d="M301 801q121 0 99 -89q-12 -52 -46 -70q31 -15 16 -73q-25 -102 -143 -102q-49 0 -119 8l29 93q60 -6 93 -6q29 0 33 16q4 14 -23 14h-66l21 85h64q20 0 24 14q4 15 -23 15q-37 0 -86 -5l17 91q70 9 110 9zM99 20l431 698l126 -44l-431 -698zM521 35h-135l22 88l89 189
h118l-97 -182h27l37 90h91l-23 -90h11l-24 -95h-11l-8 -35h-105z" />
    <glyph glyph-name="two" unicode="2" 
d="M63 0l27 112l199 173q96 83 130 121q42 47 42 79q0 39 -20 54q-21 15 -78 15q-68 0 -158 -15l18 100q96 33 181 33q102 0 150 -37t48 -116q0 -83 -46 -146q-35 -49 -124 -117l-182 -138h267l-29 -118h-425z" />
    <glyph glyph-name="four" unicode="4" 
d="M349 112h-279l23 100l276 448h150l-279 -434h135l41 178h136l-41 -178h61l-27 -114h-60l-27 -117h-136z" />
    <glyph glyph-name="five" unicode="5" 
d="M641 661l-27 -118h-284l-59 -156q71 31 115 31q174 0 174 -160q0 -118 -75 -195q-75 -75 -188 -75q-118 0 -235 43l31 104q116 -29 191 -29q57 0 97 37q38 35 38 85q0 72 -78 72q-50 0 -104 -21l-100 23l111 359h393z" />
    <glyph glyph-name="thorn" unicode="&#xfe;" horiz-adv-x="495" 
d="M528 424q23 -69 -5 -169q-41 -150 -106 -210q-60 -57 -169 -57q-25 0 -49 2q-22 1 -22 3l-47 -201h-126l214 906h126l-53 -229l3 2l3 2l4 3q5 4 10 7l14 7q37 21 69 21q105 0 134 -87zM206 113l67 -6q83 0 121 148q6 22 8 42q3 25 0 43q-8 48 -53 48q-11 0 -27 -6
q-13 -5 -28 -14l-13 -7l-5 -3l-5 -3l-9 -5z" />
    <glyph glyph-name="eng" unicode="&#x14b;" horiz-adv-x="502" 
d="M52 0l118 499h127l-12 -47l12 9l13 10q17 11 31 19q38 21 70 21q100 0 116 -89q11 -59 -13 -161l-61 -254q-24 -101 -68 -151q-47 -53 -159 -102l-32 114q76 38 98 61q22 22 34 73l62 259q13 53 9 88q-5 37 -42 37q-31 0 -96 -44l-80 -342h-127z" />
    <glyph glyph-name="glyph449" horiz-adv-x="267" 
d="M90 355h253l-30 -120h-253z" />
    <glyph glyph-name="uni0162" unicode="&#x162;" horiz-adv-x="456" 
d="M212 -229q-41 0 -84 11l20 81q30 -1 46 -1q36 0 42 24q6 20 -31 20h-22l21 94h-46l129 560h-149l28 120h438l-28 -120h-151l-129 -560h-41l-9 -33h6q110 0 89 -91q-25 -105 -129 -105z" />
    <glyph glyph-name="uni0163" unicode="&#x163;" horiz-adv-x="329" 
d="M175 -229q-41 0 -84 11l20 81q30 -1 46 -1q36 0 42 24q6 20 -31 20h-22l20 90q-67 22 -67 100q0 40 15 102l44 188h-54l30 114h51l29 128h134l-29 -128h105l-28 -114h-104l-46 -200q-8 -34 -8 -56q0 -28 29 -28q26 0 68 5l-11 -96q-51 -22 -109 -23l-6 -21h6
q110 0 89 -91q-25 -105 -129 -105z" />
    <glyph glyph-name="glyph452" horiz-adv-x="528" 
d="M289 871l264 91l10 -120l-264 -77z" />
    <glyph glyph-name="glyph453" horiz-adv-x="462" 
d="M389 931h80l96 -152h-122l-26 55l-62 -55h-142z" />
    <glyph glyph-name="uni1EA0" unicode="&#x1ea0;" horiz-adv-x="551" 
d="M319 680h238l-21 -680h-138l4 118h-198l-53 -118h-138zM256 238h151l14 322h-21zM187 -83h135l-25 -127h-135z" />
    <glyph glyph-name="uni1EA2" unicode="&#x1ea2;" horiz-adv-x="551" 
d="M319 680h238l-21 -680h-138l4 118h-198l-53 -118h-138zM256 238h151l14 322h-21zM493 781q-42 -20 -75 -25l-17 71q11 5 28 13q37 17 30 41q-6 19 -44 1l-23 -11l-20 60l35 18q82 36 112 34q38 -3 52 -50q31 -101 -78 -152z" />
    <glyph glyph-name="uni1EA4" unicode="&#x1ea4;" horiz-adv-x="551" 
d="M319 680h238l-21 -680h-138l4 118h-198l-53 -118h-138zM256 238h151l14 322h-21zM440 910h80l86 -175h-122l-24 64l-58 -64h-130zM371 1019l223 110l10 -120l-226 -78z" />
    <glyph glyph-name="uni1EA6" unicode="&#x1ea6;" horiz-adv-x="551" 
d="M319 680h238l-21 -680h-138l4 118h-198l-53 -118h-138zM256 238h151l14 322h-21zM441 911h80l86 -175h-122l-24 64l-58 -64h-130zM653 1023l-37 -79l-203 72l64 110z" />
    <glyph glyph-name="uni1EA8" unicode="&#x1ea8;" horiz-adv-x="551" 
d="M319 680h238l-21 -680h-138l4 118h-198l-53 -118h-138zM256 238h151l14 322h-21zM440 911h80l86 -175h-122l-24 64l-58 -64h-130zM698 853q-42 -20 -75 -25l-17 71q11 5 28 13q37 17 30 41q-6 19 -44 1l-23 -11l-20 60l35 18q82 36 112 34q38 -3 52 -50q31 -101 -78 -152
z" />
    <glyph glyph-name="uni1EAA" unicode="&#x1eaa;" horiz-adv-x="551" 
d="M319 680h238l-21 -680h-138l4 118h-198l-53 -118h-138zM256 238h151l14 322h-21zM442 911h80l86 -175h-122l-24 64l-58 -64h-130zM714 1018q-67 -64 -116 -64q-26 0 -71 22l-17 8l-15 7q-17 7 -27 7q-27 0 -86 -40l-3 92q67 65 115 65q31 0 76 -21l16 -8q10 -5 15 -7
q15 -7 23 -7q24 0 86 39z" />
    <glyph glyph-name="uni1EAC" unicode="&#x1eac;" horiz-adv-x="551" 
d="M319 680h238l-21 -680h-138l4 118h-198l-53 -118h-138zM256 238h151l14 322h-21zM466 909h80l86 -175h-122l-24 64l-58 -64h-130zM187 -83h135l-25 -127h-135z" />
    <glyph glyph-name="uni1EAE" unicode="&#x1eae;" horiz-adv-x="551" 
d="M319 680h238l-21 -680h-138l4 118h-198l-53 -118h-138zM256 238h151l14 322h-21zM428 868q-3 -37 36 -37q40 0 53 37h103q-44 -132 -185 -132q-127 0 -109 132h102zM368 1009l223 110l10 -120l-226 -78z" />
    <glyph glyph-name="uni1EB2" unicode="&#x1eb2;" horiz-adv-x="551" 
d="M319 680h238l-21 -680h-138l4 118h-198l-53 -118h-138zM256 238h151l14 322h-21zM427 868q-3 -37 36 -37q40 0 53 37h103q-44 -132 -185 -132q-127 0 -109 132h102zM536 928q-42 -15 -75 -18.75l-17 53.25q11 3.75 28 9.75q37 12.75 30 30.75q-6 14.25 -44 0.75
l-23 -8.25l-20 45l35 13.5q82 27 112 25.5q38 -2.25 52 -37.5q31 -75.75 -78 -114z" />
    <glyph glyph-name="uni1EB4" unicode="&#x1eb4;" horiz-adv-x="551" 
d="M319 680h238l-21 -680h-138l4 118h-198l-53 -118h-138zM256 238h151l14 322h-21zM436 868q-3 -37 36 -37q40 0 53 37h103q-44 -132 -185 -132q-127 0 -109 132h102zM659 972q-67 -64 -116 -64q-26 0 -71 22l-17 8l-15 7q-17 7 -27 7q-27 0 -86 -40l-3 92q67 65 115 65
q31 0 76 -21l16 -8q10 -5 15 -7q15 -7 23 -7q24 0 86 39z" />
    <glyph glyph-name="uni1EB6" unicode="&#x1eb6;" horiz-adv-x="551" 
d="M319 680h238l-21 -680h-138l4 118h-198l-53 -118h-138zM256 238h151l14 322h-21zM419 883q-3 -37 36 -37q40 0 53 37h103q-44 -132 -185 -132q-127 0 -109 132h102zM187 -83h135l-25 -127h-135z" />
    <glyph glyph-name="uni1EB8" unicode="&#x1eb8;" horiz-adv-x="497" 
d="M221 680h399l-28 -120h-260l-37 -160h206l-28 -120h-205l-37 -160h261l-27 -120h-400zM177 -83h135l-25 -127h-135z" />
    <glyph glyph-name="uni1EBA" unicode="&#x1eba;" horiz-adv-x="497" 
d="M221 680h399l-28 -120h-260l-37 -160h206l-28 -120h-205l-37 -160h261l-27 -120h-400zM483 781q-42 -20 -75 -25l-17 71q11 5 28 13q37 17 30 41q-6 19 -44 1l-23 -11l-20 60l35 18q82 36 112 34q38 -3 52 -50q31 -101 -78 -152z" />
    <glyph glyph-name="uni1EBC" unicode="&#x1ebc;" horiz-adv-x="497" 
d="M221 680h399l-28 -120h-260l-37 -160h206l-28 -120h-205l-37 -160h261l-27 -120h-400zM623 809q-67 -64 -116 -64q-26 0 -71 22l-17 8l-15 7q-17 7 -27 7q-27 0 -86 -40l-3 92q67 65 115 65q31 0 76 -21l16 -8q10 -5 15 -7q15 -7 23 -7q24 0 86 39z" />
    <glyph glyph-name="uni1EBE" unicode="&#x1ebe;" horiz-adv-x="497" 
d="M221 680h399l-28 -120h-260l-37 -160h206l-28 -120h-205l-37 -160h261l-27 -120h-400zM429 910h80l86 -175h-122l-24 64l-58 -64h-130zM360 1019l223 110l10 -120l-226 -78z" />
    <glyph glyph-name="uni1EC0" unicode="&#x1ec0;" horiz-adv-x="497" 
d="M221 680h399l-28 -120h-260l-37 -160h206l-28 -120h-205l-37 -160h261l-27 -120h-400zM428 911h80l86 -175h-122l-24 64l-58 -64h-130zM640 1023l-37 -79l-203 72l64 110z" />
    <glyph glyph-name="uni1EC2" unicode="&#x1ec2;" horiz-adv-x="497" 
d="M221 680h399l-28 -120h-260l-37 -160h206l-28 -120h-205l-37 -160h261l-27 -120h-400zM428 911h80l86 -175h-122l-24 64l-58 -64h-130zM686 853q-42 -20 -75 -25l-17 71q11 5 28 13q37 17 30 41q-6 19 -44 1l-23 -11l-20 60l35 18q82 36 112 34q38 -3 52 -50
q31 -101 -78 -152z" />
    <glyph glyph-name="uni1EC4" unicode="&#x1ec4;" horiz-adv-x="497" 
d="M221 680h399l-28 -120h-260l-37 -160h206l-28 -120h-205l-37 -160h261l-27 -120h-400zM429 911h80l86 -175h-122l-24 64l-58 -64h-130zM701 1018q-67 -64 -116 -64q-26 0 -71 22l-17 8l-15 7q-17 7 -27 7q-27 0 -86 -40l-3 92q67 65 115 65q31 0 76 -21l16 -8
q10 -5 15 -7q15 -7 23 -7q24 0 86 39z" />
    <glyph glyph-name="uni1EC6" unicode="&#x1ec6;" horiz-adv-x="497" 
d="M221 680h399l-28 -120h-260l-37 -160h206l-28 -120h-205l-37 -160h261l-27 -120h-400zM456 909h80l86 -175h-122l-24 64l-58 -64h-130zM177 -83h135l-25 -127h-135z" />
    <glyph glyph-name="uni1EC8" unicode="&#x1ec8;" horiz-adv-x="268" 
d="M222 680h138l-157 -680h-138zM353 781q-42 -20 -75 -25l-17 71q11 5 28 13q37 17 30 41q-6 19 -44 1l-23 -11l-20 60l35 18q82 36 112 34q38 -3 52 -50q31 -101 -78 -152z" />
    <glyph glyph-name="uni1ECA" unicode="&#x1eca;" horiz-adv-x="268" 
d="M222 680h138l-157 -680h-138zM47 -83h135l-25 -127h-135z" />
    <glyph glyph-name="uni1ECC" unicode="&#x1ecc;" horiz-adv-x="615" 
d="M423 142q47 47 77 146q27 91 27 182q0 55 -21 78q-21 24 -74 24q-51 0 -81 -30q-50 -49 -81 -155q-27 -93 -27 -177q0 -55 21 -78q22 -24 75 -24q50 0 84 34zM101 196q0 131 38 242q42 121 118 187q78 67 191 67q221 0 221 -208q0 -137 -39 -250q-43 -124 -125 -188
q-75 -58 -190 -58q-214 0 -214 208zM220 -83h135l-25 -127h-135z" />
    <glyph glyph-name="uni1ECE" unicode="&#x1ece;" horiz-adv-x="615" 
d="M423 142q47 47 77 146q27 91 27 182q0 55 -21 78q-21 24 -74 24q-51 0 -81 -30q-50 -49 -81 -155q-27 -93 -27 -177q0 -55 21 -78q22 -24 75 -24q50 0 84 34zM101 196q0 131 38 242q42 121 118 187q78 67 191 67q221 0 221 -208q0 -137 -39 -250q-43 -124 -125 -188
q-75 -58 -190 -58q-214 0 -214 208zM526 781q-42 -20 -75 -25l-17 71q11 5 28 13q37 17 30 41q-6 19 -44 1l-23 -11l-20 60l35 18q82 36 112 34q38 -3 52 -50q31 -101 -78 -152z" />
    <glyph glyph-name="uni1ED0" unicode="&#x1ed0;" horiz-adv-x="615" 
d="M423 142q47 47 77 146q27 91 27 182q0 55 -21 78q-21 24 -74 24q-51 0 -81 -30q-50 -49 -81 -155q-27 -93 -27 -177q0 -55 21 -78q22 -24 75 -24q50 0 84 34zM101 196q0 131 38 242q42 121 118 187q78 67 191 67q221 0 221 -208q0 -137 -39 -250q-43 -124 -125 -188
q-75 -58 -190 -58q-214 0 -214 208zM478 911h80l86 -175h-122l-24 64l-58 -64h-130zM409 1020l223 110l10 -120l-226 -78z" />
    <glyph glyph-name="uni1ED2" unicode="&#x1ed2;" horiz-adv-x="615" 
d="M423 142q47 47 77 146q27 91 27 182q0 55 -21 78q-21 24 -74 24q-51 0 -81 -30q-50 -49 -81 -155q-27 -93 -27 -177q0 -55 21 -78q22 -24 75 -24q50 0 84 34zM101 196q0 131 38 242q42 121 118 187q78 67 191 67q221 0 221 -208q0 -137 -39 -250q-43 -124 -125 -188
q-75 -58 -190 -58q-214 0 -214 208zM480 910h80l86 -175h-122l-24 64l-58 -64h-130zM692 1022l-37 -79l-203 72l64 110z" />
    <glyph glyph-name="uni1ED4" unicode="&#x1ed4;" horiz-adv-x="615" 
d="M423 142q47 47 77 146q27 91 27 182q0 55 -21 78q-21 24 -74 24q-51 0 -81 -30q-50 -49 -81 -155q-27 -93 -27 -177q0 -55 21 -78q22 -24 75 -24q50 0 84 34zM101 196q0 131 38 242q42 121 118 187q78 67 191 67q221 0 221 -208q0 -137 -39 -250q-43 -124 -125 -188
q-75 -58 -190 -58q-214 0 -214 208zM480 910h80l86 -175h-122l-24 64l-58 -64h-130zM738 852q-42 -20 -75 -25l-17 71q11 5 28 13q37 17 30 41q-6 19 -44 1l-23 -11l-20 60l35 18q82 36 112 34q38 -3 52 -50q31 -101 -78 -152z" />
    <glyph glyph-name="uni1ED6" unicode="&#x1ed6;" horiz-adv-x="615" 
d="M423 142q47 47 77 146q27 91 27 182q0 55 -21 78q-21 24 -74 24q-51 0 -81 -30q-50 -49 -81 -155q-27 -93 -27 -177q0 -55 21 -78q22 -24 75 -24q50 0 84 34zM101 196q0 131 38 242q42 121 118 187q78 67 191 67q221 0 221 -208q0 -137 -39 -250q-43 -124 -125 -188
q-75 -58 -190 -58q-214 0 -214 208zM480 911h80l86 -175h-122l-24 64l-58 -64h-130zM752 1018q-67 -64 -116 -64q-26 0 -71 22l-17 8l-15 7q-17 7 -27 7q-27 0 -86 -40l-3 92q67 65 115 65q31 0 76 -21l16 -8q10 -5 15 -7q15 -7 23 -7q24 0 86 39z" />
    <glyph glyph-name="uni1ED8" unicode="&#x1ed8;" horiz-adv-x="615" 
d="M423 142q47 47 77 146q27 91 27 182q0 55 -21 78q-21 24 -74 24q-51 0 -81 -30q-50 -49 -81 -155q-27 -93 -27 -177q0 -55 21 -78q22 -24 75 -24q50 0 84 34zM101 196q0 131 38 242q42 121 118 187q78 67 191 67q221 0 221 -208q0 -137 -39 -250q-43 -124 -125 -188
q-75 -58 -190 -58q-214 0 -214 208zM498 909h80l86 -175h-122l-24 64l-58 -64h-130zM220 -83h135l-25 -127h-135z" />
    <glyph glyph-name="uni1EDA" unicode="&#x1eda;" horiz-adv-x="615" 
d="M423 142q47 47 77 146q27 91 27 182q0 55 -21 78q-21 24 -74 24q-51 0 -81 -30q-50 -49 -81 -155q-27 -93 -27 -177q0 -55 21 -78q22 -24 75 -24q50 0 84 34zM635 616q34 -50 34 -132q0 -137 -39 -250q-43 -124 -125 -188q-75 -58 -190 -58q-214 0 -214 208q0 131 38 242
q42 121 118 187q78 67 191 67q56 0 97 -13q59 13 72 64h113q-16 -71 -57 -105q-17 -14 -38 -22zM421 819l223 110l10 -120l-226 -78z" />
    <glyph glyph-name="uni1EDC" unicode="&#x1edc;" horiz-adv-x="615" 
d="M423 142q47 47 77 146q27 91 27 182q0 55 -21 78q-21 24 -74 24q-51 0 -81 -30q-50 -49 -81 -155q-27 -93 -27 -177q0 -55 21 -78q22 -24 75 -24q50 0 84 34zM635 616q34 -50 34 -132q0 -137 -39 -250q-43 -124 -125 -188q-75 -58 -190 -58q-214 0 -214 208q0 131 38 242
q42 121 118 187q78 67 191 67q56 0 97 -13q59 13 72 64h113q-16 -71 -57 -105q-17 -14 -38 -22zM578 815l-37 -79l-203 72l64 110z" />
    <glyph glyph-name="uni1EDE" unicode="&#x1ede;" horiz-adv-x="615" 
d="M423 142q47 47 77 146q27 91 27 182q0 55 -21 78q-21 24 -74 24q-51 0 -81 -30q-50 -49 -81 -155q-27 -93 -27 -177q0 -55 21 -78q22 -24 75 -24q50 0 84 34zM635 616q34 -50 34 -132q0 -137 -39 -250q-43 -124 -125 -188q-75 -58 -190 -58q-214 0 -214 208q0 131 38 242
q42 121 118 187q78 67 191 67q56 0 97 -13q59 13 72 64h113q-16 -71 -57 -105q-17 -14 -38 -22zM526 781q-42 -20 -75 -25l-17 71q11 5 28 13q37 17 30 41q-6 19 -44 1l-23 -11l-20 60l35 18q82 36 112 34q38 -3 52 -50q31 -101 -78 -152z" />
    <glyph glyph-name="uni1EE0" unicode="&#x1ee0;" horiz-adv-x="615" 
d="M423 142q47 47 77 146q27 91 27 182q0 55 -21 78q-21 24 -74 24q-51 0 -81 -30q-50 -49 -81 -155q-27 -93 -27 -177q0 -55 21 -78q22 -24 75 -24q50 0 84 34zM635 616q34 -50 34 -132q0 -137 -39 -250q-43 -124 -125 -188q-75 -58 -190 -58q-214 0 -214 208q0 131 38 242
q42 121 118 187q78 67 191 67q56 0 97 -13q59 13 72 64h113q-16 -71 -57 -105q-17 -14 -38 -22zM666 809q-67 -64 -116 -64q-26 0 -71 22l-17 8l-15 7q-17 7 -27 7q-27 0 -86 -40l-3 92q67 65 115 65q31 0 76 -21l16 -8q10 -5 15 -7q15 -7 23 -7q24 0 86 39z" />
    <glyph glyph-name="uni1EE2" unicode="&#x1ee2;" horiz-adv-x="615" 
d="M423 142q47 47 77 146q27 91 27 182q0 55 -21 78q-21 24 -74 24q-51 0 -81 -30q-50 -49 -81 -155q-27 -93 -27 -177q0 -55 21 -78q22 -24 75 -24q50 0 84 34zM635 616q34 -50 34 -132q0 -137 -39 -250q-43 -124 -125 -188q-75 -58 -190 -58q-214 0 -214 208q0 131 38 242
q42 121 118 187q78 67 191 67q56 0 97 -13q59 13 72 64h113q-16 -71 -57 -105q-17 -14 -38 -22zM220 -83h135l-25 -127h-135z" />
    <glyph glyph-name="Ohorn" unicode="&#x1a0;" horiz-adv-x="615" 
d="M423 142q47 47 77 146q27 91 27 182q0 55 -21 78q-21 24 -74 24q-51 0 -81 -30q-50 -49 -81 -155q-27 -93 -27 -177q0 -55 21 -78q22 -24 75 -24q50 0 84 34zM635 616q34 -50 34 -132q0 -137 -39 -250q-43 -124 -125 -188q-75 -58 -190 -58q-214 0 -214 208q0 131 38 242
q42 121 118 187q78 67 191 67q56 0 97 -13q59 13 72 64h113q-16 -71 -57 -105q-17 -14 -38 -22z" />
    <glyph glyph-name="uni1EE4" unicode="&#x1ee4;" horiz-adv-x="595" 
d="M249 231q-9 -38 -9 -66q0 -57 82 -57q62 0 90 30q24 25 39 93l104 449h138l-104 -449q-29 -128 -94 -185q-66 -58 -185 -58q-97 0 -150 37q-57 40 -57 117q0 52 13 111l99 427h138zM209 -83h135l-25 -127h-135z" />
    <glyph glyph-name="uni1EE6" unicode="&#x1ee6;" horiz-adv-x="595" 
d="M249 231q-9 -38 -9 -66q0 -57 82 -57q62 0 90 30q24 25 39 93l104 449h138l-104 -449q-29 -128 -94 -185q-66 -58 -185 -58q-97 0 -150 37q-57 40 -57 117q0 52 13 111l99 427h138zM516 781q-42 -20 -75 -25l-17 71q11 5 28 13q37 17 30 41q-6 19 -44 1l-23 -11l-20 60
l35 18q82 36 112 34q38 -3 52 -50q31 -101 -78 -152z" />
    <glyph glyph-name="uni1EE8" unicode="&#x1ee8;" horiz-adv-x="595" 
d="M675 602l-86 -371q-29 -128 -94 -185q-66 -58 -185 -58q-97 0 -150 37q-57 40 -57 117q0 52 13 111l99 427h138l-104 -449q-9 -38 -9 -66q0 -57 82 -57q62 0 90 30q24 25 39 93l104 449h85q55 14 67 63h113q-16 -71 -57 -105q-35 -28 -88 -36zM377 824l223 110l10 -120
l-226 -78z" />
    <glyph glyph-name="uni1EEA" unicode="&#x1eea;" horiz-adv-x="595" 
d="M675 602l-86 -371q-29 -128 -94 -185q-66 -58 -185 -58q-97 0 -150 37q-57 40 -57 117q0 52 13 111l99 427h138l-104 -449q-9 -38 -9 -66q0 -57 82 -57q62 0 90 30q24 25 39 93l104 449h85q55 14 67 63h113q-16 -71 -57 -105q-35 -28 -88 -36zM552 815l-37 -79l-203 72
l64 110z" />
    <glyph glyph-name="uni1EEC" unicode="&#x1eec;" horiz-adv-x="595" 
d="M675 602l-86 -371q-29 -128 -94 -185q-66 -58 -185 -58q-97 0 -150 37q-57 40 -57 117q0 52 13 111l99 427h138l-104 -449q-9 -38 -9 -66q0 -57 82 -57q62 0 90 30q24 25 39 93l104 449h85q55 14 67 63h113q-16 -71 -57 -105q-35 -28 -88 -36zM517 761q-42 -20 -75 -25
l-17 71q11 5 28 13q37 17 30 41q-6 19 -44 1l-23 -11l-20 60l35 18q82 36 112 34q38 -3 52 -50q31 -101 -78 -152z" />
    <glyph glyph-name="uni1EEE" unicode="&#x1eee;" horiz-adv-x="595" 
d="M675 602l-86 -371q-29 -128 -94 -185q-66 -58 -185 -58q-97 0 -150 37q-57 40 -57 117q0 52 13 111l99 427h138l-104 -449q-9 -38 -9 -66q0 -57 82 -57q62 0 90 30q24 25 39 93l104 449h85q55 14 67 63h113q-16 -71 -57 -105q-35 -28 -88 -36zM647 800q-67 -64 -116 -64
q-26 0 -71 22l-17 8l-15 7q-17 7 -27 7q-27 0 -86 -40l-3 92q67 65 115 65q31 0 76 -21l16 -8q10 -5 15 -7q15 -7 23 -7q24 0 86 39z" />
    <glyph glyph-name="uni1EF0" unicode="&#x1ef0;" horiz-adv-x="595" 
d="M675 602l-86 -371q-29 -128 -94 -185q-66 -58 -185 -58q-97 0 -150 37q-57 40 -57 117q0 52 13 111l99 427h138l-104 -449q-9 -38 -9 -66q0 -57 82 -57q62 0 90 30q24 25 39 93l104 449h85q55 14 67 63h113q-16 -71 -57 -105q-35 -28 -88 -36zM211 -83h135l-25 -127h-135
z" />
    <glyph glyph-name="Uhorn" unicode="&#x1af;" horiz-adv-x="595" 
d="M675 602l-86 -371q-29 -128 -94 -185q-66 -58 -185 -58q-97 0 -150 37q-57 40 -57 117q0 52 13 111l99 427h138l-104 -449q-9 -38 -9 -66q0 -57 82 -57q62 0 90 30q24 25 39 93l104 449h85q55 14 67 63h113q-16 -71 -57 -105q-35 -28 -88 -36z" />
    <glyph glyph-name="uni1EF4" unicode="&#x1ef4;" horiz-adv-x="504" 
d="M381 288l-68 -288h-128l68 294l-95 386h140l48 -265l169 265h146zM165 -83h135l-25 -127h-135z" />
    <glyph glyph-name="uni1EF6" unicode="&#x1ef6;" horiz-adv-x="504" 
d="M381 288l-68 -288h-128l68 294l-95 386h140l48 -265l169 265h146zM471 781q-42 -20 -75 -25l-17 71q11 5 28 13q37 17 30 41q-6 19 -44 1l-23 -11l-20 60l35 18q82 36 112 34q38 -3 52 -50q31 -101 -78 -152z" />
    <glyph glyph-name="uni1EA1" unicode="&#x1ea1;" horiz-adv-x="528" 
d="M80 170q0 123 59 222q71 120 195 120q73 0 250 -33l-75 -323q-14 -62 -27 -153l-133 -5q9 61 13 78q-64 -88 -141 -88q-141 0 -141 182zM247 318q-31 -68 -31 -148q0 -68 51 -68q41 0 117 89l46 193q-66 14 -92 14q-56 0 -91 -80zM167 -83h135l-25 -127h-135z" />
    <glyph glyph-name="uni1EA3" unicode="&#x1ea3;" horiz-adv-x="528" 
d="M80 170q0 123 59 222q71 120 195 120q73 0 250 -33l-75 -323q-14 -62 -27 -153l-133 -5q9 61 13 78q-64 -88 -141 -88q-141 0 -141 182zM247 318q-31 -68 -31 -148q0 -68 51 -68q41 0 117 89l46 193q-66 14 -92 14q-56 0 -91 -80zM432 600q-42 -20 -75 -25l-17 71
q11 5 28 13q37 17 30 41q-6 19 -44 1l-23 -11l-20 60l35 18q82 36 112 34q38 -3 52 -50q31 -101 -78 -152z" />
    <glyph glyph-name="uni1EA5" unicode="&#x1ea5;" horiz-adv-x="528" 
d="M80 170q0 123 59 222q71 120 195 120q73 0 250 -33l-75 -323q-14 -62 -27 -153l-133 -5q9 61 13 78q-64 -88 -141 -88q-141 0 -141 182zM247 318q-31 -68 -31 -148q0 -68 51 -68q41 0 117 89l46 193q-66 14 -92 14q-56 0 -91 -80zM404 728h80l86 -175h-122l-24 64
l-58 -64h-130zM347 871l223 110l10 -120l-226 -78z" />
    <glyph glyph-name="uni1EA7" unicode="&#x1ea7;" horiz-adv-x="528" 
d="M80 170q0 123 59 222q71 120 195 120q73 0 250 -33l-75 -323q-14 -62 -27 -153l-133 -5q9 61 13 78q-64 -88 -141 -88q-141 0 -141 182zM247 318q-31 -68 -31 -148q0 -68 51 -68q41 0 117 89l46 193q-66 14 -92 14q-56 0 -91 -80zM404 728h80l86 -175h-122l-24 64
l-58 -64h-130zM592 842l-37 -79l-203 72l64 110z" />
    <glyph glyph-name="uni1EA9" unicode="&#x1ea9;" horiz-adv-x="528" 
d="M80 170q0 123 59 222q71 120 195 120q73 0 250 -33l-75 -323q-14 -62 -27 -153l-133 -5q9 61 13 78q-64 -88 -141 -88q-141 0 -141 182zM247 318q-31 -68 -31 -148q0 -68 51 -68q41 0 117 89l46 193q-66 14 -92 14q-56 0 -91 -80zM404 728h80l86 -175h-122l-24 64
l-58 -64h-130zM641 692q-42 -20 -75 -25l-17 71q11 5 28 13q37 17 30 41q-6 19 -44 1l-23 -11l-20 60l35 18q82 36 112 34q38 -3 52 -50q31 -101 -78 -152z" />
    <glyph glyph-name="uni1EAD" unicode="&#x1ead;" horiz-adv-x="528" 
d="M80 170q0 123 59 222q71 120 195 120q73 0 250 -33l-75 -323q-14 -62 -27 -153l-133 -5q9 61 13 78q-64 -88 -141 -88q-141 0 -141 182zM247 318q-31 -68 -31 -148q0 -68 51 -68q41 0 117 89l46 193q-66 14 -92 14q-56 0 -91 -80zM404 728h80l86 -175h-122l-24 64
l-58 -64h-130zM167 -83h135l-25 -127h-135z" />
    <glyph glyph-name="uni1EAF" unicode="&#x1eaf;" horiz-adv-x="528" 
d="M80 170q0 123 59 222q71 120 195 120q73 0 250 -33l-75 -323q-14 -62 -27 -153l-133 -5q9 61 13 78q-64 -88 -141 -88q-141 0 -141 182zM247 318q-31 -68 -31 -148q0 -68 51 -68q41 0 117 89l46 193q-66 14 -92 14q-56 0 -91 -80zM415 702q-3 -37 36 -37q40 0 53 37h103
q-44 -132 -185 -132q-127 0 -109 132h102zM422 853l223 110l10 -120l-226 -78z" />
    <glyph glyph-name="uni1EB1" unicode="&#x1eb1;" horiz-adv-x="528" 
d="M80 170q0 123 59 222q71 120 195 120q73 0 250 -33l-75 -323q-14 -62 -27 -153l-133 -5q9 61 13 78q-64 -88 -141 -88q-141 0 -141 182zM247 318q-31 -68 -31 -148q0 -68 51 -68q41 0 117 89l46 193q-66 14 -92 14q-56 0 -91 -80zM415 702q-3 -37 36 -37q40 0 53 37h103
q-44 -132 -185 -132q-127 0 -109 132h102zM552 815l-37 -79l-203 72l64 110z" />
    <glyph glyph-name="uni1EB3" unicode="&#x1eb3;" horiz-adv-x="528" 
d="M80 170q0 123 59 222q71 120 195 120q73 0 250 -33l-75 -323q-14 -62 -27 -153l-133 -5q9 61 13 78q-64 -88 -141 -88q-141 0 -141 182zM247 318q-31 -68 -31 -148q0 -68 51 -68q41 0 117 89l46 193q-66 14 -92 14q-56 0 -91 -80zM415 702q-3 -37 36 -37q40 0 53 37h103
q-44 -132 -185 -132q-127 0 -109 132h102zM514 761q-42 -20 -75 -25l-17 71q11 5 28 13q37 17 30 41q-6 19 -44 1l-23 -11l-20 60l35 18q82 36 112 34q38 -3 52 -50q31 -101 -78 -152z" />
    <glyph glyph-name="uni1EB5" unicode="&#x1eb5;" horiz-adv-x="528" 
d="M80 170q0 123 59 222q71 120 195 120q73 0 250 -33l-75 -323q-14 -62 -27 -153l-133 -5q9 61 13 78q-64 -88 -141 -88q-141 0 -141 182zM247 318q-31 -68 -31 -148q0 -68 51 -68q41 0 117 89l46 193q-66 14 -92 14q-56 0 -91 -80zM414 702q-3 -37 36 -37q40 0 53 37h103
q-44 -132 -185 -132q-127 0 -109 132h102zM647 800q-67 -64 -116 -64q-26 0 -71 22l-17 8l-15 7q-17 7 -27 7q-27 0 -86 -40l-3 92q67 65 115 65q31 0 76 -21l16 -8q10 -5 15 -7q15 -7 23 -7q24 0 86 39z" />
    <glyph glyph-name="uni1EB7" unicode="&#x1eb7;" horiz-adv-x="528" 
d="M80 170q0 123 59 222q71 120 195 120q73 0 250 -33l-75 -323q-14 -62 -27 -153l-133 -5q9 61 13 78q-64 -88 -141 -88q-141 0 -141 182zM247 318q-31 -68 -31 -148q0 -68 51 -68q41 0 117 89l46 193q-66 14 -92 14q-56 0 -91 -80zM415 702q-3 -37 36 -37q40 0 53 37h103
q-44 -132 -185 -132q-127 0 -109 132h102zM208 -83h135l-25 -127h-135z" />
    <glyph glyph-name="uni1EB9" unicode="&#x1eb9;" horiz-adv-x="476" 
d="M454 115l-15 -99q-93 -28 -189 -28q-169 0 -169 170q0 149 64 244q73 109 210 109q175 0 175 -149q0 -95 -67 -133q-61 -34 -210 -34h-35q-3 -12 -3 -34q0 -59 73 -59q68 0 166 13zM274 294q69 0 97 15q27 15 27 51q0 43 -50 43q-89 0 -115 -109h41zM153 -83h135
l-25 -127h-135z" />
    <glyph glyph-name="uni1EBB" unicode="&#x1ebb;" horiz-adv-x="476" 
d="M454 115l-15 -99q-93 -28 -189 -28q-169 0 -169 170q0 149 64 244q73 109 210 109q175 0 175 -149q0 -95 -67 -133q-61 -34 -210 -34h-35q-3 -12 -3 -34q0 -59 73 -59q68 0 166 13zM274 294q69 0 97 15q27 15 27 51q0 43 -50 43q-89 0 -115 -109h41zM418 600
q-42 -20 -75 -25l-17 71q11 5 28 13q37 17 30 41q-6 19 -44 1l-23 -11l-20 60l35 18q82 36 112 34q38 -3 52 -50q31 -101 -78 -152z" />
    <glyph glyph-name="uni1EBD" unicode="&#x1ebd;" horiz-adv-x="476" 
d="M454 115l-15 -99q-93 -28 -189 -28q-169 0 -169 170q0 149 64 244q73 109 210 109q175 0 175 -149q0 -95 -67 -133q-61 -34 -210 -34h-35q-3 -12 -3 -34q0 -59 73 -59q68 0 166 13zM274 294q69 0 97 15q27 15 27 51q0 43 -50 43q-89 0 -115 -109h41zM557 628
q-67 -64 -116 -64q-26 0 -71 22l-17 8l-15 7q-17 7 -27 7q-27 0 -86 -40l-3 92q67 65 115 65q31 0 76 -21l16 -8q10 -5 15 -7q15 -7 23 -7q24 0 86 39z" />
    <glyph glyph-name="uni1EBF" unicode="&#x1ebf;" horiz-adv-x="476" 
d="M454 115l-15 -99q-93 -28 -189 -28q-169 0 -169 170q0 149 64 244q73 109 210 109q175 0 175 -149q0 -95 -67 -133q-61 -34 -210 -34h-35q-3 -12 -3 -34q0 -59 73 -59q68 0 166 13zM274 294q69 0 97 15q27 15 27 51q0 43 -50 43q-89 0 -115 -109h41zM390 728h80l86 -175
h-122l-24 64l-58 -64h-130zM312 854l223 110l10 -120l-226 -78z" />
    <glyph glyph-name="uni1EC1" unicode="&#x1ec1;" horiz-adv-x="476" 
d="M454 115l-15 -99q-93 -28 -189 -28q-169 0 -169 170q0 149 64 244q73 109 210 109q175 0 175 -149q0 -95 -67 -133q-61 -34 -210 -34h-35q-3 -12 -3 -34q0 -59 73 -59q68 0 166 13zM274 294q69 0 97 15q27 15 27 51q0 43 -50 43q-89 0 -115 -109h41zM390 728h80l86 -175
h-122l-24 64l-58 -64h-130zM581 848l-37 -79l-203 72l64 110z" />
    <glyph glyph-name="uni1EC3" unicode="&#x1ec3;" horiz-adv-x="476" 
d="M454 115l-15 -99q-93 -28 -189 -28q-169 0 -169 170q0 149 64 244q73 109 210 109q175 0 175 -149q0 -95 -67 -133q-61 -34 -210 -34h-35q-3 -12 -3 -34q0 -59 73 -59q68 0 166 13zM274 294q69 0 97 15q27 15 27 51q0 43 -50 43q-89 0 -115 -109h41zM390 728h80l86 -175
h-122l-24 64l-58 -64h-130zM628 717q-42 -20 -75 -25l-17 71q11 5 28 13q37 17 30 41q-6 19 -44 1l-23 -11l-20 60l35 18q82 36 112 34q38 -3 52 -50q31 -101 -78 -152z" />
    <glyph glyph-name="uni1EC7" unicode="&#x1ec7;" horiz-adv-x="476" 
d="M454 115l-15 -99q-93 -28 -189 -28q-169 0 -169 170q0 149 64 244q73 109 210 109q175 0 175 -149q0 -95 -67 -133q-61 -34 -210 -34h-35q-3 -12 -3 -34q0 -59 73 -59q68 0 166 13zM274 294q69 0 97 15q27 15 27 51q0 43 -50 43q-89 0 -115 -109h41zM390 728h80l86 -175
h-122l-24 64l-58 -64h-130zM153 -83h135l-25 -127h-135z" />
    <glyph glyph-name="uni1EC9" unicode="&#x1ec9;" horiz-adv-x="244" 
d="M170 500h134l-115 -500h-134zM299 600q-42 -20 -75 -25l-17 71q11 5 28 13q37 17 30 41q-6 19 -44 1l-23 -11l-20 60l35 18q82 36 112 34q38 -3 52 -50q31 -101 -78 -152z" />
    <glyph glyph-name="uni1ECB" unicode="&#x1ecb;" horiz-adv-x="243" 
d="M170 500h134l-115 -500h-134zM213 689h135l-31 -137h-136zM34 -83h135l-25 -127h-135z" />
    <glyph glyph-name="uni1ECD" unicode="&#x1ecd;" horiz-adv-x="496" 
d="M530 322q0 -128 -63 -225q-72 -109 -190 -109q-197 0 -197 189q0 126 67 225q73 109 186 109q197 0 197 -189zM366 174q31 65 31 150q0 73 -64 73q-54 0 -88 -72q-32 -65 -32 -150q0 -73 64 -73q54 0 89 72zM160 -83h135l-25 -127h-135z" />
    <glyph glyph-name="ohorn" unicode="&#x1a1;" horiz-adv-x="496" 
d="M366 174q31 65 31 150q0 73 -64 73q-54 0 -88 -72q-32 -65 -32 -150q0 -73 64 -73q54 0 89 72zM500 440q30 -45 30 -118q0 -128 -63 -225q-72 -109 -190 -109q-197 0 -197 189q0 126 67 225q73 109 186 109q43 0 76 -9q55 14 67 63h113q-16 -71 -57 -105q-14 -12 -32 -20
z" />
    <glyph glyph-name="uni1ECF" unicode="&#x1ecf;" horiz-adv-x="496" 
d="M530 322q0 -128 -63 -225q-72 -109 -190 -109q-197 0 -197 189q0 126 67 225q73 109 186 109q197 0 197 -189zM366 174q31 65 31 150q0 73 -64 73q-54 0 -88 -72q-32 -65 -32 -150q0 -73 64 -73q54 0 89 72zM425 600q-42 -20 -75 -25l-17 71q11 5 28 13q37 17 30 41
q-6 19 -44 1l-23 -11l-20 60l35 18q82 36 112 34q38 -3 52 -50q31 -101 -78 -152z" />
    <glyph glyph-name="uni1ED1" unicode="&#x1ed1;" horiz-adv-x="496" 
d="M530 322q0 -128 -63 -225q-72 -109 -190 -109q-197 0 -197 189q0 126 67 225q73 109 186 109q197 0 197 -189zM366 174q31 65 31 150q0 73 -64 73q-54 0 -88 -72q-32 -65 -32 -150q0 -73 64 -73q54 0 89 72zM378 728h80l86 -175h-122l-24 64l-58 -64h-130zM286 856
l223 110l10 -120l-226 -78z" />
    <glyph glyph-name="uni1ED3" unicode="&#x1ed3;" horiz-adv-x="496" 
d="M530 322q0 -128 -63 -225q-72 -109 -190 -109q-197 0 -197 189q0 126 67 225q73 109 186 109q197 0 197 -189zM366 174q31 65 31 150q0 73 -64 73q-54 0 -88 -72q-32 -65 -32 -150q0 -73 64 -73q54 0 89 72zM377 731h80l86 -175h-122l-24 64l-58 -64h-130zM570 836
l-37 -79l-203 72l64 110z" />
    <glyph glyph-name="uni1ED5" unicode="&#x1ed5;" horiz-adv-x="496" 
d="M530 322q0 -128 -63 -225q-72 -109 -190 -109q-197 0 -197 189q0 126 67 225q73 109 186 109q197 0 197 -189zM366 174q31 65 31 150q0 73 -64 73q-54 0 -88 -72q-32 -65 -32 -150q0 -73 64 -73q54 0 89 72zM377 731h80l86 -175h-122l-24 64l-58 -64h-130zM619 708
q-42 -20 -75 -25l-17 71q11 5 28 13q37 17 30 41q-6 19 -44 1l-23 -11l-20 60l35 18q82 36 112 34q38 -3 52 -50q31 -101 -78 -152z" />
    <glyph glyph-name="uni1EDD" unicode="&#x1edd;" horiz-adv-x="496" 
d="M366 174q31 65 31 150q0 73 -64 73q-54 0 -88 -72q-32 -65 -32 -150q0 -73 64 -73q54 0 89 72zM500 440q30 -45 30 -118q0 -128 -63 -225q-72 -109 -190 -109q-197 0 -197 189q0 126 67 225q73 109 186 109q43 0 76 -9q55 14 67 63h113q-16 -71 -57 -105q-14 -12 -32 -20
zM481 666l-37 -79l-203 72l64 110z" />
    <glyph glyph-name="uni1ED9" unicode="&#x1ed9;" horiz-adv-x="496" 
d="M530 322q0 -128 -63 -225q-72 -109 -190 -109q-197 0 -197 189q0 126 67 225q73 109 186 109q197 0 197 -189zM366 174q31 65 31 150q0 73 -64 73q-54 0 -88 -72q-32 -65 -32 -150q0 -73 64 -73q54 0 89 72zM377 731h80l86 -175h-122l-24 64l-58 -64h-130zM160 -83h135
l-25 -127h-135z" />
    <glyph glyph-name="uni1EDB" unicode="&#x1edb;" horiz-adv-x="496" 
d="M366 174q31 65 31 150q0 73 -64 73q-54 0 -88 -72q-32 -65 -32 -150q0 -73 64 -73q54 0 89 72zM500 440q30 -45 30 -118q0 -128 -63 -225q-72 -109 -190 -109q-197 0 -197 189q0 126 67 225q73 109 186 109q43 0 76 -9q55 14 67 63h113q-16 -71 -57 -105q-14 -12 -32 -20
zM299 676l223 110l10 -120l-226 -78z" />
    <glyph glyph-name="uni1EDF" unicode="&#x1edf;" horiz-adv-x="496" 
d="M366 174q31 65 31 150q0 73 -64 73q-54 0 -88 -72q-32 -65 -32 -150q0 -73 64 -73q54 0 89 72zM500 440q30 -45 30 -118q0 -128 -63 -225q-72 -109 -190 -109q-197 0 -197 189q0 126 67 225q73 109 186 109q43 0 76 -9q55 14 67 63h113q-16 -71 -57 -105q-14 -12 -32 -20
zM441 629q-42 -20 -75 -25l-17 71q11 5 28 13q37 17 30 41q-6 19 -44 1l-23 -11l-20 60l35 18q82 36 112 34q38 -3 52 -50q31 -101 -78 -152z" />
    <glyph glyph-name="uni1EE1" unicode="&#x1ee1;" horiz-adv-x="496" 
d="M366 174q31 65 31 150q0 73 -64 73q-54 0 -88 -72q-32 -65 -32 -150q0 -73 64 -73q54 0 89 72zM500 440q30 -45 30 -118q0 -128 -63 -225q-72 -109 -190 -109q-197 0 -197 189q0 126 67 225q73 109 186 109q43 0 76 -9q55 14 67 63h113q-16 -71 -57 -105q-14 -12 -32 -20
zM580 666q-67 -64 -116 -64q-26 0 -71 22l-17 8l-15 7q-17 7 -27 7q-27 0 -86 -40l-3 92q67 65 115 65q31 0 76 -21l16 -8q10 -5 15 -7q15 -7 23 -7q24 0 86 39z" />
    <glyph glyph-name="uni1EE3" unicode="&#x1ee3;" horiz-adv-x="496" 
d="M366 174q31 65 31 150q0 73 -64 73q-54 0 -88 -72q-32 -65 -32 -150q0 -73 64 -73q54 0 89 72zM500 440q30 -45 30 -118q0 -128 -63 -225q-72 -109 -190 -109q-197 0 -197 189q0 126 67 225q73 109 186 109q43 0 76 -9q55 14 67 63h113q-16 -71 -57 -105q-14 -12 -32 -20
zM143 -83h135l-25 -127h-135z" />
    <glyph glyph-name="uni1EE5" unicode="&#x1ee5;" horiz-adv-x="513" 
d="M573 500l-115 -500h-128l6 49q-61 -61 -127 -61q-122 0 -122 141q0 22 8 65q3 16 7 34q3 14 6 27l56 245h134l-54 -235q-3 -11 -5 -23q-4 -16 -6 -29q-7 -36 -7 -51q0 -58 41 -58q32 0 95 60l77 336h134zM166 -83h135l-25 -127h-135z" />
    <glyph glyph-name="uhorn" unicode="&#x1b0;" horiz-adv-x="513" 
d="M555 422l-97 -422h-128l6 49q-61 -61 -127 -61q-122 0 -122 141q0 22 8 65q3 16 7 34q3 14 6 27l56 245h134l-54 -235q-3 -11 -5 -23q-4 -16 -6 -29q-7 -36 -7 -51q0 -58 41 -58q32 0 95 60l77 336h92q63 12 76 65h113q-16 -71 -57 -105q-42 -33 -108 -38z" />
    <glyph glyph-name="uni1EE7" unicode="&#x1ee7;" horiz-adv-x="513" 
d="M573 500l-115 -500h-128l6 49q-61 -61 -127 -61q-122 0 -122 141q0 22 8 65q3 16 7 34q3 14 6 27l56 245h134l-54 -235q-3 -11 -5 -23q-4 -16 -6 -29q-7 -36 -7 -51q0 -58 41 -58q32 0 95 60l77 336h134zM430 600q-42 -20 -75 -25l-17 71q11 5 28 13q37 17 30 41
q-6 19 -44 1l-23 -11l-20 60l35 18q82 36 112 34q38 -3 52 -50q31 -101 -78 -152z" />
    <glyph glyph-name="uni1EE9" unicode="&#x1ee9;" horiz-adv-x="513" 
d="M555 422l-97 -422h-128l6 49q-61 -61 -127 -61q-122 0 -122 141q0 22 8 65q3 16 7 34q3 14 6 27l56 245h134l-54 -235q-3 -11 -5 -23q-4 -16 -6 -29q-7 -36 -7 -51q0 -58 41 -58q32 0 95 60l77 336h92q63 12 76 65h113q-16 -71 -57 -105q-42 -33 -108 -38zM307 638
l223 110l10 -120l-226 -78z" />
    <glyph glyph-name="uni1EEB" unicode="&#x1eeb;" horiz-adv-x="513" 
d="M555 422l-97 -422h-128l6 49q-61 -61 -127 -61q-122 0 -122 141q0 22 8 65q3 16 7 34q3 14 6 27l56 245h134l-54 -235q-3 -11 -5 -23q-4 -16 -6 -29q-7 -36 -7 -51q0 -58 41 -58q32 0 95 60l77 336h92q63 12 76 65h113q-16 -71 -57 -105q-42 -33 -108 -38zM468 634
l-37 -79l-203 72l64 110z" />
    <glyph glyph-name="uni1EED" unicode="&#x1eed;" horiz-adv-x="513" 
d="M555 422l-97 -422h-128l6 49q-61 -61 -127 -61q-122 0 -122 141q0 22 8 65q3 16 7 34q3 14 6 27l56 245h134l-54 -235q-3 -11 -5 -23q-4 -16 -6 -29q-7 -36 -7 -51q0 -58 41 -58q32 0 95 60l77 336h92q63 12 76 65h113q-16 -71 -57 -105q-42 -33 -108 -38zM416 600
q-42 -20 -75 -25l-17 71q11 5 28 13q37 17 30 41q-6 19 -44 1l-23 -11l-20 60l35 18q82 36 112 34q38 -3 52 -50q31 -101 -78 -152z" />
    <glyph glyph-name="uni1EEF" unicode="&#x1eef;" horiz-adv-x="513" 
d="M555 422l-97 -422h-128l6 49q-61 -61 -127 -61q-122 0 -122 141q0 22 8 65q3 16 7 34q3 14 6 27l56 245h134l-54 -235q-3 -11 -5 -23q-4 -16 -6 -29q-7 -36 -7 -51q0 -58 41 -58q32 0 95 60l77 336h92q63 12 76 65h113q-16 -71 -57 -105q-42 -33 -108 -38zM554 628
q-67 -64 -116 -64q-26 0 -71 22l-17 8l-15 7q-17 7 -27 7q-27 0 -86 -40l-3 92q67 65 115 65q31 0 76 -21l16 -8q10 -5 15 -7q15 -7 23 -7q24 0 86 39z" />
    <glyph glyph-name="uni1EF1" unicode="&#x1ef1;" horiz-adv-x="513" 
d="M555 422l-97 -422h-128l6 49q-61 -61 -127 -61q-122 0 -122 141q0 22 8 65q3 16 7 34q3 14 6 27l56 245h134l-54 -235q-3 -11 -5 -23q-4 -16 -6 -29q-7 -36 -7 -51q0 -58 41 -58q32 0 95 60l77 336h92q63 12 76 65h113q-16 -71 -57 -105q-42 -33 -108 -38zM180 -83h135
l-25 -127h-135z" />
    <glyph glyph-name="uni1EF5" unicode="&#x1ef5;" horiz-adv-x="464" 
d="M257 500l-14 -389h15l174 389h135l-332 -710h-133l103 210h-83l4 500h131zM384 -83h135l-25 -127h-135z" />
    <glyph glyph-name="uni1EF7" unicode="&#x1ef7;" horiz-adv-x="464" 
d="M257 500l-14 -389h15l174 389h135l-332 -710h-133l103 210h-83l4 500h131zM408 600q-42 -20 -75 -25l-17 71q11 5 28 13q37 17 30 41q-6 19 -44 1l-23 -11l-20 60l35 18q82 36 112 34q38 -3 52 -50q31 -101 -78 -152z" />
    <glyph glyph-name="uniE00D" unicode="&#xe00d;" horiz-adv-x="0" 
d="M521 910h80l86 -175h-122l-24 64l-58 -64h-130zM452 1019l223 110l10 -120l-226 -78z" />
    <glyph glyph-name="uniE00E" unicode="&#xe00e;" horiz-adv-x="0" 
d="M521 913h80l86 -175h-122l-24 64l-58 -64h-130zM733 1025l-37 -79l-203 72l64 110z" />
    <glyph glyph-name="uniE00F" unicode="&#xe00f;" horiz-adv-x="0" 
d="M521 911h80l86 -175h-122l-24 64l-58 -64h-130zM793 1018q-67 -64 -116 -64q-26 0 -71 22l-17 8l-15 7q-17 7 -27 7q-27 0 -86 -40l-3 92q67 65 115 65q31 0 76 -21l16 -8q10 -5 15 -7q15 -7 23 -7q24 0 86 39z" />
    <glyph glyph-name="uniE010" unicode="&#xe010;" horiz-adv-x="0" 
d="M333 866q-3 -37 36 -37q40 0 53 37h103q-44 -132 -185 -132q-127 0 -109 132h102zM556 970q-67 -64 -116 -64q-26 0 -71 22l-17 8l-15 7q-17 7 -27 7q-27 0 -86 -40l-3 92q67 65 115 65q31 0 76 -21l16 -8q10 -5 15 -7q15 -7 23 -7q24 0 86 39z" />
    <glyph glyph-name="uniE011" unicode="&#xe011;" horiz-adv-x="0" 
d="M333 869q-3 -37 36 -37q40 0 53 37h103q-44 -132 -185 -132q-127 0 -109 132h102zM273 1010l223 110l10 -120l-226 -78z" />
    <glyph glyph-name="uniE012" unicode="&#xe012;" horiz-adv-x="0" 
d="M333 868q-3 -37 36 -37q40 0 53 37h103q-44 -132 -185 -132q-127 0 -109 132h102zM513 996l-37 -79l-203 72l64 110z" />
    <glyph glyph-name="uniE013" unicode="&#xe013;" horiz-adv-x="0" 
d="M333 867q-3 -37 36 -37q40 0 53 37h103q-44 -132 -185 -132q-127 0 -109 132h102zM442 927q-42 -15 -75 -18.75l-17 53.25q11 3.75 28 9.75q37 12.75 30 30.75q-6 14.25 -44 0.75l-23 -8.25l-20 45l35 13.5q82 27 112 25.5q38 -2.25 52 -37.5q31 -75.75 -78 -114z" />
    <glyph glyph-name="uniE014" unicode="&#xe014;" horiz-adv-x="0" 
d="M521 910h80l86 -175h-122l-24 64l-58 -64h-130zM779 852q-42 -20 -75 -25l-17 71q11 5 28 13q37 17 30 41q-6 19 -44 1l-23 -11l-20 60l35 18q82 36 112 34q38 -3 52 -50q31 -101 -78 -152z" />
    <glyph glyph-name="uniE015" unicode="&#xe015;" horiz-adv-x="518" 
d="M510 634l-37 -79l-203 72l64 110z" />
    <glyph glyph-name="uniE016" unicode="&#xe016;" horiz-adv-x="559" 
d="M247 638l223 110l10 -120l-226 -78z" />
    <glyph glyph-name="uniE017" unicode="&#xe017;" horiz-adv-x="791" 
d="M521 728h80l86 -175h-122l-24 64l-58 -64h-130z" />
    <glyph glyph-name="uniE018" unicode="&#xe018;" horiz-adv-x="791" 
d="M477 575l-82 175h123l29 -66l53 66h129l-167 -175h-85z" />
    <glyph glyph-name="uniE019" unicode="&#xe019;" horiz-adv-x="446" 
d="M532 628q-67 -64 -116 -64q-26 0 -71 22l-17 8l-15 7q-17 7 -27 7q-27 0 -86 -40l-3 92q67 65 115 65q31 0 76 -21l16 -8q10 -5 15 -7q15 -7 23 -7q24 0 86 39z" />
    <glyph glyph-name="uniE01A" unicode="&#xe01a;" horiz-adv-x="446" 
d="M510 634l-37 -79l-203 72l64 110z" />
    <glyph glyph-name="uniE01B" unicode="&#xe01b;" horiz-adv-x="689" 
d="M465 628l156 190l89 -67l-164 -188zM272 628l155 189l89 -66l-164 -188z" />
    <glyph glyph-name="uniE01C" unicode="&#xe01c;" horiz-adv-x="462" 
d="M333 702q-3 -37 36 -37q40 0 53 37h103q-44 -132 -185 -132q-127 0 -109 132h102z" />
    <glyph glyph-name="uniE01D" unicode="&#xe01d;" horiz-adv-x="462" 
d="M333 702q-3 -37 36 -37q40 0 53 37h103q-44 -132 -185 -132q-127 0 -109 132h102z" />
    <glyph glyph-name="uniE01E" unicode="&#xe01e;" horiz-adv-x="791" 
d="M348 712q35 31 82 31q48 0 67 -31q17 -30 6 -77q-12 -50 -47 -79t-82 -29t-66 32q-18 30 -6 77t46 76zM377 615q6 -9 19 -9q27 0 36 29q4 12 -4 20q-7 8 -18 8q-28 0 -36 -27q-4 -11 3 -21z" />
    <glyph glyph-name="uniE01F" unicode="&#xe01f;" horiz-adv-x="264" 
d="M319 600q-42 -20 -75 -25l-17 71q11 5 28 13q37 17 30 41q-6 19 -44 1l-23 -11l-20 60l35 18q82 36 112 34q38 -3 52 -50q31 -101 -78 -152z" />
    <glyph glyph-name="uniE020" unicode="&#xe020;" horiz-adv-x="622" 
d="M247 719h116l-32 -137h-116zM543 719h116l-32 -137h-116z" />
    <glyph glyph-name="gravecomb" unicode="&#x300;" horiz-adv-x="0" 
d="M-76 634l-37 -79l-203 72l64 110z" />
    <glyph glyph-name="acutecomb" unicode="&#x301;" horiz-adv-x="0" 
d="M-324 638l223 110l10 -120l-226 -78z" />
    <glyph glyph-name="tildecomb" unicode="&#x303;" horiz-adv-x="0" 
d="M-36 628q-67 -64 -116 -64q-26 0 -71 22l-17 8l-15 7q-17 7 -27 7q-27 0 -86 -40l-3 92q67 65 115 65q31 0 76 -21l16 -8q10 -5 15 -7q15 -7 23 -7q24 0 86 39z" />
    <glyph glyph-name="dotbelowcomb" unicode="&#x323;" horiz-adv-x="0" 
d="M-235 -83h135l-25 -127h-135z" />
    <glyph glyph-name="uni031B" unicode="&#x31b;" horiz-adv-x="462" 
d="M375 496q64 12 76 65h113q-15 -71 -57 -105q-48 -39 -131 -39z" />
    <glyph glyph-name="hookabovecomb" unicode="&#x309;" horiz-adv-x="264" 
d="M319 600q-42 -20 -75 -25l-17 71q11 5 28 13q37 17 30 41q-6 19 -44 1l-23 -11l-20 60l35 18q82 36 112 34q38 -3 52 -50q31 -101 -78 -152z" />
    </font>
</defs>
</svg>
