<svg width="100" height="100" viewBox="0 0 100 100" fill="none" xmlns="http://www.w3.org/2000/svg">
<path d="M83.3989 63.7088H79.1705L76.2919 60.8303L76.1152 61.0071L76.2919 60.8303L76.2849 60.8232L76.1081 60.6464L75.9313 60.8232L73.0457 63.7088H69.1075H68.8575V63.9588V67.8969L65.8305 70.917L65.8303 70.9172L65.8232 70.9242L65.6464 71.101L65.8232 71.2778L68.8504 74.3049V78.2432V78.4932H69.1004H73.0386L75.9172 81.3717L75.9242 81.3788L76.101 81.5556L76.2778 81.3788L79.1634 78.4932H83.3848H83.6348V78.2432V74.0289L86.3717 71.292L86.3717 71.2919L86.3787 71.2849L86.555 71.1088L86.3795 70.932L83.6489 68.1808V63.9588V63.7088H83.3989ZM83.6489 69.4819L85.268 71.101L83.6489 72.7201V72.2992L84.6276 71.1807L84.7748 71.0125L84.6241 70.8475L83.6489 69.7795V69.4819ZM82.7242 68.5643V70.675L79.524 70.6878L76.2424 67.4062L76.0656 67.2294L75.8888 67.4062L72.5078 70.7873H69.7751V68.2741L73.4227 64.6264H78.7864L82.7242 68.5643ZM76.2424 74.7604L79.6158 71.387L82.7171 71.4061V73.6449L78.7933 77.5756H73.4298L69.7751 73.9209V71.4855H72.6139L75.8888 74.7604L76.0656 74.9372L76.2424 74.7604ZM80.0952 64.6264H82.7242V67.2555L80.0952 64.6264ZM72.121 77.5756H69.7751V75.2297L72.121 77.5756ZM74.3474 63.7017L76.1081 61.9411L77.8687 63.7017H74.3474ZM72.121 64.6264L69.7751 66.9724V64.6264H72.121ZM68.8504 72.3837V73.0032L66.9481 71.101L68.8504 69.1988V69.6859L67.7355 70.8809L67.5741 71.0539L67.7379 71.2246L68.8504 72.3837ZM74.3474 78.5003H77.8687L76.1081 80.261L74.3474 78.5003ZM80.0952 77.5756L82.7242 74.9465V77.5756H80.0952ZM75.3581 70.7873H74.3664C74.5091 69.9744 75.2148 69.3549 76.0656 69.3549C77.0182 69.3549 77.7976 70.1283 77.7976 71.0869C77.7976 72.0395 77.0241 72.8188 76.0656 72.8188C75.2504 72.8188 74.5642 72.2515 74.3822 71.4926H75.3716C75.4897 71.6692 75.6907 71.7828 75.917 71.7828C76.2831 71.7828 76.5684 71.4861 76.5704 71.1331C76.5797 70.7617 76.2846 70.4617 75.924 70.4617C75.6812 70.4617 75.4708 70.5933 75.3581 70.7873Z" fill="white" stroke="white" stroke-width="0.5"/>
<path d="M75.8064 56.4516C79.1452 56.4516 82.4081 57.6162 84.9887 59.7291L87.0339 57.2339C83.8758 54.65 79.8887 53.2258 75.8064 53.2258C66.0242 53.2258 58.0645 61.1855 58.0645 70.9678C58.0645 75.05 59.4887 79.0371 62.0726 82.1952L64.5677 80.15C62.4548 77.5694 61.2903 74.3065 61.2903 70.9678C61.2903 62.9629 67.8016 56.4516 75.8064 56.4516Z" fill="white"/>
<path d="M87.0452 61.7855C89.1581 64.3662 90.3226 67.6291 90.3226 70.9678C90.3226 78.9726 83.8113 85.4839 75.8065 85.4839C72.4677 85.4839 69.2048 84.3194 66.6242 82.2065L64.579 84.7016C67.7371 87.2855 71.7242 88.7097 75.8065 88.7097C85.5887 88.7097 93.5484 80.75 93.5484 70.9678C93.5484 66.8855 92.1242 62.8984 89.5403 59.7404L87.0452 61.7855Z" fill="white"/>
<path d="M30.3989 35.7088H26.1705L23.2919 32.8303L23.1152 33.0071L23.2919 32.8303L23.2849 32.8232L23.1081 32.6464L22.9313 32.8232L20.0457 35.7088H16.1075H15.8575V35.9588V39.8969L12.8305 42.917L12.8303 42.9172L12.8232 42.9242L12.6464 43.101L12.8232 43.2778L15.8504 46.3049V50.2432V50.4932H16.1004H20.0386L22.9172 53.3717L22.9242 53.3788L23.101 53.5556L23.2778 53.3788L26.1634 50.4932H30.3848H30.6348V50.2432V46.0289L33.3717 43.292L33.3717 43.2919L33.3787 43.2849L33.555 43.1088L33.3795 42.932L30.6489 40.1808V35.9588V35.7088H30.3989ZM30.6489 41.4819L32.268 43.101L30.6489 44.7201V44.2992L31.6276 43.1807L31.7748 43.0125L31.6241 42.8475L30.6489 41.7795V41.4819ZM29.7242 40.5643V42.675L26.524 42.6878L23.2424 39.4062L23.0656 39.2294L22.8888 39.4062L19.5078 42.7873H16.7751V40.2741L20.4227 36.6264H25.7864L29.7242 40.5643ZM23.2424 46.7604L26.6158 43.387L29.7171 43.4061V45.6449L25.7933 49.5756H20.4298L16.7751 45.9209V43.4855H19.6139L22.8888 46.7604L23.0656 46.9372L23.2424 46.7604ZM27.0952 36.6264H29.7242V39.2555L27.0952 36.6264ZM19.121 49.5756H16.7751V47.2297L19.121 49.5756ZM21.3474 35.7017L23.1081 33.9411L24.8687 35.7017H21.3474ZM19.121 36.6264L16.7751 38.9724V36.6264H19.121ZM15.8504 44.3837V45.0032L13.9481 43.101L15.8504 41.1988V41.6859L14.7355 42.8809L14.5741 43.0539L14.7379 43.2246L15.8504 44.3837ZM21.3474 50.5003H24.8687L23.1081 52.261L21.3474 50.5003ZM27.0952 49.5756L29.7242 46.9465V49.5756H27.0952ZM22.3581 42.7873H21.3664C21.5091 41.9744 22.2148 41.3549 23.0656 41.3549C24.0182 41.3549 24.7976 42.1283 24.7976 43.0869C24.7976 44.0395 24.0241 44.8188 23.0656 44.8188C22.2504 44.8188 21.5642 44.2515 21.3822 43.4926H22.3716C22.4897 43.6692 22.6907 43.7828 22.917 43.7828C23.2831 43.7828 23.5684 43.4861 23.5704 43.1331C23.5797 42.7617 23.2846 42.4617 22.924 42.4617C22.6812 42.4617 22.4708 42.5933 22.3581 42.7873Z" fill="white" stroke="white" stroke-width="0.5"/>
<path d="M35.421 29.8145C32.2629 27.2306 28.2758 25.8064 24.1936 25.8064C14.4113 25.8064 6.45163 33.7661 6.45163 43.5483C6.45163 47.6306 7.87582 51.6177 10.4597 54.7757L12.9549 52.7306C10.842 50.1499 9.67744 46.887 9.67744 43.5483C9.67744 35.5435 16.1887 29.0322 24.1936 29.0322C27.5323 29.0322 30.7952 30.1967 33.3758 32.3096L35.421 29.8145Z" fill="white"/>
<path d="M35.4323 34.3661C37.5452 36.9467 38.7097 40.2096 38.7097 43.5483C38.7097 51.5532 32.1984 58.0645 24.1935 58.0645C20.8548 58.0645 17.5919 56.9 15.0113 54.7871L12.9661 57.2822C16.1242 59.8661 20.1113 61.2903 24.1935 61.2903C33.9758 61.2903 41.9355 53.3306 41.9355 43.5483C41.9355 39.4661 40.5113 35.479 37.9274 32.3209L35.4323 34.3661Z" fill="white"/>
<path d="M51.6129 29.0322H48.3871V25.8064H45.1613V99.9999H54.8387V25.8064H51.6129V29.0322ZM51.6129 96.7741H48.3871V32.258H51.6129V96.7741Z" fill="white"/>
<path d="M94.6194 16.5371C94.0226 16.0065 80.0516 3.86452 58.0645 3.28065V0H41.9355V3.28065C19.9484 3.86452 5.97742 16.0065 5.38065 16.5371L4.83871 17.0177V20.9677H8.06452L8.42742 20.9274C8.62742 20.879 27.8645 16.479 41.9355 16.15V22.5806H58.0645V16.15C72.1355 16.479 91.3726 20.879 91.5726 20.9258L95.1613 20.9677V17.0177L94.6194 16.5371ZM41.9355 12.929C29.9613 13.1919 14.7871 16.2435 9.55 17.3726C14.0532 14.1242 25.7936 6.95484 41.9355 6.49516V12.929ZM54.8387 19.3548H45.1613V3.22581H54.8387V19.3548ZM58.0645 12.929V6.49516C74.1597 6.95645 85.921 14.1177 90.4403 17.371C85.1919 16.2403 70.0306 13.1919 58.0645 12.929Z" fill="white"/>
<path d="M67.742 35.4839H64.5161V38.7097H67.742V35.4839Z" fill="white"/>
<path d="M67.742 41.9354H64.5161V45.1612H67.742V41.9354Z" fill="white"/>
<path d="M70.9678 38.7097H67.7419V41.9355H70.9678V38.7097Z" fill="white"/>
<path d="M64.5161 38.7097H61.2903V41.9355H64.5161V38.7097Z" fill="white"/>
<path d="M35.4839 67.7419H32.2581V70.9678H35.4839V67.7419Z" fill="white"/>
<path d="M35.4839 74.1936H32.2581V77.4194H35.4839V74.1936Z" fill="white"/>
<path d="M38.7097 70.9678H35.4839V74.1936H38.7097V70.9678Z" fill="white"/>
<path d="M32.2581 70.9678H29.0323V74.1936H32.2581V70.9678Z" fill="white"/>
<path d="M11.2903 61.2903H8.06451V64.5161H11.2903V61.2903Z" fill="white"/>
<path d="M11.2903 67.7419H8.06451V70.9678H11.2903V67.7419Z" fill="white"/>
<path d="M14.5161 64.5161H11.2903V67.7419H14.5161V64.5161Z" fill="white"/>
<path d="M8.06452 64.5161H4.83871V67.7419H8.06452V64.5161Z" fill="white"/>
<path d="M90.3226 90.3226H87.0968V93.5484H90.3226V90.3226Z" fill="white"/>
<path d="M90.3226 96.7742H87.0968V100H90.3226V96.7742Z" fill="white"/>
<path d="M93.5484 93.5483H90.3226V96.7741H93.5484V93.5483Z" fill="white"/>
<path d="M87.0968 93.5483H83.871V96.7741H87.0968V93.5483Z" fill="white"/>
<path d="M77.4193 22.5807H74.1935V25.8065H77.4193V22.5807Z" fill="white"/>
<path d="M77.4193 29.0322H74.1935V32.258H77.4193V29.0322Z" fill="white"/>
<path d="M80.6452 25.8064H77.4194V29.0322H80.6452V25.8064Z" fill="white"/>
<path d="M74.1936 25.8064H70.9677V29.0322H74.1936V25.8064Z" fill="white"/>
<path d="M91.9355 41.9354H88.7097V45.1612H91.9355V41.9354Z" fill="white"/>
<path d="M91.9355 48.3871H88.7097V51.6129H91.9355V48.3871Z" fill="white"/>
<path d="M95.1613 45.1613H91.9355V48.3871H95.1613V45.1613Z" fill="white"/>
<path d="M88.7097 45.1613H85.4839V48.3871H88.7097V45.1613Z" fill="white"/>
</svg>
