<svg width="100" height="100" viewBox="0 0 100 100" fill="none" xmlns="http://www.w3.org/2000/svg">
<path d="M54.8387 48.3871H33.6419C32.921 45.6129 30.4177 43.5484 27.4194 43.5484V0H19.3548C14.9081 0 11.2903 3.61774 11.2903 8.06452V25.5113C9.73387 26.4065 8.42097 27.6984 7.55806 29.2806L3.35 36.9984C1.15806 41.0145 0 45.5548 0 50.129V71.5694C0 75.6435 0.725806 79.6452 2.15645 83.4613L4.83871 90.6145V100H8.06452V90.0306L5.17742 82.3306C3.88226 78.8758 3.22581 75.2565 3.22581 71.571V50.129C3.22581 46.0935 4.24839 42.0871 6.18065 38.5435L10.3887 30.8258C10.6355 30.3774 10.9484 29.9726 11.2903 29.5952V43.5484C11.2903 46.1952 12.5903 48.529 14.5661 50H14.5161V53.779C14.5161 55.9323 15.3565 57.9581 16.879 59.4806L20.0984 62.7C19.8016 63.2355 19.4581 63.7452 19.0226 64.1823C17.7661 65.4371 16.0968 66.129 14.321 66.129H11.2903V69.3548H14.321C16.9597 69.3548 19.4387 68.3274 21.3016 66.4629C23.1661 64.5968 24.1935 62.1177 24.1935 59.4823V50C24.1935 48.221 25.6403 46.7742 27.4194 46.7742C29.1984 46.7742 30.6452 48.221 30.6452 50V71.7968C30.6452 76.1919 29.2952 80.4048 26.7403 83.9839L22.5806 89.8064V100H25.8065V90.8387L29.3645 85.8581C32.3129 81.729 33.871 76.8661 33.871 71.7968V51.6129H54.8387V48.3871ZM20.9677 59.0097L19.1597 57.2016C18.2581 56.3 17.7419 55.0532 17.7419 53.779V51.45C18.2629 51.5565 18.8032 51.6129 19.3548 51.6129H20.9677V59.0097ZM24.1935 44.4452C22.7274 45.3016 21.6339 46.7048 21.1968 48.3871H19.3548C16.6871 48.3871 14.5161 46.2161 14.5161 43.5484V8.06452C14.5161 5.39677 16.6871 3.22581 19.3548 3.22581H24.1935V44.4452Z" fill="white"/>
<path d="M91.9355 0H30.6452V3.22581H87.0968V46.7742H90.3226V3.22581H91.9355C94.6032 3.22581 96.7742 5.39677 96.7742 8.06452V43.5484C96.7742 46.2161 94.6032 48.3871 91.9355 48.3871V51.6129C96.3822 51.6129 100 47.9952 100 43.5484V8.06452C100 3.61774 96.3822 0 91.9355 0Z" fill="white"/>
<path d="M20.9677 19.3549H17.7419V32.2581H20.9677V19.3549Z" fill="white"/>
<path d="M93.529 54.8387C92.3565 54.8532 91.2694 55.2048 90.3226 55.7661V54.8387C90.3226 51.2806 87.429 48.387 83.871 48.387C82.5339 48.387 81.2903 48.7967 80.2597 49.4951C79.3774 46.9806 77.0065 45.1612 74.1936 45.1612C73.0129 45.1612 71.921 45.5032 70.9677 46.058V32.258C70.9677 28.6999 68.0742 25.8064 64.5161 25.8064C60.9581 25.8064 58.0645 28.6999 58.0645 32.258V54.8387H57.9565C52.679 54.8387 48.3871 59.1306 48.3871 64.4064V81.7628C48.3871 85.6322 49.8968 89.2725 52.6371 92.0128L58.0645 97.4435V99.9999H61.2903V96.1064L54.9177 89.7322C52.7871 87.6016 51.6129 84.7709 51.6129 81.7628V64.4064C51.6129 60.9096 54.4581 58.0645 57.9565 58.0645H58.0645V70.9677H61.2903V32.258C61.2903 30.479 62.7371 29.0322 64.5161 29.0322C66.2952 29.0322 67.7419 30.479 67.7419 32.258V51.6128V70.9677H70.9677V51.6128C70.9677 49.8338 72.4145 48.387 74.1936 48.387C75.9726 48.387 77.4194 49.8338 77.4194 51.6128V54.8387V70.9677H80.6452V54.8387C80.6452 53.0596 82.0919 51.6128 83.871 51.6128C85.65 51.6128 87.0968 53.0596 87.0968 54.8387V61.3467V70.9677H90.3226V61.3467C90.3226 59.558 91.7774 58.0854 93.5677 58.0645C94.4081 58.0838 95.2258 58.379 95.8323 58.979C96.4403 59.579 96.7742 60.3806 96.7742 61.2338V81.7532C96.7742 84.7693 95.5984 87.6032 93.4661 89.7354L87.0968 96.1048V99.9999H90.3226C90.3226 99.9999 90.3226 98.3822 90.3226 97.4419L95.7468 92.0177C98.4887 89.2757 100 85.6322 100 81.7532V61.2338C100 59.5112 99.3258 57.8967 98.1 56.6854C96.8758 55.4741 95.2387 54.8209 93.529 54.8387Z" fill="white"/>
<path d="M54.7929 18.1027H50.5644L47.6859 15.2242L47.5091 15.401L47.6859 15.2242L47.6788 15.2171L47.502 15.0404L47.3252 15.2171L44.4397 18.1027H40.5014H40.2514V18.3527V22.2908L37.2244 25.3109L37.2242 25.3111L37.2172 25.3182L37.0404 25.4949L37.2172 25.6717L40.2443 28.6989V32.6371V32.8871H40.4943H44.4326L47.3111 35.7656L47.3182 35.7727L47.4949 35.9495L47.6717 35.7727L50.5573 32.8871H54.7787H55.0287V32.6371V28.4228L57.7656 25.6859L57.7657 25.6859L57.7727 25.6788L57.9489 25.5027L57.7734 25.3259L55.0429 22.5747V18.3527V18.1027H54.7929ZM55.0429 23.8758L56.662 25.4949L55.0429 27.114V26.6931L56.0216 25.5746L56.1687 25.4064L56.018 25.2414L55.0429 24.1734V23.8758ZM54.1182 22.9582V25.069L50.9179 25.0817L47.6363 21.8001L47.4596 21.6234L47.2828 21.8001L43.9017 25.1812H41.169V22.668L44.8167 19.0204H50.1803L54.1182 22.9582ZM47.6363 29.1543L51.0097 25.781L54.1111 25.8V28.0389L50.1873 31.9695H44.8237L41.169 28.3148V25.8794H44.0079L47.2828 29.1543L47.4596 29.3311L47.6363 29.1543ZM51.4891 19.0204H54.1182V21.6494L51.4891 19.0204ZM43.515 31.9695H41.169V29.6236L43.515 31.9695ZM45.7414 18.0957L47.502 16.335L49.2627 18.0957H45.7414ZM43.515 19.0204L41.169 21.3663V19.0204H43.515ZM40.2443 26.7776V27.3972L38.3421 25.4949L40.2443 23.5927V24.0798L39.1294 25.2748L38.968 25.4478L39.1318 25.6185L40.2443 26.7776ZM45.7414 32.8942H49.2627L47.502 34.6549L45.7414 32.8942ZM51.4891 31.9695L54.1182 29.3404V31.9695H51.4891ZM46.752 25.1812H45.7603C45.903 24.3683 46.6087 23.7488 47.4596 23.7488C48.4122 23.7488 49.1915 24.5223 49.1915 25.4808C49.1915 26.4334 48.4181 27.2128 47.4596 27.2128C46.6444 27.2128 45.9581 26.6454 45.7762 25.8865H46.7655C46.8837 26.0631 47.0847 26.1767 47.3109 26.1767C47.677 26.1767 47.9623 25.88 47.9644 25.5271C47.9736 25.1556 47.6786 24.8556 47.318 24.8556C47.0751 24.8556 46.8647 24.9872 46.752 25.1812Z" fill="white" stroke="white" stroke-width="0.5"/>
<path d="M62.6113 22.9017L65.7742 22.2597C64.1032 14.0339 56.7919 8.06458 48.3871 8.06458C38.6048 8.06458 30.6452 16.0243 30.6452 25.8065C30.6452 35.5888 38.6048 43.5484 48.3871 43.5484C50.8532 43.5484 53.2419 43.0517 55.4839 42.071L54.1935 39.1146C52.3597 39.9162 50.4064 40.3226 48.3871 40.3226C40.3823 40.3226 33.871 33.8097 33.871 25.8065C33.871 17.8033 40.3823 11.2904 48.3871 11.2904C55.2645 11.2904 61.2468 16.1743 62.6113 22.9017Z" fill="white"/>
<path d="M79.0323 17.742C81.7 17.742 83.871 15.571 83.871 12.9033C83.871 10.2355 81.7 8.06458 79.0323 8.06458C76.3645 8.06458 74.1936 10.2355 74.1936 12.9033C74.1936 15.571 76.3645 17.742 79.0323 17.742ZM79.0323 11.2904C79.9226 11.2904 80.6452 12.0146 80.6452 12.9033C80.6452 13.792 79.9226 14.5162 79.0323 14.5162C78.1419 14.5162 77.4194 13.792 77.4194 12.9033C77.4194 12.0146 78.1419 11.2904 79.0323 11.2904Z" fill="white"/>
<path d="M79.0323 30.6452C81.7 30.6452 83.871 28.4742 83.871 25.8065C83.871 23.1387 81.7 20.9678 79.0323 20.9678C76.3645 20.9678 74.1936 23.1387 74.1936 25.8065C74.1936 28.4742 76.3645 30.6452 79.0323 30.6452ZM79.0323 24.1936C79.9226 24.1936 80.6452 24.9178 80.6452 25.8065C80.6452 26.6952 79.9226 27.4194 79.0323 27.4194C78.1419 27.4194 77.4194 26.6952 77.4194 25.8065C77.4194 24.9178 78.1419 24.1936 79.0323 24.1936Z" fill="white"/>
<path d="M79.0323 43.5484C81.7 43.5484 83.871 41.3774 83.871 38.7097C83.871 36.0419 81.7 33.871 79.0323 33.871C76.3645 33.871 74.1936 36.0419 74.1936 38.7097C74.1936 41.3774 76.3645 43.5484 79.0323 43.5484ZM79.0323 37.0968C79.9226 37.0968 80.6452 37.821 80.6452 38.7097C80.6452 39.5984 79.9226 40.3226 79.0323 40.3226C78.1419 40.3226 77.4194 39.5984 77.4194 38.7097C77.4194 37.821 78.1419 37.0968 79.0323 37.0968Z" fill="white"/>
</svg>
