<svg width="100" height="100" viewBox="0 0 100 100" fill="none" xmlns="http://www.w3.org/2000/svg">
<path d="M50 35.4839C53.3387 35.4839 56.6016 36.6484 59.1823 38.7613L61.2274 36.2645C58.0694 33.6806 54.0823 32.2581 50 32.2581C40.2177 32.2581 32.2581 40.2177 32.2581 50C32.2581 54.0823 33.6823 58.0693 36.2661 61.2274L38.7613 59.1839C36.6484 56.6016 35.4839 53.3387 35.4839 50C35.4839 41.9968 41.9952 35.4839 50 35.4839Z" fill="white"/>
<path d="M61.2387 40.8161C63.3516 43.3984 64.5161 46.6613 64.5161 50C64.5161 58.0032 58.0048 64.5161 50 64.5161C46.6613 64.5161 43.3984 63.3516 40.8177 61.2387L38.7726 63.7355C41.9306 66.3194 45.9177 67.742 50 67.742C59.7823 67.742 67.7419 59.7823 67.7419 50C67.7419 45.9177 66.3177 41.9306 63.7339 38.7726L61.2387 40.8161Z" fill="white"/>
<path d="M93.8887 41.9694L88.2581 21.6952C89.5016 20.8194 90.3226 19.3774 90.3226 17.7419C90.3226 15.0742 88.1516 12.9032 85.4839 12.9032C83.0806 12.9032 81.0968 14.6694 80.7226 16.9677L71.9177 18.5677C71.0823 17.1194 69.5339 16.129 67.7419 16.129C67.6774 16.129 67.6161 16.1452 67.5516 16.1484L64.4726 8.45323C65.4806 7.56613 66.129 6.28226 66.129 4.83871C66.129 2.17097 63.9581 0 61.2903 0C58.9694 0 57.0274 1.64516 56.5613 3.82903L30.1694 7.27097C29.2129 4.90484 26.9 3.22581 24.1935 3.22581C20.6355 3.22581 17.7419 6.11935 17.7419 9.67742C17.7419 10.5468 17.9194 11.3742 18.2323 12.1323L7.51774 20.1694C6.75 19.6565 5.82903 19.3548 4.83871 19.3548C2.17097 19.3548 0 21.5258 0 24.1935C0 26.2935 1.35323 28.0677 3.22581 28.7355V63.2016C1.35323 63.8677 0 65.6419 0 67.7419C0 70.4097 2.17097 72.5806 4.83871 72.5806C6.30645 72.5806 7.60645 71.9097 8.49516 70.8758L19.429 75.0806C19.4 75.3226 19.3548 75.5581 19.3548 75.8064C19.3548 79.3645 22.2484 82.2581 25.8065 82.2581C26.9 82.2581 27.9145 81.9597 28.8177 81.4774L39.2935 92.9065C38.9323 93.5839 38.7097 94.3436 38.7097 95.1613C38.7097 97.829 40.8806 100 43.5484 100C45.6484 100 47.4226 98.6468 48.0903 96.7742H61.5887C62.2565 98.6468 64.0306 100 66.1306 100C68.7984 100 70.9694 97.829 70.9694 95.1613C70.9694 94.3436 70.7468 93.5839 70.3855 92.9065L81.979 80.2581C82.5597 80.5064 83.2 80.6452 83.871 80.6452C86.5387 80.6452 88.7097 78.4742 88.7097 75.8064C88.7097 74.2919 87.9952 72.9532 86.9016 72.0661L93.0016 54.7839C93.1855 54.7984 93.3613 54.8387 93.5484 54.8387C97.1065 54.8387 100 51.9452 100 48.3871C100 44.9468 97.2855 42.15 93.8887 41.9694ZM85.4839 16.129C86.3742 16.129 87.0968 16.8532 87.0968 17.7419C87.0968 18.6306 86.3742 19.3548 85.4839 19.3548C84.5936 19.3548 83.871 18.6306 83.871 17.7419C83.871 16.8532 84.5936 16.129 85.4839 16.129ZM72.5032 21.7419L81.3081 20.1419C82.0903 21.4984 83.5 22.4306 85.1452 22.5468L90.7194 42.6177C90.6323 42.6613 90.5484 42.7097 90.4645 42.7565L72.0274 23.1661C72.2548 22.7242 72.4194 22.25 72.5032 21.7419ZM88.1048 44.9581C87.7081 45.5839 87.4097 46.2774 87.2484 47.0258L74.071 47.5532C73.3484 40.3855 69.4742 34.1468 63.871 30.2081L66.6968 25.6871C67.0323 25.7597 67.3823 25.8065 67.7419 25.8065C68.4355 25.8065 69.0919 25.6548 69.6887 25.3903L88.1048 44.9581ZM70.9677 50C70.9677 61.5613 61.5613 70.9677 50 70.9677C38.4387 70.9677 29.0323 61.5613 29.0323 50C29.0323 38.4387 38.4387 29.0323 50 29.0323C61.5613 29.0323 70.9677 38.4387 70.9677 50ZM67.7419 19.3548C68.6323 19.3548 69.3548 20.079 69.3548 20.9677C69.3548 21.8565 68.6323 22.5806 67.7419 22.5806C66.8516 22.5806 66.129 21.8565 66.129 20.9677C66.129 20.079 66.8516 19.3548 67.7419 19.3548ZM61.2903 3.22581C62.1806 3.22581 62.9032 3.95 62.9032 4.83871C62.9032 5.72742 62.1806 6.45161 61.2903 6.45161C60.4 6.45161 59.6774 5.72742 59.6774 4.83871C59.6774 3.95 60.4 3.22581 61.2903 3.22581ZM30.5661 10.4742L57 7.02581C57.8 8.59194 59.4129 9.67742 61.2903 9.67742C61.3548 9.67742 61.4161 9.66129 61.4806 9.65806L64.5581 17.3532C63.5516 18.2403 62.9032 19.5242 62.9032 20.9677C62.9032 22.1032 63.3129 23.1355 63.9694 23.9613L61.1129 28.5323C57.7806 26.8016 54.0065 25.8065 50 25.8065C45.779 25.8065 41.8097 26.8984 38.3516 28.8081L28.9081 14.0516C29.8048 13.0855 30.3935 11.8468 30.5661 10.4742ZM35.65 30.5661C33.3097 32.2984 31.2903 34.4306 29.7032 36.8774L25.7258 34.6677C25.7694 34.4081 25.8065 34.1452 25.8065 33.871C25.8065 31.9984 24.7258 30.3887 23.1661 29.5855L24.971 16.05C25.3903 15.9984 25.7952 15.9097 26.1871 15.7806L35.65 30.5661ZM24.1935 6.45161C25.9726 6.45161 27.4194 7.89839 27.4194 9.67742C27.4194 11.4565 25.9726 12.9032 24.1935 12.9032C22.4145 12.9032 20.9677 11.4565 20.9677 9.67742C20.9677 7.89839 22.4145 6.45161 24.1935 6.45161ZM22.5806 33.871C22.5806 34.7597 21.8581 35.4839 20.9677 35.4839C20.0774 35.4839 19.3548 34.7597 19.3548 33.871C19.3548 32.9823 20.0774 32.2581 20.9677 32.2581C21.8581 32.2581 22.5806 32.9823 22.5806 33.871ZM20.1887 14.6952C20.6694 15.079 21.1919 15.4113 21.7694 15.6468L19.971 29.1371C19.1935 29.3 18.4984 29.6661 17.9081 30.1532L9.58065 25.1565C9.64355 24.8452 9.67742 24.5242 9.67742 24.1935C9.67742 23.6919 9.57903 23.2161 9.43548 22.7597L20.1887 14.6952ZM4.83871 22.5806C5.72903 22.5806 6.45161 23.3048 6.45161 24.1935C6.45161 25.0823 5.72903 25.8065 4.83871 25.8065C3.94839 25.8065 3.22581 25.0823 3.22581 24.1935C3.22581 23.3048 3.94839 22.5806 4.83871 22.5806ZM4.83871 69.3548C3.94839 69.3548 3.22581 68.6306 3.22581 67.7419C3.22581 66.8532 3.94839 66.129 4.83871 66.129C5.72903 66.129 6.45161 66.8532 6.45161 67.7419C6.45161 68.6306 5.72903 69.3548 4.83871 69.3548ZM6.45161 28.7355C6.98548 28.5452 7.46935 28.2645 7.89839 27.9097L16.2258 32.9065C16.1629 33.2194 16.129 33.5403 16.129 33.871C16.129 35.2065 16.6726 36.4177 17.5516 37.2935L6.45161 60.6V28.7355ZM20.571 72.0645L9.66452 67.8694C9.66613 67.8258 9.67742 67.7855 9.67742 67.7419C9.67742 66.4064 9.13387 65.1952 8.25484 64.3194L20.4742 38.6597C20.6387 38.6774 20.7984 38.7097 20.9677 38.7097C22.1919 38.7097 23.3 38.2371 24.1532 37.4855L28.1419 39.7016C26.6597 42.8306 25.8065 46.3129 25.8065 50C25.8065 56.371 28.3 62.1564 32.3387 66.4806L28.8806 70.1694C27.9629 69.6661 26.9258 69.3548 25.8065 69.3548C23.6468 69.3548 21.7419 70.4306 20.571 72.0645ZM25.8065 79.0323C24.0274 79.0323 22.5806 77.5855 22.5806 75.8064C22.5806 74.0274 24.0274 72.5806 25.8065 72.5806C27.5855 72.5806 29.0323 74.0274 29.0323 75.8064C29.0323 77.5855 27.5855 79.0323 25.8065 79.0323ZM43.5484 96.7742C42.6581 96.7742 41.9355 96.05 41.9355 95.1613C41.9355 94.2726 42.6581 93.5484 43.5484 93.5484C44.4387 93.5484 45.1613 94.2726 45.1613 95.1613C45.1613 96.05 44.4387 96.7742 43.5484 96.7742ZM61.5871 93.5484H48.0887C47.4226 91.6758 45.6484 90.3226 43.5484 90.3226C42.8774 90.3226 42.2371 90.4613 41.6565 90.7097L31.2097 79.3129C31.8677 78.3016 32.2581 77.1 32.2581 75.8064C32.2581 74.5387 31.8774 73.3629 31.2435 72.3645L34.6758 68.7032C38.8516 72.1323 44.1887 74.1936 50 74.1936C52.2048 74.1936 54.3323 73.871 56.3629 73.3161L62.7339 91.721C62.2194 92.2274 61.8339 92.8548 61.5871 93.5484ZM66.129 96.7742C65.2387 96.7742 64.5161 96.05 64.5161 95.1613C64.5161 94.2726 65.2387 93.5484 66.129 93.5484C67.0194 93.5484 67.7419 94.2726 67.7419 95.1613C67.7419 96.05 67.0194 96.7742 66.129 96.7742ZM68.0226 90.7097C67.4403 90.4613 66.8 90.3226 66.129 90.3226C65.9758 90.3226 65.8306 90.3532 65.6806 90.3677L59.421 72.2839C62.9871 70.771 66.1129 68.4226 68.5629 65.4903L79.3258 74.2032C79.1484 74.7065 79.0323 75.2419 79.0323 75.8064C79.0323 76.6242 79.2548 77.3839 79.6161 78.0613L68.0226 90.7097ZM83.871 77.4194C82.9806 77.4194 82.2581 76.6952 82.2581 75.8064C82.2581 74.9177 82.9806 74.1936 83.871 74.1936C84.7613 74.1936 85.4839 74.9177 85.4839 75.8064C85.4839 76.6952 84.7613 77.4194 83.871 77.4194ZM83.8661 70.9677C82.9419 70.9677 82.0871 71.2419 81.3532 71.6936L70.45 62.8677C72.6758 59.3419 74.0113 55.2113 74.1532 50.7758L87.4016 50.2468C87.8371 51.6806 88.7307 52.9177 89.9484 53.7387L83.8661 70.9677ZM93.5484 51.6129C91.7694 51.6129 90.3226 50.1661 90.3226 48.3871C90.3226 46.6081 91.7694 45.1613 93.5484 45.1613C95.3274 45.1613 96.7742 46.6081 96.7742 48.3871C96.7742 50.1661 95.3274 51.6129 93.5484 51.6129Z" fill="white"/>
<path d="M56.7929 42.1027H52.5644L49.6859 39.2242L49.5091 39.401L49.6859 39.2242L49.6788 39.2171L49.502 39.0404L49.3252 39.2171L46.4397 42.1027H42.5014H42.2514V42.3527V46.2908L39.2244 49.3109L39.2242 49.3111L39.2172 49.3182L39.0404 49.4949L39.2172 49.6717L42.2443 52.6989V56.6371V56.8871H42.4943H46.4326L49.3111 59.7656L49.3182 59.7727L49.4949 59.9495L49.6717 59.7727L52.5573 56.8871H56.7787H57.0287V56.6371V52.4228L59.7656 49.6859L59.7657 49.6859L59.7727 49.6788L59.9489 49.5027L59.7734 49.3259L57.0429 46.5747V42.3527V42.1027H56.7929ZM57.0429 47.8758L58.662 49.4949L57.0429 51.114V50.6931L58.0216 49.5746L58.1687 49.4064L58.018 49.2414L57.0429 48.1734V47.8758ZM56.1182 46.9582V49.069L52.9179 49.0817L49.6363 45.8001L49.4596 45.6234L49.2828 45.8001L45.9017 49.1812H43.169V46.668L46.8167 43.0204H52.1803L56.1182 46.9582ZM49.6363 53.1543L53.0097 49.781L56.1111 49.8V52.0389L52.1873 55.9695H46.8237L43.169 52.3148V49.8794H46.0079L49.2828 53.1543L49.4596 53.3311L49.6363 53.1543ZM53.4891 43.0204H56.1182V45.6494L53.4891 43.0204ZM45.515 55.9695H43.169V53.6236L45.515 55.9695ZM47.7414 42.0957L49.502 40.335L51.2627 42.0957H47.7414ZM45.515 43.0204L43.169 45.3663V43.0204H45.515ZM42.2443 50.7776V51.3972L40.3421 49.4949L42.2443 47.5927V48.0798L41.1294 49.2748L40.968 49.4478L41.1318 49.6185L42.2443 50.7776ZM47.7414 56.8942H51.2627L49.502 58.6549L47.7414 56.8942ZM53.4891 55.9695L56.1182 53.3404V55.9695H53.4891ZM48.752 49.1812H47.7603C47.903 48.3683 48.6087 47.7488 49.4596 47.7488C50.4122 47.7488 51.1915 48.5223 51.1915 49.4808C51.1915 50.4334 50.4181 51.2128 49.4596 51.2128C48.6444 51.2128 47.9581 50.6454 47.7762 49.8865H48.7655C48.8837 50.0631 49.0847 50.1767 49.3109 50.1767C49.677 50.1767 49.9623 49.88 49.9644 49.5271C49.9736 49.1556 49.6786 48.8556 49.318 48.8556C49.0751 48.8556 48.8647 48.9872 48.752 49.1812Z" fill="white" stroke="white" stroke-width="0.5"/>
</svg>
