<svg width="100" height="100" viewBox="0 0 100 100" fill="none" xmlns="http://www.w3.org/2000/svg">
<path d="M25.5756 50.0001C25.5756 63.4677 36.5324 74.4245 50 74.4245C63.4676 74.4245 74.4244 63.4677 74.4244 50.0001C74.4244 36.5325 63.4676 25.5757 50 25.5757C36.5324 25.5757 25.5756 36.5325 25.5756 50.0001ZM71.1678 50.0001C71.1678 61.6717 61.6716 71.1679 50 71.1679C38.3284 71.1679 28.8322 61.6717 28.8322 50.0001C28.8322 38.3285 38.3284 28.8323 50 28.8323C61.6716 28.8323 71.1678 38.3285 71.1678 50.0001Z" fill="white"/>
<path d="M57.7929 43.1027H53.5644L50.6859 40.2242L50.5091 40.401L50.6859 40.2242L50.6788 40.2171L50.502 40.0404L50.3252 40.2171L47.4396 43.1027H43.5014H43.2514V43.3527V47.2908L40.2244 50.3109L40.2242 50.3111L40.2171 50.3182L40.0404 50.4949L40.2171 50.6717L43.2443 53.6989V57.6371V57.8871H43.4943H47.4326L50.3111 60.7656L50.3182 60.7727L50.4949 60.9495L50.6717 60.7727L53.5573 57.8871H57.7787H58.0287V57.6371V53.4228L60.7656 50.6859L60.7656 50.6859L60.7727 50.6788L60.9489 50.5027L60.7734 50.3259L58.0429 47.5747V43.3527V43.1027H57.7929ZM58.0429 48.8758L59.6619 50.4949L58.0429 52.114V51.6931L59.0215 50.5746L59.1687 50.4064L59.018 50.2414L58.0429 49.1734V48.8758ZM57.1181 47.9582V50.069L53.9179 50.0817L50.6363 46.8001L50.4595 46.6234L50.2828 46.8001L46.9017 50.1812H44.169V47.668L47.8166 44.0204H53.1803L57.1181 47.9582ZM50.6363 54.1543L54.0097 50.781L57.1111 50.8V53.0389L53.1873 56.9695H47.8237L44.169 53.3148V50.8794H47.0079L50.2828 54.1543L50.4595 54.3311L50.6363 54.1543ZM54.4891 44.0204H57.1181V46.6494L54.4891 44.0204ZM46.5149 56.9695H44.169V54.6236L46.5149 56.9695ZM48.7413 43.0957L50.502 41.335L52.2627 43.0957H48.7413ZM46.5149 44.0204L44.169 46.3663V44.0204H46.5149ZM43.2443 51.7776V52.3972L41.3421 50.4949L43.2443 48.5927V49.0798L42.1294 50.2748L41.968 50.4478L42.1318 50.6185L43.2443 51.7776ZM48.7413 57.8942H52.2627L50.502 59.6549L48.7413 57.8942ZM54.4891 56.9695L57.1181 54.3404V56.9695H54.4891ZM49.752 50.1812H48.7603C48.903 49.3683 49.6087 48.7488 50.4595 48.7488C51.4121 48.7488 52.1915 49.5223 52.1915 50.4808C52.1915 51.4334 51.4181 52.2128 50.4595 52.2128C49.6443 52.2128 48.9581 51.6454 48.7761 50.8865H49.7655C49.8836 51.0631 50.0847 51.1767 50.3109 51.1767C50.677 51.1767 50.9623 50.88 50.9644 50.5271C50.9736 50.1556 50.6786 49.8556 50.318 49.8556C50.0751 49.8556 49.8647 49.9872 49.752 50.1812Z" fill="white" stroke="white" stroke-width="0.5"/>
<path d="M32.0887 50.0001C32.0887 54.1213 33.5249 58.1464 36.1334 61.3346L38.654 59.27C36.521 56.6647 35.3453 53.3707 35.3453 50.0001C35.3453 41.9189 41.9204 35.3455 50 35.3455C53.3705 35.3455 56.6646 36.5211 59.2715 38.6541L61.3345 36.1352C58.1463 33.5266 54.1212 32.0889 50 32.0889C40.1244 32.0889 32.0887 40.1245 32.0887 50.0001Z" fill="white"/>
<path d="M50 64.6547C46.6294 64.6547 43.3354 63.4791 40.7285 61.346L38.6654 63.865C41.8536 66.4735 45.8787 67.9113 50 67.9113C59.8756 67.9113 67.9112 59.8757 67.9112 50.0001C67.9112 45.8789 66.475 41.8537 63.8665 38.6655L61.3459 40.7302C63.479 43.3355 64.6546 46.6295 64.6546 50.0001C64.6546 58.0813 58.0796 64.6547 50 64.6547Z" fill="white"/>
<path d="M29.1856 23.7276L50 19.1016L77.681 25.2533V56.5133H80.9376V22.6415L50 15.7668L28.4789 20.5475L29.1856 23.7276Z" fill="white"/>
<path d="M12.5492 25.5757H9.29266V28.8323H12.5492V25.5757Z" fill="white"/>
<path d="M90.7073 77.681H87.4507V85.8225H90.3752L82.5659 94.7471L74.7566 85.8225H77.681V66.9571L100 44.6381L97.6976 42.3357L74.4244 65.6088V68.8589C72.5372 71.7101 69.9417 74.0304 66.8805 75.561L50 84.002L33.1195 75.561C26.4581 72.2295 22.319 65.5339 22.319 58.0861V37.6478L25.5756 34.3912V17.4342H32.4209L17.4341 0.306152L2.44732 17.4342H9.29267V22.319H12.5493V14.1776H9.62484L17.4341 5.25291L25.2434 14.1776H22.319V33.043L0 55.362L2.30241 57.6644L19.0624 40.9044V58.0861C19.0624 66.7763 23.8903 74.5889 31.6638 78.474L50 87.6429L68.3362 78.474C70.6207 77.3326 72.6544 75.7808 74.4244 73.9652V82.5659H67.579L82.5659 99.6939L97.5527 82.5659H90.7073V77.681Z" fill="white"/>
<path d="M90.7073 71.1678H87.4507V74.4244H90.7073V71.1678Z" fill="white"/>
</svg>
