<svg width="100" height="100" viewBox="0 0 100 100" fill="none" xmlns="http://www.w3.org/2000/svg">
<path d="M80.7929 18.1027H76.5644L73.6859 15.2242L73.5091 15.401L73.6859 15.2242L73.6788 15.2171L73.502 15.0404L73.3252 15.2171L70.4396 18.1027H66.5014H66.2514V18.3527V22.2908L63.2244 25.3109L63.2242 25.3111L63.2171 25.3182L63.0404 25.4949L63.2171 25.6717L66.2443 28.6989V32.6371V32.8871H66.4943H70.4326L73.3111 35.7656L73.3182 35.7727L73.4949 35.9495L73.6717 35.7727L76.5573 32.8871H80.7787H81.0287V32.6371V28.4228L83.7656 25.6859L83.7656 25.6859L83.7727 25.6788L83.9489 25.5027L83.7734 25.3259L81.0429 22.5747V18.3527V18.1027H80.7929ZM81.0429 23.8758L82.6619 25.4949L81.0429 27.114V26.6931L82.0215 25.5746L82.1687 25.4064L82.018 25.2414L81.0429 24.1734V23.8758ZM80.1181 22.9582V25.069L76.9179 25.0817L73.6363 21.8001L73.4595 21.6234L73.2828 21.8001L69.9017 25.1812H67.169V22.668L70.8166 19.0204H76.1803L80.1181 22.9582ZM73.6363 29.1543L77.0097 25.781L80.1111 25.8V28.0389L76.1873 31.9695H70.8237L67.169 28.3148V25.8794H70.0079L73.2828 29.1543L73.4595 29.3311L73.6363 29.1543ZM77.4891 19.0204H80.1181V21.6494L77.4891 19.0204ZM69.5149 31.9695H67.169V29.6236L69.5149 31.9695ZM71.7413 18.0957L73.502 16.335L75.2627 18.0957H71.7413ZM69.5149 19.0204L67.169 21.3663V19.0204H69.5149ZM66.2443 26.7776V27.3972L64.3421 25.4949L66.2443 23.5927V24.0798L65.1294 25.2748L64.968 25.4478L65.1318 25.6185L66.2443 26.7776ZM71.7413 32.8942H75.2627L73.502 34.6549L71.7413 32.8942ZM77.4891 31.9695L80.1181 29.3404V31.9695H77.4891ZM72.752 25.1812H71.7603C71.903 24.3683 72.6087 23.7488 73.4595 23.7488C74.4121 23.7488 75.1915 24.5223 75.1915 25.4808C75.1915 26.4334 74.4181 27.2128 73.4595 27.2128C72.6443 27.2128 71.9581 26.6454 71.7761 25.8865H72.7655C72.8836 26.0631 73.0847 26.1767 73.3109 26.1767C73.677 26.1767 73.9623 25.88 73.9644 25.5271C73.9736 25.1556 73.6786 24.8556 73.318 24.8556C73.0751 24.8556 72.8647 24.9872 72.752 25.1812Z" fill="white" stroke="white" stroke-width="0.5"/>
<path d="M56.4516 25.8065C56.4516 29.8888 57.8758 33.8759 60.4597 37.0339L62.9548 34.9904C60.8419 32.4081 59.6774 29.1452 59.6774 25.8065C59.6774 17.8033 66.1887 11.2904 74.1935 11.2904C77.5322 11.2904 80.7951 12.4549 83.3758 14.5678L85.421 12.071C82.2629 9.48716 78.2758 8.06458 74.1935 8.06458C64.4113 8.06458 56.4516 16.0243 56.4516 25.8065Z" fill="white"/>
<path d="M74.1935 40.3225C70.8548 40.3225 67.5919 39.158 65.0113 37.0451L62.9661 39.5419C66.1242 42.1258 70.1113 43.5483 74.1935 43.5483C83.9758 43.5483 91.9355 35.5887 91.9355 25.8064C91.9355 21.7241 90.5113 17.737 87.9274 14.579L85.4322 16.6225C87.5452 19.2048 88.7097 22.4677 88.7097 25.8064C88.7097 33.8096 82.1984 40.3225 74.1935 40.3225Z" fill="white"/>
<path d="M72.8113 0C68.0726 0 63.6161 1.84516 60.2661 5.19677L33.2032 32.2581L67.7419 66.7968L94.8032 39.7355C98.1532 36.3839 100 31.929 100 27.1903V0H72.8113ZM96.7742 27.1903C96.7742 31.0677 95.2629 34.7129 92.5226 37.4548L67.7419 62.2355L37.7645 32.2581L62.5452 7.47742C65.2871 4.73548 68.9322 3.22581 72.8097 3.22581H96.7742V27.1903Z" fill="white"/>
<path d="M88.7097 64.4016C88.7097 66.1242 88.0387 67.7451 86.8194 68.9645L85.4839 70.3L76.9468 61.7629L74.6661 64.0435L83.2032 72.5806L80.6452 75.1387L72.1081 66.6016L69.8274 68.8822L80.6452 79.7L89.1 71.2451C90.929 69.4161 91.9355 66.9855 91.9355 64.4016V46.7742H88.7097V64.4016Z" fill="white"/>
<path d="M33.3984 27.892L24.8613 19.3549L27.4193 16.7968L35.9564 25.3339L38.2371 23.0533L29.7 14.5162L31.0355 13.1807C32.2548 11.9613 33.8758 11.2904 35.5984 11.2904H53.2258V8.06458H35.5984C33.0145 8.06458 30.5855 9.07103 28.7548 10.8984L20.3 19.3549L31.1177 30.1726L33.3984 27.892Z" fill="white"/>
<path d="M42.407 31.7866L68.2125 57.592L70.4935 55.3111L44.688 29.5056L42.407 31.7866Z" fill="white"/>
<path d="M35.4839 64.5161C35.4839 68.0742 38.3774 70.9677 41.9355 70.9677C45.4935 70.9677 48.3871 68.0742 48.3871 64.5161C48.3871 62.5806 47.5129 60.8613 46.1581 59.6774L49.829 52.3339L46.9435 50.8903L43.2839 58.2097C42.8484 58.1177 42.3984 58.0645 41.9355 58.0645C39.7177 58.0645 37.7597 59.1903 36.5968 60.8984L25.7484 57.0226C25.7661 56.8323 25.8064 56.6468 25.8064 56.4516C25.8064 52.8935 22.9129 50 19.3548 50C15.7968 50 12.9032 52.8935 12.9032 56.4516C12.9032 58.6887 14.0484 60.6597 15.7806 61.8177L6.97097 87.15C6.79677 87.1355 6.62903 87.0968 6.45161 87.0968C2.89355 87.0968 0 89.9903 0 93.5484C0 97.1065 2.89355 100 6.45161 100C10.0097 100 12.9032 97.1065 12.9032 93.5484C12.9032 91.3113 11.7581 89.3403 10.0258 88.1823L18.8371 62.85C19.0097 62.8645 19.1774 62.9032 19.3548 62.9032C21.5726 62.9032 23.5306 61.779 24.6919 60.0694L35.5419 63.9452C35.5242 64.1355 35.4839 64.321 35.4839 64.5161ZM41.9355 61.2903C43.7145 61.2903 45.1613 62.7371 45.1613 64.5161C45.1613 66.2952 43.7145 67.7419 41.9355 67.7419C40.1564 67.7419 38.7097 66.2952 38.7097 64.5161C38.7097 62.7371 40.1564 61.2903 41.9355 61.2903ZM6.45161 96.7742C4.67258 96.7742 3.22581 95.3274 3.22581 93.5484C3.22581 91.7694 4.67258 90.3226 6.45161 90.3226C8.23064 90.3226 9.67742 91.7694 9.67742 93.5484C9.67742 95.3274 8.23064 96.7742 6.45161 96.7742ZM19.3548 59.6774C17.5758 59.6774 16.129 58.2306 16.129 56.4516C16.129 54.6726 17.5758 53.2258 19.3548 53.2258C21.1339 53.2258 22.5806 54.6726 22.5806 56.4516C22.5806 58.2306 21.1339 59.6774 19.3548 59.6774Z" fill="white"/>
<path d="M44.0202 85.9557L46.3011 88.2367L65.6561 68.8817L63.3752 66.6007L44.0202 85.9557Z" fill="white"/>
<path d="M39.1811 90.7957L41.462 93.0767L44.6873 89.8514L42.4064 87.5704L39.1811 90.7957Z" fill="white"/>
<path d="M58.5414 61.7629L35.9612 84.343L38.2422 86.624L60.8224 64.0438L58.5414 61.7629Z" fill="white"/>
<path d="M31.1236 89.1818L33.4046 91.4628L36.6299 88.2375L34.3489 85.9565L31.1236 89.1818Z" fill="white"/>
<path d="M33.3967 36.6311L31.1158 34.3501L19.8262 45.6396L22.1072 47.9206L33.3967 36.6311Z" fill="white"/>
<path d="M38.2364 41.4631L35.9555 39.1821L26.2786 48.859L28.5596 51.14L38.2364 41.4631Z" fill="white"/>
</svg>
