<svg width="24" height="25" viewBox="0 0 24 25" fill="none" xmlns="http://www.w3.org/2000/svg">
<path opacity="0.5" d="M11.9997 9.92228C10.6872 9.92228 9.61848 11.0273 9.61848 12.385C9.61848 13.7433 10.6872 14.8489 11.9997 14.8489C13.3127 14.8489 14.3809 13.7433 14.3809 12.385C14.3809 11.0273 13.3127 9.92228 11.9997 9.92228ZM11.9997 9.92228C10.6872 9.92228 9.61848 11.0273 9.61848 12.385C9.61848 13.7433 10.6872 14.8489 11.9997 14.8489C13.3127 14.8489 14.3809 13.7433 14.3809 12.385C14.3809 11.0273 13.3127 9.92228 11.9997 9.92228ZM15.9666 5.90608H8.03328C6.76702 5.90608 5.73668 6.97196 5.73668 8.28188V16.4888C5.73668 17.7987 6.76702 18.8646 8.03328 18.8646H15.9666C17.2329 18.8646 18.2632 17.7987 18.2632 16.4888V8.28188C18.2632 6.97196 17.2329 5.90608 15.9666 5.90608ZM11.9997 16.6513C9.72619 16.6513 7.87618 14.7375 7.87618 12.385C7.87618 10.0332 9.72619 8.11936 11.9997 8.11936C14.2737 8.11936 16.1237 10.0332 16.1237 12.385C16.1237 14.7375 14.2737 16.6513 11.9997 16.6513ZM16.2561 9.00153C15.7181 9.00153 15.2804 8.54876 15.2804 7.99218C15.2804 7.43559 15.7181 6.98283 16.2561 6.98283C16.7941 6.98283 17.2318 7.43559 17.2318 7.99218C17.2318 8.54876 16.7941 9.00153 16.2561 9.00153ZM11.9997 9.92228C10.6872 9.92228 9.61848 11.0273 9.61848 12.385C9.61848 13.7433 10.6872 14.8489 11.9997 14.8489C13.3127 14.8489 14.3809 13.7433 14.3809 12.385C14.3809 11.0273 13.3127 9.92228 11.9997 9.92228ZM15.9666 5.90608H8.03328C6.76702 5.90608 5.73668 6.97196 5.73668 8.28188V16.4888C5.73668 17.7987 6.76702 18.8646 8.03328 18.8646H15.9666C17.2329 18.8646 18.2632 17.7987 18.2632 16.4888V8.28188C18.2632 6.97196 17.2329 5.90608 15.9666 5.90608ZM11.9997 16.6513C9.72619 16.6513 7.87618 14.7375 7.87618 12.385C7.87618 10.0332 9.72619 8.11936 11.9997 8.11936C14.2737 8.11936 16.1237 10.0332 16.1237 12.385C16.1237 14.7375 14.2737 16.6513 11.9997 16.6513ZM16.2561 9.00153C15.7181 9.00153 15.2804 8.54876 15.2804 7.99218C15.2804 7.43559 15.7181 6.98283 16.2561 6.98283C16.7941 6.98283 17.2318 7.43559 17.2318 7.99218C17.2318 8.54876 16.7941 9.00153 16.2561 9.00153ZM11.9997 9.92228C10.6872 9.92228 9.61848 11.0273 9.61848 12.385C9.61848 13.7433 10.6872 14.8489 11.9997 14.8489C13.3127 14.8489 14.3809 13.7433 14.3809 12.385C14.3809 11.0273 13.3127 9.92228 11.9997 9.92228ZM0.0274658 0V24.7706H23.9724V0H0.0274658ZM20.0055 16.4888C20.0055 18.7928 18.1938 20.6669 15.9666 20.6669H8.03328C5.80603 20.6669 3.99438 18.7928 3.99438 16.4888V8.28188C3.99438 5.97783 5.80603 4.10371 8.03328 4.10371H15.9666C18.1938 4.10371 20.0055 5.97783 20.0055 8.28188V16.4888ZM15.9666 5.90608H8.03328C6.76702 5.90608 5.73668 6.97196 5.73668 8.28188V16.4888C5.73668 17.7987 6.76702 18.8646 8.03328 18.8646H15.9666C17.2329 18.8646 18.2632 17.7987 18.2632 16.4888V8.28188C18.2632 6.97196 17.2329 5.90608 15.9666 5.90608ZM11.9997 16.6513C9.72619 16.6513 7.87618 14.7375 7.87618 12.385C7.87618 10.0332 9.72619 8.11936 11.9997 8.11936C14.2737 8.11936 16.1237 10.0332 16.1237 12.385C16.1237 14.7375 14.2737 16.6513 11.9997 16.6513ZM16.2561 9.00153C15.7181 9.00153 15.2804 8.54876 15.2804 7.99218C15.2804 7.43559 15.7181 6.98283 16.2561 6.98283C16.7941 6.98283 17.2318 7.43559 17.2318 7.99218C17.2318 8.54876 16.7941 9.00153 16.2561 9.00153ZM11.9997 9.92228C10.6872 9.92228 9.61848 11.0273 9.61848 12.385C9.61848 13.7433 10.6872 14.8489 11.9997 14.8489C13.3127 14.8489 14.3809 13.7433 14.3809 12.385C14.3809 11.0273 13.3127 9.92228 11.9997 9.92228ZM11.9997 9.92228C10.6872 9.92228 9.61848 11.0273 9.61848 12.385C9.61848 13.7433 10.6872 14.8489 11.9997 14.8489C13.3127 14.8489 14.3809 13.7433 14.3809 12.385C14.3809 11.0273 13.3127 9.92228 11.9997 9.92228ZM11.9997 9.92228C10.6872 9.92228 9.61848 11.0273 9.61848 12.385C9.61848 13.7433 10.6872 14.8489 11.9997 14.8489C13.3127 14.8489 14.3809 13.7433 14.3809 12.385C14.3809 11.0273 13.3127 9.92228 11.9997 9.92228ZM15.9666 5.90608H8.03328C6.76702 5.90608 5.73668 6.97196 5.73668 8.28188V16.4888C5.73668 17.7987 6.76702 18.8646 8.03328 18.8646H15.9666C17.2329 18.8646 18.2632 17.7987 18.2632 16.4888V8.28188C18.2632 6.97196 17.2329 5.90608 15.9666 5.90608ZM11.9997 16.6513C9.72619 16.6513 7.87618 14.7375 7.87618 12.385C7.87618 10.0332 9.72619 8.11936 11.9997 8.11936C14.2737 8.11936 16.1237 10.0332 16.1237 12.385C16.1237 14.7375 14.2737 16.6513 11.9997 16.6513ZM16.2561 9.00153C15.7181 9.00153 15.2804 8.54876 15.2804 7.99218C15.2804 7.43559 15.7181 6.98283 16.2561 6.98283C16.7941 6.98283 17.2318 7.43559 17.2318 7.99218C17.2318 8.54876 16.7941 9.00153 16.2561 9.00153ZM11.9997 9.92228C10.6872 9.92228 9.61848 11.0273 9.61848 12.385C9.61848 13.7433 10.6872 14.8489 11.9997 14.8489C13.3127 14.8489 14.3809 13.7433 14.3809 12.385C14.3809 11.0273 13.3127 9.92228 11.9997 9.92228ZM11.9997 9.92228C10.6872 9.92228 9.61848 11.0273 9.61848 12.385C9.61848 13.7433 10.6872 14.8489 11.9997 14.8489C13.3127 14.8489 14.3809 13.7433 14.3809 12.385C14.3809 11.0273 13.3127 9.92228 11.9997 9.92228ZM11.9997 9.92228C10.6872 9.92228 9.61848 11.0273 9.61848 12.385C9.61848 13.7433 10.6872 14.8489 11.9997 14.8489C13.3127 14.8489 14.3809 13.7433 14.3809 12.385C14.3809 11.0273 13.3127 9.92228 11.9997 9.92228ZM15.9666 5.90608H8.03328C6.76702 5.90608 5.73668 6.97196 5.73668 8.28188V16.4888C5.73668 17.7987 6.76702 18.8646 8.03328 18.8646H15.9666C17.2329 18.8646 18.2632 17.7987 18.2632 16.4888V8.28188C18.2632 6.97196 17.2329 5.90608 15.9666 5.90608ZM11.9997 16.6513C9.72619 16.6513 7.87618 14.7375 7.87618 12.385C7.87618 10.0332 9.72619 8.11936 11.9997 8.11936C14.2737 8.11936 16.1237 10.0332 16.1237 12.385C16.1237 14.7375 14.2737 16.6513 11.9997 16.6513ZM16.2561 9.00153C15.7181 9.00153 15.2804 8.54876 15.2804 7.99218C15.2804 7.43559 15.7181 6.98283 16.2561 6.98283C16.7941 6.98283 17.2318 7.43559 17.2318 7.99218C17.2318 8.54876 16.7941 9.00153 16.2561 9.00153ZM11.9997 9.92228C10.6872 9.92228 9.61848 11.0273 9.61848 12.385C9.61848 13.7433 10.6872 14.8489 11.9997 14.8489C13.3127 14.8489 14.3809 13.7433 14.3809 12.385C14.3809 11.0273 13.3127 9.92228 11.9997 9.92228Z" fill="black"/>
</svg>
