<svg width="25" height="25" viewBox="0 0 25 25" fill="none" xmlns="http://www.w3.org/2000/svg">
<g opacity="0.5">
<path fill-rule="evenodd" clip-rule="evenodd" d="M0.514282 0H25V24.4858H0.514282V0ZM3.42051 11.7858L19.7945 5.40509C20.4176 5.16224 21.0617 5.70769 20.9248 6.36237L18.1293 19.7279C17.9981 20.3551 17.2625 20.6368 16.7459 20.2576L12.525 17.1593L10.3738 19.3559C9.99624 19.7414 9.34403 19.5853 9.18183 19.0707L7.62902 14.1434L3.46823 12.9148C2.92229 12.7536 2.89016 11.9925 3.42051 11.7858ZM10.136 15.0969L17.7416 8.37123C17.9237 8.21026 17.7122 7.92592 17.5057 8.05412L8.52424 13.6245C8.36612 13.7225 8.29418 13.9151 8.34936 14.0928L9.55411 17.9749C9.57947 18.0564 9.69827 18.0452 9.70783 17.9603L10.0007 15.3573C10.0119 15.2567 10.0602 15.1639 10.136 15.0969Z" fill="black"/>
</g>
</svg>
